<svg width="173" height="399" viewBox="0 0 173 399" fill="none" xmlns="http://www.w3.org/2000/svg">
<path d="M82.7763 52.7722C82.7763 52.7722 85.5983 60.5429 79.9545 63.3686C74.3106 66.1943 72.4293 79.6164 72.4293 79.6164L83.717 102.928L113.818 107.167L125.105 90.9192V66.9007C125.105 66.9007 121.343 54.8915 122.283 51.3594C123.224 47.8272 82.7763 52.7722 82.7763 52.7722Z" fill="#FFB9B9"/>
<path opacity="0.2" d="M82.7763 52.7722C82.7763 52.7722 85.5983 60.5429 79.9545 63.3686C74.3106 66.1943 72.4293 79.6164 72.4293 79.6164L83.717 102.928L113.818 107.167L125.105 90.9192V66.9007C125.105 66.9007 121.343 54.8915 122.283 51.3594C123.224 47.8272 82.7763 52.7722 82.7763 52.7722Z" fill="black"/>
<path d="M52.6757 186.287L28.2191 189.819C28.2191 189.819 26.3378 210.306 28.2191 215.251C30.1004 220.195 31.9816 225.847 30.1003 227.26C28.219 228.673 38.5662 264.7 37.6255 266.82C36.6848 268.939 34.8036 275.297 35.7442 279.535C36.6849 283.774 39.5067 282.361 37.6255 286.599C35.7442 290.838 33.8629 291.544 35.7442 294.37C37.6255 297.196 47.0319 365.719 49.8539 366.425C52.6758 367.132 78.0731 367.838 78.0731 366.425C78.0731 365.013 69.6073 354.416 72.4293 351.591C75.2512 348.765 71.4885 300.728 71.4885 298.609C71.4885 296.489 65.8448 292.957 68.6667 291.544C71.4886 290.132 73.3699 288.719 72.4293 286.599C71.4886 284.48 69.6073 283.774 71.4885 281.654C73.3698 279.535 73.3699 237.15 79.9544 235.737C79.9544 235.737 88.4202 266.82 85.5982 274.59C82.7762 282.361 86.5389 285.187 86.5389 285.187L73.3699 293.664L91.2421 319.095L110.055 302.847C110.055 302.847 110.055 298.609 113.817 297.902C117.58 297.196 119.461 296.489 119.461 294.37C119.461 292.251 126.046 278.829 126.046 278.829C126.046 278.829 144.859 234.324 135.452 211.718C126.046 189.113 122.422 189.861 122.422 189.861L52.6757 186.287Z" fill="#2F2E41"/>
<path d="M37.6259 332.517L27.2781 340.994L31.0406 364.305H39.5064L52.6757 342.406L37.6259 332.517Z" fill="#FFB9B9"/>
<path d="M31.0413 348.058C31.0413 348.058 34.8038 354.416 37.6257 353.003C40.4476 351.59 41.3831 349.471 45.6186 349.471C49.8541 349.471 53.6166 350.177 52.6759 351.59C51.7353 353.003 40.4477 368.544 40.4477 368.544C38.7915 371.197 37.9328 374.091 37.9328 377.022C37.9328 379.952 38.7915 382.846 40.4477 385.499C46.0916 394.682 25.3975 399.627 21.6349 389.737C17.8723 379.847 16.9317 368.544 17.8723 364.306C18.813 360.067 13.1691 338.168 13.1691 338.168C13.1691 338.168 28.365 332.907 32.9954 332.712C32.9954 332.712 29.16 345.232 31.0413 348.058Z" fill="#2F2E41"/>
<path d="M56.4384 363.599L52.6759 372.076C52.6759 372.076 52.6759 380.553 48.9133 384.792C45.1508 389.03 41.3882 398.214 56.4384 398.92C71.4887 399.627 78.0732 395.388 78.0732 395.388C78.0732 395.388 75.2513 389.737 78.0732 387.618C80.8951 385.498 78.0732 381.26 78.0732 381.26L75.2514 364.306L56.4384 363.599Z" fill="#2F2E41"/>
<path d="M81.8357 292.957H73.3699L31.0411 334.636C31.0411 334.636 38.5662 348.058 49.8539 349.471C49.8539 349.471 51.7352 348.765 60.2009 344.526C68.6667 340.287 91.2421 319.095 91.2421 319.095L94.064 307.086L81.8357 292.957Z" fill="#2F2E41"/>
<path d="M102.53 61.9563C85.9057 61.9563 72.4293 51.8354 72.4293 39.3507C72.4293 26.866 85.9057 16.7451 102.53 16.7451C119.154 16.7451 132.63 26.866 132.63 39.3507C132.63 51.8354 119.154 61.9563 102.53 61.9563Z" fill="#FFB9B9"/>
<path d="M65.8447 68.3135L75.2512 65.4878C75.2512 65.4878 76.1917 90.2127 94.0639 90.2127C111.936 90.2127 130.749 86.6805 130.749 79.6163C130.749 72.552 145.799 92.3319 145.799 92.3319C145.799 92.3319 131.69 162.974 132.63 163.681C133.571 164.387 122.283 201.828 122.283 201.828C122.283 201.828 74.3105 203.241 58.3196 198.296C42.3287 193.351 37.6254 184.167 37.6254 184.167L44.21 122.002L57.3789 73.9649L65.8447 68.3135Z" fill="#233D8C"/>
<path d="M81.8303 61.9566C81.8303 61.9566 78.0731 59.1308 72.4293 61.9566C66.7855 64.7823 31.9817 71.14 31.9817 73.2593V100.103C31.9817 100.103 31.0411 104.342 33.863 107.168C36.685 109.993 43.2694 120.59 39.5068 125.535C35.7443 130.48 21.6347 187.7 24.4566 194.764C27.2785 201.829 34.8037 208.187 34.8037 208.187C34.8037 208.187 75.2512 143.902 75.2512 125.535C75.2512 107.168 74.8587 84.6345 74.8587 84.6345L81.8303 61.9566Z" fill="#575A89"/>
<path d="M40.4476 73.9653H31.9818C31.9818 73.9653 -1.40385e-05 119.883 -1.40385e-05 129.067C-1.40385e-05 138.25 20.6941 189.113 22.5754 189.819C24.4566 190.525 30.1005 182.048 30.1005 182.048L34.8038 153.791C34.8038 153.791 25.3973 136.837 28.2193 134.011C31.0412 131.186 45.1508 109.287 45.1508 109.287L40.4476 73.9653Z" fill="#575A89"/>
<path d="M123.714 61.9561C123.714 61.9561 134.512 67.6075 136.393 69.7267C138.274 71.846 166.493 83.8552 167.434 86.6809C168.375 89.5066 145.799 113.525 145.799 113.525C145.799 113.525 136.393 153.085 136.393 155.911C136.393 158.736 132.63 206.773 132.63 206.773C132.63 206.773 94.0641 215.25 94.0641 210.305C94.0641 205.36 93.1235 134.718 98.7673 119.176C104.411 103.635 123.714 61.9561 123.714 61.9561Z" fill="#575A89"/>
<path d="M117.58 208.186C117.58 208.186 85.5982 240.682 102.53 239.975C119.461 239.269 130.749 211.718 130.749 211.718L117.58 208.186Z" fill="#FFB9B9"/>
<path d="M156.146 84.5615L167.434 86.6808C167.434 86.6808 176.84 148.846 171.197 157.323C165.553 165.8 135.452 220.902 135.452 218.782C135.452 216.663 108.973 212.886 109.985 210.889C110.996 208.892 116.639 200.415 118.521 197.59C120.402 194.764 123.224 191.232 122.283 187.7C121.343 184.168 132.63 169.049 132.63 169.049C132.63 169.049 135.452 160.149 136.393 155.91C137.334 151.672 145.799 105.048 145.799 105.048L156.146 84.5615Z" fill="#575A89"/>
<path d="M73.0169 21.8513C73.5921 20.522 74.8065 19.4015 76.423 18.7086C76.3386 17.3053 76.582 15.9016 77.1421 14.5613C79.0158 10.6457 83.4545 10.8702 87.6424 9.13908C89.4595 8.38801 89.3472 7.72419 90.2931 6.49058C91.5628 4.85145 93.4192 3.51257 95.6513 2.62605C98.2345 1.24921 101.217 0.354689 104.353 0.016622C111.033 -0.305204 116.154 4.13597 122.538 5.56127C125.352 6.18948 128.376 6.21538 131.205 6.8093C134.034 7.40322 136.856 8.82136 137.278 10.886C137.473 11.8391 137.129 12.8169 137.327 13.7698C137.719 15.6638 140.07 16.9902 141.643 18.548C145.123 21.9927 144.725 26.8592 141.942 30.6073C141.353 31.3861 140.682 32.1283 139.936 32.8269C139.7 34.6082 138.978 36.3341 137.817 37.8974C135.034 41.6455 130.246 44.4462 125.244 46.7731C125.653 45.5324 125.901 44.2649 125.986 42.9883C126.056 42.5625 125.978 42.1303 125.758 41.7343C125.201 40.9111 123.729 40.6922 122.607 40.2414C121.536 39.7132 120.668 38.9841 120.089 38.1265C119.51 37.2688 119.239 36.3123 119.303 35.3517C119.236 33.4624 119.802 31.5699 119.522 29.6903C119.507 29.2521 119.365 28.8217 119.107 28.4287C118.848 28.0358 118.479 27.6898 118.024 27.4147C117.157 27.0672 116.181 26.9028 115.2 26.9388C110.437 26.8014 105.461 26.7395 101.259 25.1474C99.8961 24.5083 98.4404 23.9878 96.9204 23.5959C93.3501 22.9377 89.7012 24.7066 87.6435 26.8716C85.5859 29.0365 84.5599 31.6128 82.6614 33.8493C80.763 36.0857 77.4833 38.0801 73.8128 37.8151C73.6085 37.8163 73.406 37.7864 73.2176 37.7272C73.0292 37.668 72.8588 37.5806 72.7166 37.4705C72.559 37.2718 72.4884 37.0409 72.5147 36.8104L72.3096 26.8923C72.1394 25.1937 72.379 23.486 73.0169 21.8513V21.8513Z" fill="#2F2E41"/>
</svg>
