<svg width="492" height="375" viewBox="0 0 492 375" fill="none" xmlns="http://www.w3.org/2000/svg">
<path d="M470 0H0V254H470V0Z" fill="#E6E6E6"/>
<path d="M469 0H0V26H469V0Z" fill="#1C4966"/>
<path d="M458 34H11V241H458V34Z" fill="white"/>
<path d="M44.5 17C46.9853 17 49 15.2091 49 13C49 10.7909 46.9853 9 44.5 9C42.0147 9 40 10.7909 40 13C40 15.2091 42.0147 17 44.5 17Z" fill="white"/>
<path d="M62.5 17C64.9853 17 67 15.2091 67 13C67 10.7909 64.9853 9 62.5 9C60.0147 9 58 10.7909 58 13C58 15.2091 60.0147 17 62.5 17Z" fill="white"/>
<path d="M26.5 17C28.9853 17 31 15.2091 31 13C31 10.7909 28.9853 9 26.5 9C24.0147 9 22 10.7909 22 13C22 15.2091 24.0147 17 26.5 17Z" fill="white"/>
<path d="M405 88H62V96H405V88Z" fill="#E6E6E6"/>
<path d="M295 109H172V117H295V109Z" fill="#E6E6E6"/>
<path d="M295 150H172V159H295V150Z" fill="#E6E6E6"/>
<path d="M295 172H172V180H295V172Z" fill="#E6E6E6"/>
<path d="M355 129H112V137H355V129Z" fill="#E6E6E6"/>
<path d="M376 180H336V188H376V180Z" fill="#1C4966"/>
<path d="M430.998 368L423.546 367.999L420 340L431 340.001L430.998 368Z" fill="#9F616A"/>
<path d="M417.886 366H432V375H409C409 372.613 409.936 370.324 411.603 368.636C413.269 366.948 415.53 366 417.886 366Z" fill="#2F2E41"/>
<path d="M459.998 368L452.546 367.999L449 340L460 340.001L459.998 368Z" fill="#9F616A"/>
<path d="M446.886 366H461V375H438C438 373.818 438.23 372.648 438.676 371.556C439.123 370.464 439.778 369.472 440.603 368.636C441.428 367.8 442.408 367.137 443.486 366.685C444.564 366.233 445.719 366 446.886 366Z" fill="#2F2E41"/>
<path d="M458.42 285.968C457.583 285.468 456.875 284.805 456.344 284.023C455.814 283.242 455.474 282.363 455.35 281.446C455.225 280.53 455.319 279.6 455.623 278.721C455.928 277.842 456.437 277.035 457.113 276.359L452 209L466.729 210.326L467.134 276.29C468.284 277.421 468.946 278.904 468.997 280.458C469.047 282.012 468.482 283.529 467.408 284.722C466.334 285.915 464.825 286.701 463.169 286.93C461.512 287.16 459.823 286.818 458.42 285.968L458.42 285.968Z" fill="#9F616A"/>
<path d="M430.512 353.997L422.214 353.622C421.507 353.591 420.84 353.304 420.35 352.821C419.86 352.339 419.584 351.697 419.579 351.028L419 271.635C418.997 271.258 419.081 270.885 419.245 270.541C419.408 270.198 419.649 269.892 419.949 269.644C420.25 269.396 420.603 269.213 420.985 269.107C421.368 269 421.77 268.973 422.164 269.027L455.361 273.584C456.017 273.671 456.618 273.978 457.053 274.451C457.488 274.923 457.729 275.527 457.73 276.154L462 349.72C462.003 350.065 461.933 350.407 461.795 350.727C461.657 351.047 461.454 351.337 461.197 351.582C460.94 351.827 460.634 352.022 460.297 352.155C459.96 352.287 459.598 352.356 459.233 352.356H450.287C449.627 352.358 448.988 352.137 448.487 351.731C447.985 351.325 447.654 350.763 447.554 350.146C447.554 350.146 440.797 294.965 439.869 294.997C438.937 295.014 433.391 351.694 433.391 351.694C433.309 352.329 432.984 352.914 432.478 353.338C431.972 353.763 431.32 353.998 430.644 354C430.6 354 430.556 353.999 430.512 353.997Z" fill="#2F2E41"/>
<path d="M456.126 232.487C455.803 232.251 455.536 231.945 455.345 231.591C455.154 231.237 455.044 230.844 455.023 230.441L454.011 211.869C453.911 210.028 454.487 208.216 455.628 206.781C456.768 205.345 458.393 204.389 460.188 204.095C461.984 203.802 463.823 204.192 465.351 205.191C466.879 206.191 467.988 207.728 468.464 209.506L472.908 226.111C473.092 226.804 472.998 227.543 472.646 228.166C472.293 228.788 471.712 229.244 471.028 229.432L458.389 232.905C458.005 233.011 457.602 233.029 457.211 232.956C456.819 232.884 456.448 232.724 456.126 232.487Z" fill="#3F3D56"/>
<path d="M443.5 189C452.06 189 459 182.508 459 174.5C459 166.492 452.06 160 443.5 160C434.94 160 428 166.492 428 174.5C428 182.508 434.94 189 443.5 189Z" fill="#9F616A"/>
<path d="M387.843 202.804C387.919 203.124 387.969 203.449 387.991 203.777L414.625 218.477L421.099 214.912L428 223.556L414.151 233L383.766 210.065C382.527 210.504 381.177 210.571 379.897 210.258C378.616 209.946 377.466 209.267 376.599 208.313C375.731 207.36 375.188 206.176 375.04 204.919C374.893 203.663 375.149 202.394 375.775 201.28C376.4 200.166 377.365 199.261 378.541 198.684C379.717 198.108 381.049 197.888 382.359 198.054C383.669 198.219 384.895 198.762 385.875 199.611C386.855 200.459 387.541 201.573 387.843 202.804V202.804Z" fill="#9F616A"/>
<path d="M415.017 217.419C414.97 217.021 415.022 216.618 415.168 216.24C415.314 215.862 415.552 215.519 415.862 215.236L430.159 202.17C431.576 200.876 433.466 200.106 435.467 200.01C437.468 199.914 439.436 200.498 440.994 201.65C442.551 202.802 443.586 204.44 443.9 206.247C444.214 208.055 443.784 209.905 442.693 211.441L432.512 225.776C432.086 226.374 431.419 226.793 430.656 226.941C429.893 227.089 429.097 226.955 428.442 226.568L416.341 219.393C415.973 219.175 415.663 218.885 415.434 218.544C415.204 218.202 415.062 217.818 415.017 217.419V217.419Z" fill="#3F3D56"/>
<path d="M453.846 186.509C451.053 189.401 445.864 187.848 445.5 183.897C445.472 183.59 445.474 183.282 445.507 182.975C445.695 181.225 446.735 179.636 446.486 177.788C446.429 177.328 446.253 176.89 445.973 176.515C443.747 173.618 438.521 177.811 436.42 175.188C435.132 173.58 436.646 171.048 435.658 169.25C434.353 166.878 430.488 168.048 428.065 166.749C425.368 165.304 425.529 161.283 427.304 158.837C429.469 155.854 433.265 154.263 437.013 154.033C440.761 153.804 444.484 154.789 447.983 156.114C451.959 157.62 455.902 159.701 458.349 163.099C461.324 167.231 461.611 172.786 460.122 177.617C459.217 180.557 456.128 184.147 453.846 186.509Z" fill="#2F2E41"/>
<path d="M491.374 375H370.626C370.46 375 370.301 374.947 370.183 374.854C370.066 374.76 370 374.633 370 374.5C370 374.367 370.066 374.24 370.183 374.146C370.301 374.053 370.46 374 370.626 374H491.374C491.54 374 491.699 374.053 491.817 374.146C491.934 374.24 492 374.367 492 374.5C492 374.633 491.934 374.76 491.817 374.854C491.699 374.947 491.54 375 491.374 375Z" fill="#3F3D56"/>
<path d="M458.542 198.498C458.276 198.318 458.005 198.141 457.729 197.968C456.259 197.048 454.667 196.314 452.994 195.784V192H441.152V195.511C437.226 196.53 433.705 198.612 431.027 201.498C428.349 204.385 426.632 207.948 426.09 211.745L418.026 268.067C417.975 268.419 417.999 268.777 418.099 269.12C418.199 269.463 418.371 269.783 418.606 270.061C418.837 270.338 419.124 270.567 419.451 270.736C419.778 270.904 420.139 271.009 420.51 271.042C423.304 271.305 429.099 272.323 436.516 276.2C440.083 278.059 444.098 279.023 448.176 279C451.413 278.988 454.624 278.45 457.666 277.41C458.182 277.231 458.63 276.913 458.954 276.495C459.277 276.077 459.462 275.578 459.485 275.062C459.775 269 461.474 237.801 466.419 218.77C467.38 215.037 467.145 211.12 465.743 207.512C464.342 203.905 461.836 200.768 458.542 198.498Z" fill="#3F3D56"/>
<path d="M185.592 53.544C185.517 53.4267 185.448 53.2667 185.384 53.064C185.32 52.8613 185.288 52.648 185.288 52.424C185.288 52.008 185.379 51.7093 185.56 51.528C185.752 51.3467 185.997 51.256 186.296 51.256H193.272C193.347 51.3733 193.416 51.5333 193.48 51.736C193.544 51.9387 193.576 52.152 193.576 52.376C193.576 52.792 193.48 53.0907 193.288 53.272C193.107 53.4533 192.867 53.544 192.568 53.544H190.792V60.936C190.675 60.968 190.488 61 190.232 61.032C189.987 61.064 189.741 61.08 189.496 61.08C189.251 61.08 189.032 61.0587 188.84 61.016C188.659 60.984 188.504 60.92 188.376 60.824C188.248 60.728 188.152 60.5947 188.088 60.424C188.024 60.2533 187.992 60.0293 187.992 59.752V53.544H185.592ZM197.566 59.272C197.748 59.272 197.945 59.256 198.158 59.224C198.382 59.1813 198.548 59.128 198.654 59.064V57.784L197.502 57.88C197.204 57.9013 196.958 57.9653 196.766 58.072C196.574 58.1787 196.478 58.3387 196.478 58.552C196.478 58.7653 196.558 58.9413 196.718 59.08C196.889 59.208 197.172 59.272 197.566 59.272ZM197.438 52.984C198.014 52.984 198.537 53.0427 199.006 53.16C199.486 53.2773 199.892 53.4587 200.222 53.704C200.564 53.9387 200.825 54.2427 201.006 54.616C201.188 54.9787 201.278 55.4107 201.278 55.912V59.496C201.278 59.7733 201.198 60.0027 201.038 60.184C200.889 60.3547 200.708 60.504 200.494 60.632C199.801 61.048 198.825 61.256 197.566 61.256C197.001 61.256 196.489 61.2027 196.03 61.096C195.582 60.9893 195.193 60.8293 194.862 60.616C194.542 60.4027 194.292 60.1307 194.11 59.8C193.94 59.4693 193.854 59.0853 193.854 58.648C193.854 57.912 194.073 57.3467 194.51 56.952C194.948 56.5573 195.625 56.312 196.542 56.216L198.638 55.992V55.88C198.638 55.5707 198.5 55.352 198.222 55.224C197.956 55.0853 197.566 55.016 197.054 55.016C196.649 55.016 196.254 55.0587 195.87 55.144C195.486 55.2293 195.14 55.336 194.83 55.464C194.692 55.368 194.574 55.224 194.478 55.032C194.382 54.8293 194.334 54.6213 194.334 54.408C194.334 54.1307 194.398 53.912 194.526 53.752C194.665 53.5813 194.873 53.4373 195.15 53.32C195.46 53.2027 195.822 53.1173 196.238 53.064C196.665 53.0107 197.065 52.984 197.438 52.984ZM206.669 52.984C207.107 52.984 207.533 53.048 207.949 53.176C208.376 53.2933 208.744 53.4747 209.053 53.72C209.373 53.5067 209.731 53.3307 210.125 53.192C210.531 53.0533 211.016 52.984 211.581 52.984C211.987 52.984 212.381 53.0373 212.765 53.144C213.16 53.2507 213.507 53.4213 213.805 53.656C214.115 53.88 214.36 54.184 214.541 54.568C214.723 54.9413 214.813 55.4 214.813 55.944V60.984C214.707 61.016 214.536 61.048 214.301 61.08C214.077 61.112 213.843 61.128 213.597 61.128C213.363 61.128 213.149 61.112 212.957 61.08C212.776 61.048 212.621 60.984 212.493 60.888C212.365 60.792 212.264 60.664 212.189 60.504C212.125 60.3333 212.093 60.1147 212.093 59.848V56.024C212.093 55.704 212.003 55.4747 211.821 55.336C211.64 55.1867 211.395 55.112 211.085 55.112C210.936 55.112 210.776 55.1493 210.605 55.224C210.435 55.288 210.307 55.3573 210.221 55.432C210.232 55.4747 210.237 55.5173 210.237 55.56C210.237 55.592 210.237 55.624 210.237 55.656V60.984C210.12 61.016 209.944 61.048 209.709 61.08C209.485 61.112 209.256 61.128 209.021 61.128C208.787 61.128 208.573 61.112 208.381 61.08C208.2 61.048 208.045 60.984 207.917 60.888C207.789 60.792 207.688 60.664 207.613 60.504C207.549 60.3333 207.517 60.1147 207.517 59.848V56.024C207.517 55.704 207.416 55.4747 207.213 55.336C207.021 55.1867 206.787 55.112 206.509 55.112C206.317 55.112 206.152 55.144 206.013 55.208C205.875 55.2613 205.757 55.3147 205.661 55.368V60.984C205.555 61.016 205.384 61.048 205.149 61.08C204.925 61.112 204.691 61.128 204.445 61.128C204.211 61.128 203.997 61.112 203.805 61.08C203.624 61.048 203.469 60.984 203.341 60.888C203.213 60.792 203.112 60.664 203.037 60.504C202.973 60.3333 202.941 60.1147 202.941 59.848V55.016C202.941 54.728 203 54.4987 203.117 54.328C203.245 54.1573 203.416 53.9973 203.629 53.848C203.992 53.592 204.44 53.384 204.973 53.224C205.517 53.064 206.083 52.984 206.669 52.984ZM216.505 50.584C216.611 50.552 216.782 50.52 217.017 50.488C217.251 50.4453 217.491 50.424 217.737 50.424C217.971 50.424 218.179 50.44 218.361 50.472C218.553 50.504 218.713 50.568 218.841 50.664C218.969 50.76 219.065 50.8933 219.129 51.064C219.193 51.224 219.225 51.4373 219.225 51.704V53.272C219.491 53.1653 219.742 53.0907 219.977 53.048C220.222 53.0053 220.489 52.984 220.777 52.984C221.289 52.984 221.774 53.0747 222.233 53.256C222.691 53.4373 223.097 53.704 223.449 54.056C223.801 54.3973 224.078 54.824 224.281 55.336C224.483 55.848 224.585 56.44 224.585 57.112C224.585 57.8053 224.478 58.4133 224.265 58.936C224.062 59.448 223.774 59.8747 223.401 60.216C223.027 60.5573 222.569 60.8187 222.025 61C221.491 61.1707 220.899 61.256 220.249 61.256C219.545 61.256 218.947 61.1707 218.457 61C217.966 60.84 217.55 60.6373 217.209 60.392C216.739 60.0613 216.505 59.6347 216.505 59.112V50.584ZM220.249 59.112C220.739 59.112 221.118 58.9467 221.385 58.616C221.662 58.2747 221.801 57.7733 221.801 57.112C221.801 56.44 221.662 55.9387 221.385 55.608C221.107 55.2773 220.734 55.112 220.265 55.112C220.051 55.112 219.865 55.1333 219.705 55.176C219.555 55.2187 219.39 55.2827 219.209 55.368V58.856C219.326 58.9307 219.465 58.9947 219.625 59.048C219.795 59.0907 220.003 59.112 220.249 59.112ZM229.269 59.272C229.451 59.272 229.648 59.256 229.861 59.224C230.085 59.1813 230.251 59.128 230.357 59.064V57.784L229.205 57.88C228.907 57.9013 228.661 57.9653 228.469 58.072C228.277 58.1787 228.181 58.3387 228.181 58.552C228.181 58.7653 228.261 58.9413 228.421 59.08C228.592 59.208 228.875 59.272 229.269 59.272ZM229.141 52.984C229.717 52.984 230.24 53.0427 230.709 53.16C231.189 53.2773 231.595 53.4587 231.925 53.704C232.267 53.9387 232.528 54.2427 232.709 54.616C232.891 54.9787 232.981 55.4107 232.981 55.912V59.496C232.981 59.7733 232.901 60.0027 232.741 60.184C232.592 60.3547 232.411 60.504 232.197 60.632C231.504 61.048 230.528 61.256 229.269 61.256C228.704 61.256 228.192 61.2027 227.733 61.096C227.285 60.9893 226.896 60.8293 226.565 60.616C226.245 60.4027 225.995 60.1307 225.813 59.8C225.643 59.4693 225.557 59.0853 225.557 58.648C225.557 57.912 225.776 57.3467 226.213 56.952C226.651 56.5573 227.328 56.312 228.245 56.216L230.341 55.992V55.88C230.341 55.5707 230.203 55.352 229.925 55.224C229.659 55.0853 229.269 55.016 228.757 55.016C228.352 55.016 227.957 55.0587 227.573 55.144C227.189 55.2293 226.843 55.336 226.533 55.464C226.395 55.368 226.277 55.224 226.181 55.032C226.085 54.8293 226.037 54.6213 226.037 54.408C226.037 54.1307 226.101 53.912 226.229 53.752C226.368 53.5813 226.576 53.4373 226.853 53.32C227.163 53.2027 227.525 53.1173 227.941 53.064C228.368 53.0107 228.768 52.984 229.141 52.984ZM242.325 60.984C242.218 61.016 242.047 61.048 241.812 61.08C241.589 61.112 241.354 61.128 241.109 61.128C240.874 61.128 240.661 61.112 240.469 61.08C240.287 61.048 240.133 60.984 240.005 60.888C239.877 60.792 239.775 60.664 239.701 60.504C239.637 60.3333 239.605 60.1147 239.605 59.848V56.296C239.605 55.8587 239.493 55.5547 239.269 55.384C239.055 55.2027 238.789 55.112 238.469 55.112C238.255 55.112 238.053 55.1387 237.861 55.192C237.669 55.2453 237.514 55.3093 237.397 55.384V60.984C237.29 61.016 237.119 61.048 236.885 61.08C236.661 61.112 236.426 61.128 236.181 61.128C235.946 61.128 235.733 61.112 235.541 61.08C235.359 61.048 235.205 60.984 235.077 60.888C234.949 60.792 234.847 60.664 234.773 60.504C234.709 60.3333 234.677 60.1147 234.677 59.848V50.568C234.794 50.5467 234.965 50.52 235.189 50.488C235.423 50.4453 235.658 50.424 235.893 50.424C236.127 50.424 236.335 50.44 236.517 50.472C236.709 50.504 236.869 50.568 236.997 50.664C237.125 50.76 237.221 50.8933 237.285 51.064C237.359 51.224 237.397 51.4373 237.397 51.704V53.272C237.535 53.2187 237.743 53.16 238.021 53.096C238.309 53.0213 238.623 52.984 238.965 52.984C240.021 52.984 240.842 53.2507 241.429 53.784C242.026 54.3067 242.325 55.0907 242.325 56.136V60.984ZM250.535 59.272C250.716 59.272 250.914 59.256 251.127 59.224C251.351 59.1813 251.516 59.128 251.623 59.064V57.784L250.471 57.88C250.172 57.9013 249.927 57.9653 249.735 58.072C249.543 58.1787 249.447 58.3387 249.447 58.552C249.447 58.7653 249.527 58.9413 249.687 59.08C249.858 59.208 250.14 59.272 250.535 59.272ZM250.407 52.984C250.983 52.984 251.506 53.0427 251.975 53.16C252.455 53.2773 252.86 53.4587 253.191 53.704C253.532 53.9387 253.794 54.2427 253.975 54.616C254.156 54.9787 254.247 55.4107 254.247 55.912V59.496C254.247 59.7733 254.167 60.0027 254.007 60.184C253.858 60.3547 253.676 60.504 253.463 60.632C252.77 61.048 251.794 61.256 250.535 61.256C249.97 61.256 249.458 61.2027 248.999 61.096C248.551 60.9893 248.162 60.8293 247.831 60.616C247.511 60.4027 247.26 60.1307 247.079 59.8C246.908 59.4693 246.823 59.0853 246.823 58.648C246.823 57.912 247.042 57.3467 247.479 56.952C247.916 56.5573 248.594 56.312 249.511 56.216L251.607 55.992V55.88C251.607 55.5707 251.468 55.352 251.191 55.224C250.924 55.0853 250.535 55.016 250.023 55.016C249.618 55.016 249.223 55.0587 248.839 55.144C248.455 55.2293 248.108 55.336 247.799 55.464C247.66 55.368 247.543 55.224 247.447 55.032C247.351 54.8293 247.303 54.6213 247.303 54.408C247.303 54.1307 247.367 53.912 247.495 53.752C247.634 53.5813 247.842 53.4373 248.119 53.32C248.428 53.2027 248.791 53.1173 249.207 53.064C249.634 53.0107 250.034 52.984 250.407 52.984ZM258.63 60.984C258.523 61.016 258.353 61.048 258.118 61.08C257.894 61.112 257.659 61.128 257.414 61.128C257.179 61.128 256.966 61.112 256.774 61.08C256.593 61.048 256.438 60.984 256.31 60.888C256.182 60.792 256.081 60.664 256.006 60.504C255.942 60.3333 255.91 60.1147 255.91 59.848V55.048C255.91 54.8027 255.953 54.5947 256.038 54.424C256.134 54.2427 256.267 54.0827 256.438 53.944C256.609 53.8053 256.817 53.6827 257.062 53.576C257.318 53.4587 257.59 53.3573 257.878 53.272C258.166 53.1867 258.465 53.1227 258.774 53.08C259.083 53.0267 259.393 53 259.702 53C260.214 53 260.619 53.1013 260.918 53.304C261.217 53.496 261.366 53.816 261.366 54.264C261.366 54.4133 261.345 54.5627 261.302 54.712C261.259 54.8507 261.206 54.9787 261.142 55.096C260.918 55.096 260.689 55.1067 260.454 55.128C260.219 55.1493 259.99 55.1813 259.766 55.224C259.542 55.2667 259.329 55.3147 259.126 55.368C258.934 55.4107 258.769 55.464 258.63 55.528V60.984ZM265.208 58.328C265.208 58.6053 265.294 58.8027 265.464 58.92C265.646 59.0373 265.896 59.096 266.216 59.096C266.376 59.096 266.542 59.0853 266.712 59.064C266.883 59.032 267.032 58.9947 267.16 58.952C267.256 59.0693 267.336 59.2027 267.4 59.352C267.475 59.4907 267.512 59.6613 267.512 59.864C267.512 60.2693 267.358 60.6 267.048 60.856C266.75 61.112 266.216 61.24 265.448 61.24C264.51 61.24 263.784 61.0267 263.272 60.6C262.771 60.1733 262.52 59.48 262.52 58.52V51.672C262.638 51.64 262.803 51.608 263.016 51.576C263.24 51.5333 263.475 51.512 263.72 51.512C264.19 51.512 264.552 51.5973 264.808 51.768C265.075 51.928 265.208 52.2747 265.208 52.808V53.832H267.304C267.368 53.9493 267.427 54.0987 267.48 54.28C267.544 54.4507 267.576 54.6427 267.576 54.856C267.576 55.2293 267.491 55.5013 267.32 55.672C267.16 55.832 266.942 55.912 266.664 55.912H265.208V58.328ZM268.831 51.064C268.831 50.6587 268.964 50.3173 269.231 50.04C269.508 49.7627 269.871 49.624 270.319 49.624C270.767 49.624 271.124 49.7627 271.391 50.04C271.668 50.3173 271.807 50.6587 271.807 51.064C271.807 51.4693 271.668 51.8107 271.391 52.088C271.124 52.3653 270.767 52.504 270.319 52.504C269.871 52.504 269.508 52.3653 269.231 52.088C268.964 51.8107 268.831 51.4693 268.831 51.064ZM271.679 60.984C271.561 61.0053 271.385 61.032 271.151 61.064C270.927 61.1067 270.697 61.128 270.463 61.128C270.228 61.128 270.015 61.112 269.823 61.08C269.641 61.048 269.487 60.984 269.359 60.888C269.231 60.792 269.129 60.664 269.055 60.504C268.991 60.3333 268.959 60.1147 268.959 59.848V53.336C269.076 53.3147 269.247 53.288 269.471 53.256C269.705 53.2133 269.94 53.192 270.174 53.192C270.409 53.192 270.617 53.208 270.799 53.24C270.991 53.272 271.151 53.336 271.279 53.432C271.407 53.528 271.503 53.6613 271.567 53.832C271.641 53.992 271.679 54.2053 271.679 54.472V60.984ZM281.01 59.592C280.957 60.0933 280.807 60.4773 280.562 60.744C280.327 61.0107 279.981 61.144 279.522 61.144C279.181 61.144 278.877 61.064 278.61 60.904C278.343 60.7333 278.055 60.4507 277.746 60.056L276.162 58.072V60.984C276.045 61.0053 275.869 61.032 275.634 61.064C275.41 61.1067 275.181 61.128 274.946 61.128C274.711 61.128 274.498 61.112 274.306 61.08C274.125 61.048 273.97 60.984 273.842 60.888C273.714 60.792 273.613 60.664 273.538 60.504C273.474 60.3333 273.442 60.1147 273.442 59.848V50.584C273.559 50.552 273.73 50.52 273.954 50.488C274.189 50.4453 274.423 50.424 274.658 50.424C274.893 50.424 275.101 50.44 275.282 50.472C275.474 50.504 275.634 50.568 275.762 50.664C275.89 50.76 275.986 50.8933 276.05 51.064C276.125 51.224 276.162 51.4373 276.162 51.704V55.928L278.914 53.112C279.469 53.112 279.911 53.2347 280.242 53.48C280.583 53.7253 280.754 54.0347 280.754 54.408C280.754 54.568 280.727 54.7173 280.674 54.856C280.621 54.984 280.535 55.1173 280.418 55.256C280.311 55.3947 280.167 55.544 279.986 55.704C279.815 55.8533 279.613 56.0293 279.378 56.232L278.45 57.032L281.01 59.592ZM286.038 61.256C285.408 61.256 284.822 61.1707 284.278 61C283.744 60.8187 283.275 60.552 282.87 60.2C282.475 59.848 282.16 59.4053 281.926 58.872C281.702 58.3387 281.59 57.7147 281.59 57C281.59 56.296 281.702 55.6933 281.926 55.192C282.16 54.68 282.464 54.264 282.838 53.944C283.211 53.6133 283.638 53.3733 284.118 53.224C284.598 53.064 285.088 52.984 285.59 52.984C286.155 52.984 286.667 53.0693 287.126 53.24C287.595 53.4107 287.995 53.6453 288.326 53.944C288.667 54.2427 288.928 54.6 289.11 55.016C289.302 55.432 289.398 55.8853 289.398 56.376C289.398 56.7387 289.296 57.016 289.094 57.208C288.891 57.4 288.608 57.5227 288.246 57.576L284.294 58.168C284.411 58.52 284.651 58.7867 285.014 58.968C285.376 59.1387 285.792 59.224 286.262 59.224C286.699 59.224 287.11 59.1707 287.494 59.064C287.888 58.9467 288.208 58.8133 288.454 58.664C288.624 58.7707 288.768 58.92 288.886 59.112C289.003 59.304 289.062 59.5067 289.062 59.72C289.062 60.2 288.838 60.5573 288.39 60.792C288.048 60.9733 287.664 61.096 287.238 61.16C286.811 61.224 286.411 61.256 286.038 61.256ZM285.59 54.968C285.334 54.968 285.11 55.0107 284.918 55.096C284.736 55.1813 284.587 55.2933 284.47 55.432C284.352 55.56 284.262 55.7093 284.198 55.88C284.144 56.04 284.112 56.2053 284.102 56.376L286.838 55.928C286.806 55.7147 286.688 55.5013 286.486 55.288C286.283 55.0747 285.984 54.968 285.59 54.968ZM293.475 60.984C293.358 61.0053 293.182 61.032 292.947 61.064C292.723 61.1067 292.494 61.128 292.259 61.128C292.024 61.128 291.811 61.112 291.619 61.08C291.438 61.048 291.283 60.984 291.155 60.888C291.027 60.792 290.926 60.664 290.851 60.504C290.787 60.3333 290.755 60.1147 290.755 59.848V50.568C290.872 50.5467 291.043 50.52 291.267 50.488C291.502 50.4453 291.736 50.424 291.971 50.424C292.206 50.424 292.414 50.44 292.595 50.472C292.787 50.504 292.947 50.568 293.075 50.664C293.203 50.76 293.299 50.8933 293.363 51.064C293.438 51.224 293.475 51.4373 293.475 51.704V60.984Z" fill="#1C4966"/>
</svg>
