<svg width="198" height="443" viewBox="0 0 198 443" fill="none" xmlns="http://www.w3.org/2000/svg">
<path d="M37.1737 63.0023C32.5938 57.8377 26.3069 56.0973 23.1318 59.1146C19.9568 62.1319 21.0962 68.7633 25.6784 73.9291C27.4814 76.0186 29.7417 77.6308 32.2701 78.6308L51.9422 100.26L61.5517 90.4883L41.1383 70.2036C40.3914 67.5099 39.0319 65.0405 37.1737 63.0023Z" fill="#FFB6B6"/>
<path d="M149.327 67.8155C149.327 67.8155 137.832 56.9327 124.076 66.4344C110.32 75.936 78.2858 100.24 78.2858 100.24L55.8396 71.4258L38.1518 88.0196C38.1518 88.0196 69.3517 144.9 89.5092 132.381C109.667 119.863 154.667 84.1261 152.624 76.7321C150.581 69.338 149.327 67.8156 149.327 67.8156V67.8155Z" fill="#233D8C"/>
<path d="M64.2081 333.279L82.5232 368.603L97.6079 349.708L80.2553 325.439L64.2081 333.279Z" fill="#FFB6B6"/>
<path d="M76.0521 363.721L83.8014 407.059C83.8014 407.059 89.0029 422.09 97.3636 406.823C105.724 391.556 120.863 359.969 112.16 354.18C103.456 348.391 92.9449 343.714 92.9449 343.714L76.0521 363.721H76.0521Z" fill="#2F2E41"/>
<path d="M53.3997 371.748L34.0765 407.748L58.2305 410.748L68.8582 381.748L53.3997 371.748Z" fill="#FFB6B6"/>
<path d="M155.812 45.748C155.812 45.748 157.745 65.748 160.643 67.748C163.542 69.748 126.812 67.748 126.812 67.748L137.455 45.748H155.812Z" fill="#FFB6B6"/>
<path d="M116.207 73.7638L129.726 62.748H162.781L184.797 81.748L170.788 149.248L177.551 182.248L91.5629 185.248L107.021 155.248C107.021 155.248 88.6644 135.248 94.4614 122.248C100.258 109.248 116.207 73.7638 116.207 73.7638V73.7638Z" fill="#233D8C"/>
<path d="M100.258 177.248L87.6983 184.248C87.6983 184.248 20.0672 250.248 25.8641 270.248C31.6611 290.248 70.3074 347.248 70.3074 347.248L88.6644 337.248L61.612 276.248L113.301 222.748L85.5545 273.373L46.1535 380.248L69.3413 390.248L129.243 265.248C129.243 265.248 178.517 230.248 181.416 208.248C184.314 186.248 177.551 182.248 177.551 182.248L100.258 177.248V177.248Z" fill="#2F2E41"/>
<path d="M34.5596 399.248L2.67634 430.248C2.67634 430.248 -6.98524 443.248 10.4056 442.248C27.7965 441.248 62.5782 437.248 62.5782 426.248C62.5782 415.248 60.6459 403.248 60.6459 403.248L34.5596 399.248Z" fill="#2F2E41"/>
<path d="M146.151 50.748C133.878 50.748 123.929 40.4506 123.929 27.748C123.929 15.0455 133.878 4.74805 146.151 4.74805C158.424 4.74805 168.373 15.0455 168.373 27.748C168.373 40.4506 158.424 50.748 146.151 50.748Z" fill="#FFB6B6"/>
<path d="M49.7515 119.521L68.0651 177.248C68.5532 178.787 69.8214 179.921 71.3629 180.199L106.386 186.503C109.527 187.068 112.122 183.975 111.141 180.836L92.8514 122.325C92.3578 120.745 91.0447 119.59 89.4593 119.34L54.412 113.82C51.2913 113.329 48.7667 116.417 49.7515 119.521V119.521Z" fill="white"/>
<path d="M107.129 187.569C108.62 187.569 110.036 186.91 111.039 185.714C112.244 184.277 112.626 182.338 112.06 180.528L93.7709 122.016C93.1604 120.064 91.564 118.66 89.6043 118.352L54.5575 112.832C52.7596 112.548 50.9811 113.238 49.8045 114.677C48.6289 116.115 48.2657 118.043 48.8337 119.833L67.1473 177.559C67.7478 179.453 69.2994 180.842 71.1968 181.184L106.221 187.488C106.525 187.543 106.829 187.569 107.129 187.569L107.129 187.569ZM53.7663 114.769C53.9319 114.769 54.0994 114.782 54.2669 114.808L89.3142 120.329C90.5459 120.522 91.5489 121.405 91.932 122.632L110.174 180.991C110.509 182.062 110.399 183.266 109.756 184.173C109.005 185.235 107.782 185.735 106.552 185.517L92.4975 182.988C78.402 180.451 66.8068 170.076 62.3434 156.007L50.7042 119.318C50.411 118.394 50.4475 117.364 50.9105 116.518C51.5196 115.404 52.6059 114.769 53.7663 114.769V114.769Z" fill="#3F3D56"/>
<path d="M103.214 164.493C96.4459 164.752 91.0889 168.577 91.2491 173.035C91.4093 177.493 97.0255 180.896 103.796 180.636C106.502 180.57 109.154 179.835 111.529 178.491L140.193 177.017L139.238 163.109L111.082 166.039C108.616 164.881 105.918 164.35 103.214 164.493V164.493Z" fill="#FFB6B6"/>
<path d="M179.483 79.248C179.483 79.248 164.025 81.248 162.092 98.248C160.16 115.248 157.262 156.248 157.262 156.248L121.514 155.248L122.248 179.945C122.248 179.945 184.314 192.248 188.179 168.248C192.043 144.248 194.942 85.6181 188.179 82.4331C181.416 79.2481 179.483 79.248 179.483 79.248V79.248Z" fill="#233D8C"/>
<path d="M56.3561 128.445L89.3019 131.319C90.1325 131.391 90.8652 130.751 90.9352 129.891C91.0052 129.031 90.3863 128.273 89.5557 128.201L56.61 125.327C55.7794 125.255 55.0469 125.895 54.9769 126.755C54.9069 127.615 55.5255 128.373 56.3561 128.445V128.445Z" fill="#3F3D56"/>
<path d="M59.2546 138.445L92.2004 141.319C93.0309 141.391 93.7637 140.751 93.8337 139.891C93.9037 139.031 93.2848 138.273 92.4542 138.201L59.5084 135.327C58.6778 135.255 57.9454 135.895 57.8754 136.755C57.8054 137.615 58.424 138.373 59.2546 138.445V138.445Z" fill="#3F3D56"/>
<path d="M62.1531 148.445L95.0988 151.319C95.9294 151.391 96.6622 150.751 96.7322 149.891C96.8022 149.031 96.1833 148.273 95.3527 148.201L62.4069 145.327C61.5763 145.255 60.8439 145.895 60.7739 146.755C60.7039 147.615 61.3225 148.373 62.1531 148.445V148.445Z" fill="#3F3D56"/>
<path d="M152.098 36.0176L136.552 17.5426L139.144 9.74984L130.798 17.958L126.491 16.7469C126.491 16.7469 126.528 0.925639 138.734 0.210929C150.939 -0.503781 159.695 0.826988 159.695 0.826988C159.695 0.826988 177.147 6.4876 177.829 10.8258C178.512 15.1641 188.289 20.9285 188.289 20.9285C188.289 20.9285 196.772 27.4599 192.806 38.4072C188.841 49.3545 179.792 63.019 186.056 69.6804C192.32 76.3418 201.171 81.469 196.858 84.0259C192.545 86.5827 184.766 74.595 177.681 79.388C170.596 84.1811 158.624 103.432 147.394 93.4896C136.164 83.5473 134.088 72.0321 134.088 72.0321L152.01 53.7002C152.01 53.7002 162.868 34.531 152.098 36.0176V36.0176Z" fill="#2F2E41"/>
</svg>
