<svg width="283" height="392" viewBox="0 0 283 392" fill="none" xmlns="http://www.w3.org/2000/svg">
<path d="M151.406 380.356L162.734 380.355L168.123 336.662H151.404L151.406 380.356Z" fill="#FFB6B6"/>
<path d="M148.517 376.657L151.705 376.657L164.154 371.595L170.826 376.656H170.826C174.597 376.657 178.213 378.154 180.879 380.821C183.545 383.487 185.043 387.103 185.043 390.873V391.335L148.517 391.336L148.517 376.657Z" fill="#2F2E41"/>
<path d="M49.051 365.628L59.19 370.681L83.504 333.98L68.541 326.522L49.051 365.628Z" fill="#FFB6B6"/>
<path d="M48.115 361.029L50.9687 362.452L64.3681 363.474L68.0814 370.98L68.0822 370.981C71.4566 372.663 74.0247 375.617 75.2215 379.192C76.4183 382.767 76.1459 386.672 74.4641 390.047L74.258 390.46L41.5673 374.167L48.115 361.029Z" fill="#2F2E41"/>
<path d="M156.425 181.916L84.3992 183.795L85.6519 218.869C85.6519 218.869 84.3992 228.263 86.9045 230.768C89.4097 233.274 90.6624 233.274 89.4097 237.658C88.1571 242.042 84.9187 283.932 84.9187 283.932C84.9187 283.932 55.3572 336.201 56.6099 337.454C57.8625 338.707 59.1151 337.454 57.8625 340.586C56.6099 343.717 55.3572 342.465 56.6099 343.717C57.7194 344.914 58.7648 346.168 59.7414 347.475H80.157C80.157 347.475 81.2986 341.212 81.2986 340.586C81.2986 339.959 82.5513 336.201 82.5513 335.575C82.5513 334.949 118.22 297.158 118.22 297.158L125.736 234.526L143.899 295.905C143.899 295.905 143.899 349.768 145.152 351.021C146.404 352.273 146.404 351.647 145.778 354.152C145.152 356.657 142.646 356.031 144.525 357.91C146.404 359.789 147.031 356.657 146.404 359.789L145.778 362.92L169.84 363.189C169.84 363.189 172.346 357.91 171.093 356.031C169.84 354.152 169.916 354.665 171.444 351.59C172.972 348.515 173.598 347.889 172.972 347.263C172.346 346.636 172.346 343.305 172.346 343.305C172.346 343.305 163.315 220.121 163.315 218.242C163.267 217.275 163.446 216.311 163.835 215.425V212.874L161.436 203.837L156.425 181.916Z" fill="#2F2E41"/>
<path d="M282.67 390.605C282.671 390.761 282.64 390.916 282.58 391.061C282.521 391.205 282.433 391.336 282.323 391.447C282.212 391.558 282.081 391.645 281.936 391.705C281.791 391.765 281.636 391.795 281.48 391.795H1.19C0.874395 391.795 0.57171 391.669 0.348541 391.446C0.125373 391.223 0 390.92 0 390.605C0 390.289 0.125373 389.986 0.348541 389.763C0.57171 389.54 0.874395 389.415 1.19 389.415H281.48C281.636 389.414 281.791 389.445 281.936 389.504C282.081 389.564 282.212 389.651 282.323 389.762C282.433 389.873 282.521 390.004 282.58 390.149C282.64 390.293 282.671 390.448 282.67 390.605V390.605Z" fill="#CCCCCC"/>
<path d="M220.555 6.39553C221.418 8.80932 221.298 11.4657 220.221 13.7919C219.144 16.1181 217.195 17.9278 214.796 18.8307C214.265 19.0289 213.718 19.1798 213.161 19.2815L207.615 53.2409L194.604 41.2283L201.866 10.8216C201.597 8.25931 202.347 5.69423 203.955 3.68084C205.562 1.66746 207.897 0.367552 210.455 0.0621294C212.608 -0.184577 214.78 0.307978 216.615 1.45889C218.45 2.6098 219.84 4.35063 220.555 6.39547L220.555 6.39553Z" fill="#FFB6B6"/>
<path d="M124.54 83.3438C124.54 83.3438 134.638 70.0023 171.279 70.3677L192.077 62.8113L196.83 19.2412L213.466 23.2021L211.089 77.0706L175.441 97.6674L128.702 107.174L124.54 83.3438Z" fill="#3F3D56"/>
<path d="M119.175 55.5497C131.186 55.5497 140.923 45.813 140.923 33.8022C140.923 21.7914 131.186 12.0547 119.175 12.0547C107.165 12.0547 97.4279 21.7914 97.4279 33.8022C97.4279 45.813 107.165 55.5497 119.175 55.5497Z" fill="#FFB6B6"/>
<path d="M82.3673 198.697C82.3287 198.697 82.2903 198.692 82.2532 198.682C81.8517 198.569 81.5345 198.481 82.9835 185.952L84.5474 176.049L83.0206 167.304L80.4526 164.736L84.5799 160.609L88.0433 150.771L82.0505 141.891L75.175 105.574C73.993 99.3078 74.9115 92.8264 77.7882 87.135C80.6648 81.4436 85.3389 76.8604 91.0856 74.0959L99.0433 71.7709L101.939 66.461C102.752 64.9699 103.949 63.7235 105.406 62.851C106.863 61.9785 108.527 61.5117 110.225 61.499L124.798 61.3899C126.268 61.3789 127.721 61.7086 129.043 62.3532C130.364 62.9977 131.518 63.9396 132.415 65.105L137.499 71.714L158.581 78.8758L155.086 154.197C155.641 154.662 156.094 155.237 156.416 155.885C156.737 156.534 156.921 157.243 156.954 157.966C156.988 158.689 156.871 159.412 156.612 160.087C156.352 160.763 155.955 161.378 155.445 161.892C155.226 162.113 155.052 162.294 154.944 162.412C154.589 162.917 155.256 166.687 156.079 169.888L157.135 174.789C156.796 175.031 156.511 175.341 156.298 175.699C156.085 176.057 155.949 176.455 155.897 176.868C155.846 177.282 155.88 177.701 155.999 178.1C156.118 178.5 156.318 178.87 156.587 179.188L157.934 180.778C158.2 182.772 157.664 184.791 156.445 186.391C155.225 187.991 153.42 189.042 151.426 189.313C132.159 191.935 82.468 198.697 82.3673 198.697Z" fill="#3F3D56"/>
<path d="M113.612 54.4844C113.519 54.2799 113.426 54.0746 113.334 53.8687C113.37 53.8698 113.405 53.8749 113.44 53.8759L113.612 54.4844Z" fill="#2F2E41"/>
<path d="M96.8231 13.0437C97.8557 12.0695 99.1978 11.4892 100.615 11.4043C102.021 11.4496 103.447 12.7198 103.156 14.0963C105.739 9.5228 109.85 6.00522 114.769 4.16104C119.687 2.31685 125.097 2.26391 130.051 4.0115C133.546 5.24463 136.973 7.71165 137.776 11.33C137.855 12.2799 138.138 13.2016 138.607 14.0315C139.013 14.4752 139.54 14.7903 140.123 14.938C140.707 15.0858 141.32 15.0597 141.889 14.8631L141.923 14.8529C142.118 14.7864 142.328 14.7799 142.527 14.8342C142.725 14.8884 142.902 15.0009 143.036 15.1571C143.17 15.3134 143.254 15.5061 143.277 15.7105C143.3 15.9148 143.261 16.1214 143.165 16.3034L142.176 18.1478C143.423 18.4257 144.718 18.3982 145.952 18.0675C146.157 18.0138 146.373 18.0248 146.572 18.099C146.77 18.1732 146.941 18.3069 147.06 18.4819C147.18 18.6569 147.242 18.8646 147.239 19.0764C147.235 19.2883 147.167 19.4939 147.042 19.6652C145.398 21.9138 143.253 23.7476 140.776 25.0209C138.299 26.2942 135.558 26.9717 132.773 26.9995C128.822 26.9754 124.83 25.6135 120.984 26.5222C119.497 26.8737 118.106 27.5539 116.916 28.5128C115.725 29.4716 114.764 30.6849 114.104 32.0635C113.443 33.4421 113.1 34.9511 113.099 36.4798C113.097 38.0085 113.438 39.518 114.097 40.8978C112.915 39.6056 110.631 39.9115 109.423 41.1785C108.866 41.8567 108.455 42.6419 108.214 43.4856C107.974 44.3292 107.909 45.2133 108.023 46.0831C108.346 48.7471 109.137 51.3331 110.36 53.7217C105.687 53.5779 101.171 52.0035 97.4217 49.2111C93.6724 46.4187 90.8705 42.5429 89.3944 38.1071C87.9183 33.6714 87.8391 28.8895 89.1676 24.4073C90.4961 19.9251 93.1683 15.9587 96.8231 13.0438L96.8231 13.0437Z" fill="#2F2E41"/>
<path d="M90.8396 229.887C88.7604 228.388 87.3538 226.131 86.9231 223.604C86.4924 221.077 87.0721 218.482 88.5373 216.378C88.8623 215.914 89.2277 215.48 89.6293 215.08L74.9541 183.957L92.4809 186.482L103.73 215.649C105.403 217.608 106.239 220.147 106.055 222.717C105.872 225.286 104.685 227.681 102.75 229.382C101.116 230.805 99.0477 231.63 96.8833 231.722C94.719 231.814 92.5877 231.167 90.8397 229.887H90.8396Z" fill="#FFB6B6"/>
<path d="M86.3954 212.894L63.0433 160.41L62.8094 118.958L70.1705 96.568C71.1692 93.5303 72.7667 90.7235 74.8686 88.3137C76.9705 85.9039 79.5342 83.9399 82.4081 82.5378C85.282 81.1357 88.4078 80.3239 91.6008 80.1505C94.7937 79.977 97.9891 80.4454 100.998 81.5279L101.16 81.5863L101.228 81.7448C101.5 82.3798 107.674 97.6511 89.3609 129.067L85.6754 150.563L98.6075 199.837L86.3954 212.894Z" fill="#3F3D56"/>
</svg>
