<svg width="1039" height="672" viewBox="0 0 1039 672" fill="none" xmlns="http://www.w3.org/2000/svg">
<path d="M868.129 156.081H139.674C132.907 156.089 126.42 158.877 121.636 163.833C116.851 168.789 114.16 175.509 114.151 182.518V580.562C114.146 587.297 116.634 593.777 121.103 598.669C121.553 599.17 122.025 599.648 122.509 600.09C127.191 604.542 133.318 607.009 139.674 607H868.129C874.896 606.992 881.382 604.203 886.167 599.247C890.951 594.291 893.643 587.571 893.651 580.562C911.45 448.521 911.45 314.559 893.651 182.518C893.643 175.509 890.951 168.789 886.167 163.833C881.382 158.877 874.896 156.089 868.129 156.081Z" fill="#F2F2F2"/>
<path d="M834.385 114.135H105.929C99.1626 114.143 92.6757 116.931 87.8911 121.887C83.1066 126.844 80.415 133.563 80.4069 140.572V538.617C80.4014 545.351 82.8894 551.832 87.3582 556.723C87.8082 557.224 88.2806 557.702 88.7643 558.145C93.4467 562.597 99.5733 565.063 105.929 565.054H834.385C841.151 565.046 847.638 562.258 852.422 557.301C857.207 552.345 859.899 545.626 859.907 538.617V140.572C859.899 133.563 857.207 126.844 852.422 121.887C847.638 116.931 841.151 114.143 834.385 114.135Z" fill="white"/>
<path d="M534.878 379.396C534.356 379.421 533.838 379.279 533.396 378.989C532.954 378.699 532.608 378.275 532.406 377.775C532.204 377.275 532.156 376.722 532.267 376.193C532.378 375.663 532.644 375.181 533.028 374.813L533.203 374.093C533.18 374.035 533.157 373.978 533.134 373.92C532.607 372.631 531.725 371.533 530.597 370.762C529.469 369.991 528.147 369.583 526.796 369.588C525.445 369.593 524.126 370.012 523.004 370.791C521.881 371.57 521.007 372.676 520.489 373.969C518.421 379.128 515.788 384.297 515.14 389.752C514.854 392.163 514.975 394.608 515.496 396.977C510.639 386.001 508.116 374.071 508.1 361.997C508.099 358.968 508.262 355.94 508.587 352.929C508.856 350.46 509.229 348.01 509.706 345.576C512.309 332.374 517.899 319.999 526.016 309.468C529.944 307.248 533.121 303.833 535.119 299.685C535.842 298.194 536.354 296.602 536.637 294.959C536.194 295.019 534.966 288.028 535.3 287.599C534.683 286.628 533.578 286.145 532.903 285.198C529.548 280.487 524.927 281.309 522.514 287.712C517.36 290.406 517.31 294.875 520.472 299.173C522.484 301.908 522.761 305.608 524.526 308.535C524.345 308.776 524.156 309.009 523.974 309.25C520.654 313.672 517.76 318.421 515.334 323.428C515.924 317.819 515.22 312.145 513.28 306.872C511.314 301.958 507.628 297.82 504.382 293.572C503.524 292.43 502.358 291.578 501.032 291.124C499.706 290.669 498.28 290.631 496.934 291.015C495.587 291.4 494.381 292.189 493.468 293.284C492.555 294.378 491.975 295.729 491.802 297.164C491.796 297.227 491.789 297.289 491.783 297.352C492.265 297.634 492.737 297.933 493.198 298.249C493.779 298.651 494.228 299.224 494.488 299.895C494.748 300.565 494.806 301.302 494.655 302.007C494.505 302.713 494.151 303.354 493.642 303.849C493.133 304.343 492.492 304.666 491.803 304.776L491.732 304.787C491.904 306.587 492.207 308.371 492.64 310.123C488.476 326.803 497.466 332.879 510.301 333.152C510.585 333.302 510.861 333.452 511.144 333.596C508.707 340.75 507.178 348.203 506.596 355.766C506.267 360.228 506.286 364.71 506.654 369.169L506.633 369.011C505.703 364.053 503.149 359.579 499.404 356.346C493.841 351.612 485.982 349.869 479.98 346.064C479.342 345.64 478.601 345.413 477.843 345.411C477.085 345.409 476.342 345.632 475.702 346.053C475.063 346.474 474.552 347.076 474.232 347.787C473.911 348.499 473.794 349.29 473.893 350.069L473.918 350.235C474.813 350.612 475.684 351.047 476.526 351.537C477.008 351.818 477.48 352.117 477.942 352.434C478.522 352.835 478.971 353.409 479.231 354.079C479.491 354.75 479.55 355.486 479.399 356.192C479.248 356.897 478.895 357.539 478.386 358.033C477.877 358.527 477.235 358.851 476.546 358.961L476.475 358.972C476.424 358.979 476.381 358.987 476.33 358.995C477.859 362.775 480.004 366.255 482.672 369.282C485.276 383.843 496.458 385.225 508.42 380.985H508.427C509.739 386.892 511.641 392.643 514.101 398.143H534.37C534.443 397.91 534.509 397.669 534.574 397.436C532.698 397.558 530.814 397.442 528.965 397.09C530.469 395.178 531.973 393.251 533.477 391.34C533.511 391.304 533.542 391.266 533.571 391.227C534.334 390.249 535.104 389.278 535.867 388.3L535.868 388.298C535.908 385.299 535.576 382.308 534.879 379.397L534.878 379.396Z" fill="#F2F2F2"/>
<path d="M859.907 415.913V458.22C859.899 465.229 857.207 471.948 852.422 476.905C847.638 481.861 841.151 484.649 834.385 484.657H105.929C99.5733 484.666 93.4467 482.2 88.7643 477.748C88.2806 477.305 87.8082 476.827 87.3582 476.326C82.8894 471.435 80.4014 464.954 80.4069 458.22V415.913C302.166 377.976 574.889 390.819 859.907 415.913Z" fill="#3F3D56"/>
<path d="M859.907 462.52V504.827C859.899 511.836 857.207 518.555 852.422 523.512C847.638 528.468 841.151 531.256 834.385 531.264H105.929C99.5733 531.273 93.4467 528.807 88.7643 524.355C88.2806 523.912 87.8082 523.434 87.3582 522.933C82.8894 518.042 80.4014 511.561 80.4069 504.827V462.52C284.528 434.225 562.299 443.335 859.907 462.52Z" fill="white"/>
<path d="M859.907 496.309V538.616C859.899 545.625 857.207 552.345 852.422 557.301C847.638 562.257 841.151 565.045 834.385 565.054H105.929C99.5733 565.063 93.4467 562.596 88.7643 558.144C88.2806 557.702 87.8082 557.224 87.3582 556.723C82.8894 551.831 80.4014 545.351 80.4069 538.616V496.309C301.266 472.55 570.349 478.189 859.907 496.309Z" fill="#3F3D56"/>
<path d="M799.211 373.57C798.688 373.595 798.171 373.453 797.728 373.163C797.286 372.873 796.941 372.449 796.739 371.949C796.537 371.449 796.488 370.896 796.6 370.366C796.711 369.837 796.977 369.355 797.361 368.987L797.536 368.267C797.513 368.209 797.49 368.151 797.466 368.094C796.94 366.805 796.057 365.706 794.93 364.936C793.802 364.165 792.48 363.756 791.129 363.762C789.778 363.767 788.458 364.185 787.336 364.965C786.214 365.744 785.339 366.85 784.822 368.143C782.754 373.302 780.121 378.47 779.473 383.926C779.187 386.337 779.307 388.782 779.828 391.15C774.971 380.175 772.449 368.245 772.433 356.171C772.432 353.141 772.594 350.114 772.919 347.103C773.188 344.634 773.561 342.183 774.038 339.75C776.642 326.547 782.231 314.173 790.348 303.642C794.277 301.422 797.454 298.007 799.451 293.859C800.175 292.368 800.686 290.776 800.97 289.133C800.527 289.193 799.299 282.201 799.633 281.772C799.015 280.802 797.91 280.319 797.236 279.372C793.881 274.661 789.259 275.483 786.847 281.885C781.692 284.58 781.642 289.049 784.805 293.347C786.817 296.081 787.093 299.781 788.859 302.709C788.677 302.95 788.488 303.183 788.307 303.424C784.987 307.846 782.093 312.595 779.667 317.602C780.257 311.993 779.553 306.318 777.613 301.046C775.646 296.132 771.961 291.993 768.715 287.745C767.856 286.604 766.691 285.752 765.365 285.297C764.039 284.842 762.613 284.805 761.266 285.189C759.92 285.574 758.714 286.363 757.801 287.458C756.887 288.552 756.307 289.902 756.135 291.338C756.128 291.401 756.122 291.463 756.115 291.526C756.597 291.807 757.069 292.107 757.531 292.423C758.111 292.824 758.561 293.398 758.821 294.069C759.081 294.739 759.139 295.475 758.988 296.181C758.837 296.886 758.484 297.528 757.975 298.022C757.466 298.516 756.825 298.84 756.135 298.95L756.064 298.961C756.236 300.761 756.54 302.545 756.973 304.297C752.809 320.977 761.798 327.052 774.634 327.325C774.917 327.476 775.193 327.626 775.477 327.769C773.039 334.924 771.511 342.377 770.929 349.94C770.599 354.402 770.619 358.884 770.987 363.343L770.965 363.185C770.035 358.227 767.482 353.753 763.736 350.519C758.173 345.786 750.314 344.043 744.313 340.238C743.675 339.813 742.933 339.587 742.175 339.585C741.417 339.583 740.675 339.806 740.035 340.227C739.395 340.648 738.885 341.249 738.564 341.961C738.244 342.672 738.126 343.464 738.226 344.242L738.251 344.409C739.145 344.786 740.016 345.221 740.859 345.71C741.341 345.992 741.813 346.291 742.274 346.608C742.855 347.009 743.304 347.583 743.564 348.253C743.824 348.924 743.882 349.66 743.731 350.366C743.58 351.071 743.227 351.713 742.718 352.207C742.209 352.701 741.568 353.024 740.878 353.135L740.808 353.146C740.757 353.153 740.713 353.161 740.663 353.168C742.191 356.949 744.337 360.429 747.005 363.456C749.608 378.017 760.791 379.399 772.752 375.158H772.76C774.072 381.066 775.974 386.816 778.434 392.317H798.703C798.776 392.084 798.841 391.843 798.907 391.609C797.03 391.732 795.147 391.615 793.298 391.263C794.802 389.352 796.306 387.425 797.81 385.514C797.843 385.478 797.875 385.44 797.904 385.401C798.667 384.423 799.437 383.452 800.2 382.473L800.2 382.472C800.241 379.473 799.909 376.481 799.212 373.57L799.211 373.57Z" fill="#F2F2F2"/>
<path d="M786.269 421.768C786.269 422.149 786.263 422.529 786.258 422.904H712.12C710.424 422.905 708.746 422.545 707.19 421.847C705.633 421.149 704.232 420.127 703.073 418.845C703.1 418.311 703.144 417.784 703.199 417.256C705.38 395.555 732.645 362.843 744.621 378.627C756.598 394.412 786.269 397.944 786.269 421.768Z" fill="#3F3D56"/>
<path d="M825.724 422.113C825.728 422.378 825.72 422.643 825.716 422.904H774.042C772.86 422.905 771.69 422.654 770.605 422.167C769.52 421.681 768.544 420.968 767.736 420.075C767.755 419.703 767.785 419.335 767.823 418.967C769.344 403.841 792.392 377.15 796.695 392.043C807.663 430.001 825.499 407.191 825.724 422.113Z" fill="#3F3D56"/>
<path d="M834.385 114.135H105.929C99.1626 114.143 92.6757 116.931 87.8911 121.887C83.1066 126.844 80.415 133.563 80.4069 140.572V538.617C80.4014 545.351 82.8894 551.832 87.3582 556.723C87.8082 557.224 88.2806 557.702 88.7643 558.145C93.4467 562.597 99.5733 565.063 105.929 565.054H834.385C841.151 565.046 847.638 562.258 852.422 557.301C857.207 552.345 859.898 545.626 859.907 538.617C894.901 436.273 882.595 292.924 859.907 140.572C859.898 133.563 857.207 126.844 852.422 121.887C847.638 116.931 841.151 114.143 834.385 114.135ZM857.657 410.647C857.657 450.98 842.19 489.661 814.657 518.181C787.125 546.701 749.783 562.724 710.846 562.724H105.929C100.457 562.734 95.1596 560.731 90.9802 557.073C89.7446 555.989 88.6178 554.779 87.617 553.461C84.3949 549.234 82.6468 544.003 82.6565 538.617V140.572C82.6565 134.179 85.1084 128.047 89.4728 123.526C93.8373 119.005 99.7568 116.465 105.929 116.465H640.908C760.615 116.465 857.657 216.988 857.657 340.989V410.647Z" fill="#3F3D56"/>
<path d="M244.81 510.226C244.816 510.638 244.805 511.05 244.799 511.456H164.45C162.612 511.458 160.793 511.068 159.107 510.311C157.42 509.555 155.901 508.447 154.645 507.057C154.675 506.479 154.722 505.907 154.782 505.335C157.145 481.816 180.552 477.323 199.674 463.471C221.194 447.881 244.419 482.617 244.81 510.226Z" fill="#3F3D56"/>
<path d="M262.627 500.14C262.456 500.366 262.623 500.715 262.619 500.998H206.616C205.334 500.999 204.067 500.727 202.891 500.2C201.716 499.672 200.657 498.9 199.781 497.932C199.802 497.529 199.835 497.13 199.876 496.731C201.524 480.338 214.909 468.037 231.167 467.551C261.475 466.646 277.06 481.133 262.627 500.14Z" fill="#3F3D56"/>
<path d="M270.682 407.691C270.682 408.104 270.676 408.516 270.67 408.922H190.321C188.483 408.923 186.664 408.534 184.978 407.777C183.291 407.02 181.772 405.913 180.516 404.523C180.545 403.945 180.593 403.373 180.652 402.8C183.016 379.281 208.535 371.736 225.545 360.936C242.555 350.136 270.682 381.871 270.682 407.691Z" fill="#3F3D56"/>
<path d="M288.498 397.606C288.47 397.891 288.468 398.178 288.49 398.463H232.486C231.205 398.464 229.938 398.193 228.762 397.665C227.586 397.138 226.528 396.366 225.652 395.397C225.673 394.994 225.706 394.596 225.747 394.197C227.395 377.804 241.657 370.494 257.038 365.017C282.441 355.972 292.943 374.603 288.498 397.606Z" fill="#3F3D56"/>
<path d="M326.742 413.89C326.757 414.176 326.754 414.462 326.734 414.748H270.73C269.449 414.749 268.182 414.477 267.006 413.95C265.83 413.422 264.772 412.65 263.896 411.682C263.917 411.278 263.95 410.88 263.991 410.481C265.639 394.088 283.93 393.366 295.282 381.301C305.799 370.123 324.447 392.153 326.742 413.89Z" fill="#3F3D56"/>
<path d="M655.19 279.588H632.693V565.054H655.19V279.588Z" fill="#3F3D56"/>
<path d="M803.756 151.7C802.923 134.851 797.389 117.933 786.512 105.384C781.766 99.9079 761.699 87.0678 755.299 83.8403C757.728 64.0441 770.799 52.6254 761.238 35.6956C749.101 14.2216 723.781 1.62612 700.014 5.24979C691.508 6.59178 683.386 9.83617 676.212 14.7575C668.001 7.32377 656.764 2.75633 645.82 1.02023C611.344 -4.45605 574.484 12.4971 555.294 42.6633C552.393 47.2231 552.197 54.0466 553.708 62.1808C559.536 93.5318 542.837 124.088 514.111 135.659C513.559 135.87 513.057 136.202 512.641 136.634C496.061 154.403 490.617 182.437 499.29 205.472C501.341 210.925 501.951 220.405 507.576 220.661C543.903 222.319 546.686 242.858 526.087 273.397C521.774 279.79 528.04 288.822 531.943 295.621C540.919 311.269 559.04 319.309 576.587 320.381C594.056 321.453 611.31 316.664 628.194 311.898L650.69 310.966C670.048 314.427 690.295 313.879 708.641 306.702C728.427 298.953 745.681 282.804 752.228 261.971C754.466 254.852 792.991 263.777 792.418 256.285C802.001 251.217 773.026 227.867 780.281 219.617C796.448 201.072 804.886 176.66 803.756 151.7Z" fill="#233D8C"/>
<path opacity="0.1" d="M717.631 273.352C712.452 289.833 700.561 303.362 686.028 312.14C693.372 311.209 700.585 309.384 707.516 306.702C724.372 300.101 739.366 287.388 747.492 270.89C736.075 270.901 719.095 268.696 717.631 273.352Z" fill="black"/>
<path opacity="0.1" d="M780.281 219.617C796.448 201.072 804.886 176.66 803.756 151.699C802.923 134.851 797.389 117.933 786.512 105.384C781.766 99.9078 761.699 87.0677 755.299 83.8402C757.728 64.044 770.799 52.6254 761.238 35.6955C749.101 14.2215 723.781 1.62608 700.014 5.24974C691.508 6.59173 683.386 9.83612 676.212 14.7575C668.001 7.32373 656.764 2.75628 645.82 1.02018C625.924 -2.14021 605.24 2.18208 587.61 12.1906C595.824 11.0532 604.153 11.1239 612.348 12.4009C623.292 14.137 634.529 18.7045 642.74 26.1382C649.917 21.2678 670.716 8.83477 666.541 16.6305C648.7 49.9513 669.787 66.3048 727.765 47.0763C736.998 44.0144 724.654 60.0687 710.081 79.1246C696.609 96.7399 711.518 122.177 732.833 117.989C743.243 115.943 751.44 114.919 753.04 116.765C763.917 129.314 803.266 149.107 770.284 163.08C737.301 177.053 762.871 212.751 746.809 230.998C741.712 236.793 754.484 250.035 759.218 259.161C770.894 258.225 792.852 261.956 792.418 256.285C802.001 251.216 773.026 227.866 780.281 219.617Z" fill="black"/>
<path d="M541.57 351.601H633.167C633.466 351.601 633.752 351.478 633.963 351.26C634.174 351.041 634.292 350.745 634.292 350.436C634.292 350.127 634.174 349.83 633.963 349.612C633.752 349.393 633.466 349.271 633.167 349.271H541.57C541.271 349.271 540.985 349.393 540.774 349.612C540.563 349.83 540.445 350.127 540.445 350.436C540.445 350.745 540.563 351.041 540.774 351.26C540.985 351.478 541.271 351.601 541.57 351.601Z" fill="#3F3D56"/>
<path d="M665.583 444.263C647.011 418.675 636.277 390.061 635.925 357.438C635.327 355.68 635.426 353.748 636.201 352.065C636.976 350.383 638.364 349.088 640.06 348.464L703.362 325.263C705.059 324.643 706.924 324.746 708.548 325.549C710.172 326.352 711.423 327.789 712.025 329.546L741.682 416.372C742.281 418.13 742.181 420.062 741.406 421.744C740.631 423.426 739.243 424.721 737.548 425.345L674.246 448.547C672.548 449.166 670.683 449.064 669.059 448.261C667.435 447.458 666.185 446.02 665.583 444.263Z" fill="#E6E6E6"/>
<path d="M661.48 416.259C650.311 404.56 645.53 383.695 642.414 360.439C641.854 358.793 641.947 356.983 642.672 355.408C643.398 353.832 644.698 352.619 646.286 352.035L700.689 332.095C702.279 331.515 704.025 331.611 705.546 332.363C707.067 333.115 708.238 334.461 708.802 336.106L735.194 413.369C735.754 415.016 735.661 416.826 734.935 418.401C734.209 419.977 732.909 421.19 731.321 421.774L697.62 434.126C690.54 436.712 682.758 436.283 675.983 432.933C669.208 429.583 663.993 423.587 661.48 416.259Z" fill="white"/>
<path d="M709.531 377.728L667.153 393.398C666.819 393.522 666.464 393.576 666.11 393.558C665.755 393.54 665.408 393.45 665.087 393.293C664.767 393.136 664.479 392.915 664.241 392.642C664.003 392.37 663.819 392.051 663.7 391.705C663.58 391.359 663.528 390.992 663.546 390.625C663.564 390.258 663.651 389.898 663.803 389.566C663.955 389.234 664.169 388.936 664.432 388.69C664.695 388.444 665.003 388.253 665.337 388.13L707.715 372.461C708.39 372.212 709.131 372.251 709.778 372.569C710.424 372.887 710.923 373.457 711.163 374.155C711.404 374.853 711.367 375.622 711.061 376.292C710.755 376.962 710.204 377.479 709.531 377.728Z" fill="#6C63FF"/>
<path d="M671.498 375.506L662.175 378.954C661.841 379.077 661.487 379.131 661.133 379.113C660.779 379.095 660.432 379.004 660.111 378.847C659.791 378.69 659.504 378.468 659.266 378.196C659.028 377.924 658.844 377.606 658.725 377.26C658.606 376.914 658.553 376.547 658.571 376.18C658.589 375.813 658.676 375.454 658.828 375.122C658.98 374.79 659.193 374.492 659.456 374.246C659.719 374 660.026 373.809 660.36 373.686L669.683 370.238C670.017 370.115 670.371 370.06 670.726 370.078C671.08 370.096 671.427 370.186 671.748 370.344C672.069 370.501 672.356 370.722 672.595 370.994C672.833 371.267 673.017 371.585 673.136 371.931C673.255 372.277 673.307 372.644 673.29 373.011C673.272 373.378 673.184 373.738 673.032 374.07C672.88 374.402 672.666 374.7 672.403 374.946C672.14 375.193 671.832 375.383 671.498 375.506Z" fill="#6C63FF"/>
<path d="M717.511 400.887L675.133 416.557C674.799 416.681 674.444 416.735 674.09 416.717C673.736 416.699 673.388 416.609 673.068 416.452C672.747 416.294 672.459 416.073 672.221 415.801C671.983 415.528 671.799 415.21 671.68 414.864C671.561 414.518 671.508 414.151 671.526 413.784C671.544 413.417 671.631 413.057 671.783 412.725C671.935 412.393 672.149 412.095 672.412 411.849C672.676 411.602 672.983 411.412 673.317 411.289L715.696 395.619C716.37 395.37 717.112 395.408 717.76 395.726C718.407 396.044 718.905 396.615 719.146 397.313C719.387 398.012 719.35 398.781 719.043 399.451C718.736 400.121 718.185 400.638 717.511 400.887Z" fill="#6C63FF"/>
<path d="M713.521 389.308L671.143 404.978C670.809 405.101 670.454 405.156 670.1 405.138C669.746 405.12 669.398 405.03 669.078 404.872C668.757 404.715 668.469 404.494 668.231 404.222C667.993 403.949 667.809 403.631 667.69 403.285C667.57 402.939 667.518 402.572 667.536 402.204C667.554 401.837 667.641 401.478 667.793 401.146C667.945 400.814 668.159 400.516 668.422 400.269C668.686 400.023 668.993 399.833 669.327 399.71L711.706 384.04C712.38 383.792 713.122 383.831 713.768 384.148C714.415 384.466 714.913 385.037 715.153 385.735C715.394 386.433 715.357 387.201 715.051 387.871C714.745 388.541 714.195 389.058 713.521 389.308Z" fill="#233D8C"/>
<path d="M639.524 366.748C645.736 366.748 650.772 361.532 650.772 355.096C650.772 348.661 645.736 343.445 639.524 343.445C633.312 343.445 628.276 348.661 628.276 355.096C628.276 361.532 633.312 366.748 639.524 366.748Z" fill="#233D8C"/>
<path d="M360.078 207.957H240.986C240.304 207.957 239.651 207.677 239.17 207.178C238.688 206.679 238.417 206.003 238.417 205.297C238.417 204.591 238.688 203.915 239.17 203.416C239.651 202.917 240.304 202.637 240.986 202.637H360.078C360.759 202.637 361.412 202.917 361.894 203.416C362.375 203.915 362.646 204.591 362.646 205.297C362.646 206.003 362.375 206.679 361.894 207.178C361.412 207.677 360.759 207.957 360.078 207.957Z" fill="#6C63FF"/>
<path d="M420.364 232.279H240.986C240.648 232.28 240.313 232.212 240.001 232.078C239.689 231.945 239.405 231.749 239.166 231.502C238.927 231.255 238.737 230.961 238.608 230.638C238.479 230.315 238.412 229.969 238.412 229.619C238.412 229.269 238.479 228.923 238.608 228.6C238.737 228.276 238.927 227.983 239.166 227.736C239.405 227.489 239.689 227.293 240.001 227.159C240.313 227.026 240.648 226.958 240.986 226.959H420.364C421.045 226.96 421.696 227.241 422.177 227.74C422.657 228.238 422.927 228.914 422.927 229.619C422.927 230.323 422.657 230.999 422.177 231.498C421.696 231.997 421.045 232.278 420.364 232.279Z" fill="#F2F2F2"/>
<path d="M420.368 251.276H240.982C240.3 251.276 239.646 251.557 239.164 252.056C238.682 252.555 238.411 253.233 238.411 253.939C238.411 254.645 238.682 255.322 239.164 255.821C239.646 256.321 240.3 256.601 240.982 256.601H420.368C421.049 256.601 421.703 256.321 422.185 255.821C422.667 255.322 422.938 254.645 422.938 253.939C422.938 253.233 422.667 252.555 422.185 252.056C421.703 251.557 421.049 251.276 420.368 251.276Z" fill="#F2F2F2"/>
<path d="M420.364 280.923H240.986C240.648 280.924 240.313 280.856 240.001 280.722C239.689 280.589 239.405 280.393 239.166 280.146C238.927 279.899 238.737 279.605 238.608 279.282C238.479 278.959 238.412 278.613 238.412 278.263C238.412 277.913 238.479 277.567 238.608 277.244C238.737 276.92 238.927 276.627 239.166 276.38C239.405 276.133 239.689 275.937 240.001 275.803C240.313 275.67 240.648 275.602 240.986 275.603H420.364C421.045 275.604 421.696 275.885 422.177 276.384C422.657 276.882 422.927 277.558 422.927 278.263C422.927 278.967 422.657 279.643 422.177 280.142C421.696 280.641 421.045 280.922 420.364 280.923Z" fill="#F2F2F2"/>
<path d="M97.4003 270.764L101.22 239.727L90.8244 238.989L88.4927 271.534C88.0974 272.35 87.9276 273.255 88.0006 274.156C88.0737 275.058 88.3869 275.925 88.9086 276.668C89.4302 277.411 90.1417 278.005 90.9709 278.39C91.8001 278.774 92.7175 278.935 93.6299 278.856C94.5424 278.777 95.4175 278.461 96.1664 277.94C96.9154 277.42 97.5115 276.713 97.8944 275.891C98.2772 275.069 98.4332 274.162 98.3464 273.262C98.2596 272.361 97.9332 271.499 97.4002 270.764L97.4003 270.764Z" fill="#A0616A"/>
<path d="M110.749 196.143C108.816 195.882 106.85 196.268 105.165 197.239C103.48 198.211 102.173 199.711 101.452 201.501C97.0822 212.347 88.6536 233.63 89.1113 235.286C89.7276 237.516 90.3437 237.719 88.7012 238.53C87.0587 239.342 84.7999 237.923 87.0587 239.342C89.3175 240.761 86.443 241.167 87.4698 242.18C88.4966 243.194 105.539 245.421 105.539 245.421C105.539 245.421 101.776 234.12 103.04 232.471C104.305 230.823 108.412 232.85 106.358 230.822C104.304 228.795 102.392 228.235 104.785 227.298C107.179 226.361 109.275 225.326 109.275 225.326L117.458 208.417C118.051 207.19 118.343 205.843 118.309 204.483C118.276 203.124 117.917 201.792 117.263 200.596C116.609 199.399 115.678 198.372 114.546 197.598C113.414 196.825 112.113 196.326 110.749 196.143Z" fill="#E6E6E6"/>
<path d="M125.688 407.153L131.364 407.152L134.063 385.533H125.686L125.688 407.153Z" fill="#A0616A"/>
<path d="M125.488 413L142.942 412.999V412.781C142.942 411.002 142.226 409.296 140.952 408.038C139.678 406.78 137.95 406.073 136.148 406.073H136.148L132.96 403.684L127.011 406.073L125.487 406.073L125.488 413Z" fill="#2F2E41"/>
<path d="M34.4842 369.803L36.807 374.918L57.8886 368.504L54.4601 360.956L34.4842 369.803Z" fill="#A0616A"/>
<path d="M29 372.015L36.1422 387.742L36.3436 387.653C37.9876 386.925 39.2713 385.582 39.9125 383.919C40.5537 382.256 40.4998 380.41 39.7627 378.787L39.7626 378.786L40.6651 374.936L36.0238 370.554L35.4003 369.181L29 372.015Z" fill="#2F2E41"/>
<path d="M120.175 182.977C126.154 182.977 131 178.191 131 172.287C131 166.384 126.154 161.598 120.175 161.598C114.197 161.598 109.351 166.384 109.351 172.287C109.351 178.191 114.197 182.977 120.175 182.977Z" fill="#A0616A"/>
<path d="M139.414 271.34L98.5083 270.057C98.5083 270.057 89.8527 286.598 95.1544 296.922C100.456 307.247 96.2588 336.496 96.2588 336.496L43.3178 363.031L47.8629 373.29C47.8629 373.29 59.5503 372.649 61.4982 370.725C63.302 369.162 65.5936 368.257 67.9912 368.16C69.2898 368.16 107.599 351.489 107.599 351.489L117.551 323.014L127.65 361.91L122.698 396.473L134.519 396.78C134.519 396.78 138.597 394.757 137.382 391.718C136.168 388.679 135.54 387.356 138.451 384.811C141.362 382.267 147 343.734 147 343.734L140.313 299.271C140.313 299.271 136.33 298.165 139.695 295.163C143.06 292.162 139.622 288.581 139.622 288.581C139.622 288.581 142.468 284.606 139.584 285.244C136.701 285.882 139.414 270.057 139.414 270.057" fill="#2F2E41"/>
<path d="M130.272 190.049L115.168 189.125L112.527 193.442C112.527 193.442 106.581 193.114 107.88 195.037C109.178 196.961 108.423 195.386 106.528 196.815C104.633 198.243 102.074 198.497 103.354 199.653C103.54 199.821 103.465 200.32 103.2 201.048C97.9737 215.043 96.6877 230.175 99.4788 244.834C100.366 249.296 100.932 252.553 100.737 252.745C100.088 253.386 96.8416 252.745 98.7895 254.669C100.737 256.592 103.984 254.669 100.088 258.516C96.1923 262.363 88.0121 278.655 97.4908 279.675C106.97 280.696 142.293 278.393 141.643 275.828L137.098 257.875L133.397 206.217L129.688 196.35L130.272 190.049Z" fill="#E6E6E6"/>
<path d="M131.061 280.662L124.751 250.024L114.653 252.569L122.857 284.173C122.743 285.071 122.872 285.982 123.229 286.815C123.587 287.647 124.162 288.372 124.895 288.914C125.628 289.457 126.493 289.798 127.402 289.904C128.312 290.01 129.234 289.876 130.074 289.516C130.915 289.157 131.644 288.584 132.188 287.856C132.732 287.128 133.071 286.271 133.171 285.372C133.271 284.473 133.129 283.564 132.758 282.737C132.388 281.909 131.802 281.194 131.061 280.662H131.061Z" fill="#A0616A"/>
<path d="M119.842 205.699C117.924 206.055 116.183 207.035 114.895 208.482C113.607 209.93 112.847 211.761 112.736 213.685C112.062 225.339 110.878 248.161 111.842 249.589C113.141 251.513 113.79 251.513 112.491 252.795C111.193 254.078 108.595 253.436 111.193 254.078C113.79 254.719 111.193 256.001 112.491 256.642C113.79 257.284 130.672 254.078 130.672 254.078C130.672 254.078 123.484 244.53 124.156 242.571C124.828 240.613 129.373 241.254 126.776 239.971C124.179 238.689 122.185 238.755 124.156 237.119C126.127 235.483 127.784 233.846 127.784 233.846L130.135 215.25C130.306 213.901 130.151 212.531 129.684 211.252C129.217 209.973 128.451 208.821 127.447 207.89C126.444 206.959 125.232 206.276 123.91 205.895C122.589 205.514 121.195 205.447 119.842 205.699Z" fill="#E6E6E6"/>
<path d="M123.439 182.588C122.075 183.614 120.598 184.483 119.036 185.18C117.458 185.876 115.688 186.021 114.016 185.59C113.185 185.332 112.425 184.89 111.793 184.299C111.161 183.707 110.674 182.981 110.368 182.176C109.772 180.566 104.789 178.686 105.729 177.244C106.202 176.671 106.594 176.037 106.893 175.359C107.029 175.015 107.025 174.632 106.882 174.291C106.738 173.95 106.466 173.677 106.123 173.529C105.823 173.486 105.518 173.544 105.255 173.694C104.993 173.843 104.789 174.075 104.676 174.352C104.465 174.914 104.387 175.516 104.45 176.112C103.969 175.714 103.632 175.174 103.489 174.571C103.345 173.968 103.403 173.336 103.654 172.768L101.971 171.933C103.424 171.374 108.955 169.11 107.726 168.162C106.686 167.36 103.338 164.754 103.712 163.816C104.149 162.901 104.761 162.079 105.515 161.395C106.967 159.898 108.55 158.328 110.605 157.908C112.361 157.55 114.159 158.098 115.884 158.582C117.609 159.066 119.475 159.487 121.165 158.893C122.854 158.298 124.135 156.273 123.29 154.712C123.937 154.706 124.571 154.884 125.119 155.224C125.666 155.564 126.103 156.052 126.378 156.63L126.667 154C127.958 154.335 129.151 154.965 130.15 155.839C131.072 156.786 131.464 158.375 130.66 159.421C129.77 160.581 127.78 160.713 127.253 162.072C126.79 163.265 127.792 164.47 128.629 165.444C129.466 166.418 130.197 167.929 129.319 168.866C128.592 169.642 127.317 169.395 126.281 169.66C124.719 170.061 123.758 171.687 123.554 173.268C123.476 174.86 123.597 176.457 123.913 178.021C124.227 179.599 123.975 181.235 123.2 182.65" fill="#2F2E41"/>
<path d="M130.341 175.98C129.235 175.98 128.008 175.557 128.008 174.464V167.521C128.008 166.428 129.235 166.56 130.341 166.56C133.1 164.734 135.438 167.397 135.531 170.992C135.499 174.872 133.339 177.351 130.341 175.98Z" fill="#3F3D56"/>
<path d="M128.801 165.542H125.267C124.086 165.542 119.446 165.461 119.212 166.56C112.977 165.469 110.527 165.44 106.906 167.465C106.475 167.465 106.062 167.634 105.758 167.935C105.454 168.236 105.283 168.643 105.283 169.068C105.283 169.494 105.454 169.901 105.758 170.202C106.062 170.503 106.475 170.671 106.906 170.671L118.417 170.485L122.814 174.019C122.814 174.337 122.877 174.652 123 174.946C123.124 175.24 123.304 175.508 123.532 175.733C123.76 175.958 124.031 176.136 124.328 176.258C124.626 176.38 124.945 176.442 125.267 176.442H128.801C129.123 176.442 129.442 176.38 129.74 176.258C130.038 176.136 130.308 175.958 130.536 175.733C130.764 175.508 130.944 175.24 131.068 174.946C131.191 174.652 131.255 174.337 131.255 174.019C130.123 171.86 129.935 169.818 131.255 167.965C131.255 167.647 131.191 167.332 131.068 167.038C130.944 166.744 130.764 166.477 130.536 166.252C130.308 166.027 130.037 165.848 129.74 165.726C129.442 165.605 129.123 165.542 128.801 165.542Z" fill="#6C63FF"/>
<path d="M379.074 237.608C378.196 237.689 377.354 238.002 376.635 238.513C375.916 239.025 375.345 239.717 374.981 240.521C374.278 242.152 374.203 243.986 374.768 245.669C375.048 246.303 375.182 246.992 375.162 247.685C375.018 248.261 374.749 248.798 374.375 249.259C372.978 251.154 372.183 253.425 372.092 255.777C372.092 258.139 373.438 260.54 375.634 261.327C374.233 264.271 374.194 268.049 376.248 270.584C378.303 273.119 382.656 273.678 384.829 271.245C385.419 272.34 386.329 273.227 387.438 273.789C388.547 274.351 389.801 274.56 391.032 274.389C392.263 274.217 393.412 273.674 394.325 272.83C395.239 271.987 395.872 270.885 396.141 269.671C398.203 270.828 401.006 269.86 402.36 267.923C402.984 266.917 403.374 265.783 403.499 264.606C403.624 263.428 403.483 262.237 403.084 261.122C402.272 258.896 401.069 256.833 399.534 255.029C401.218 253.754 402.982 252.392 403.784 250.44C404.587 248.487 404.005 245.787 402.037 245.032C402.828 243.833 403.258 242.432 403.275 240.996C403.291 239.56 402.894 238.149 402.13 236.933C401.366 235.717 400.268 234.746 398.967 234.137C397.667 233.528 396.218 233.307 394.795 233.499C393.275 233.672 392.142 234.562 390.638 233.909C389.473 233.397 388.757 231.854 387.789 231.059C383.49 227.564 376.429 232.137 379.074 237.608Z" fill="#233D8C"/>
<path d="M492.352 321.067C491.504 340.772 483.079 359.389 468.835 373.032C454.592 386.675 435.631 394.291 415.907 394.291C396.184 394.291 377.223 386.675 362.979 373.032C348.736 359.389 340.311 340.772 339.462 321.067H492.352Z" fill="#233D8C"/>
<path d="M461.085 321.067C461.085 321.067 449.843 381.123 437.799 383.303C425.755 385.484 461.085 387.956 478.868 360.86C494.336 337.299 492.352 321.067 492.352 321.067H461.085Z" fill="url(#paint0_linear_13_121)"/>
<path d="M360.607 321.485C360.607 321.485 366.818 378.218 403.792 383.862C440.767 389.506 450.93 384.996 450.93 384.996C450.93 384.996 428.101 407.573 397.015 399.102C365.928 390.632 348.618 357.436 348.618 357.436C348.618 357.436 338.604 329.679 339.447 321.067L360.607 321.485Z" fill="url(#paint1_linear_13_121)"/>
<path d="M385.978 326.837C386.135 326.617 386.364 326.231 386.639 325.885C387.379 324.885 388.127 324.924 388.599 326.105C389.387 328.018 390.3 329.955 389.725 332.104C389.466 332.744 389.133 333.351 388.733 333.914C387.529 336.087 384.734 337.591 385.899 340.747C385.951 340.895 385.971 341.052 385.958 341.208C385.944 341.364 385.897 341.516 385.821 341.652C384.829 343.109 385.466 344.203 386.348 345.463C387.576 347.218 388.442 349.233 389.701 350.973C391.504 353.429 392.543 356.483 395.267 358.207C396.589 359.042 398.03 359.727 399.274 360.655C399.939 361.17 400.399 361.903 400.573 362.726C400.872 364.898 400.872 367.11 401.1 369.299C401.281 371.054 401.698 372.802 401.887 374.557C402.066 375.549 402.044 376.566 401.824 377.549C401.316 378.983 401.302 380.546 401.785 381.989C402.21 383.28 402.572 384.594 402.958 385.925C404.107 389.538 409.46 392.222 413.262 391.081L409.216 389.042C409.948 388.255 410.515 387.68 411.153 387.011L409.476 386.003L411.05 385.059C410.877 384.311 410.704 383.539 410.499 382.595L412.861 382.973C412.947 382.335 413.026 381.792 413.121 381.13C414.624 380.981 416.136 380.855 417.844 380.698C417.671 379.69 417.505 378.753 417.332 377.816C419.898 378.548 421.457 377.934 423.15 375.754C423.906 374.915 424.716 374.126 425.574 373.392C426.684 372.282 427.936 371.259 427.936 369.456C427.936 369.181 428.589 368.811 428.998 368.63C431.037 367.78 432.809 366.221 435.296 366.426C435.666 366.426 436.225 365.906 436.453 365.481C437.626 363.222 438.76 360.923 439.854 358.624C440.024 358.18 440.065 357.697 439.972 357.231C439.815 356.066 439.555 354.917 441.137 354.484C441.373 354.413 441.531 354.011 441.72 353.76C442.672 352.413 443.593 351.036 444.601 349.737C445.388 348.745 445.577 345.943 444.798 345.014C444.64 344.833 444.325 344.612 444.168 344.652C442.53 345.108 441.625 343.951 440.657 343.077C440.285 342.712 439.825 342.448 439.322 342.311C438.82 342.173 438.29 342.166 437.784 342.29C436.949 342.448 436.005 341.92 435.131 342.015C433.336 342.196 432.336 340.991 431.077 340.086C430.101 339.393 428.817 338.779 427.715 340.22C426.141 339.236 424.952 338.047 424.763 336.174C424.726 335.041 424.315 333.952 423.592 333.079C422.87 332.206 421.878 331.597 420.772 331.348C419.78 331.094 418.75 331.027 417.734 331.151C417.253 331.261 416.752 331.227 416.29 331.055C415.829 330.883 415.427 330.58 415.136 330.183C414.16 328.939 413.302 327.491 411.483 327.16C411.192 327.16 410.814 326.593 410.751 326.239C410.704 325.814 410.528 325.413 410.247 325.091C409.965 324.768 409.592 324.54 409.177 324.436C408.748 324.302 408.308 324.204 407.862 324.145C407.34 324.071 406.81 324.071 406.288 324.145C405.261 324.296 404.214 324.234 403.212 323.963C402.209 323.692 401.274 323.218 400.463 322.571C397.896 320.603 393.637 321.626 391.803 324.295L391.725 324.405C391.339 324.956 390.937 325.515 390.512 326.105C389.986 325.642 389.419 325.226 388.82 324.862C387.985 324.444 387.159 324.074 386.214 324.901C385.927 325.028 385.612 325.082 385.299 325.058C384.985 325.033 384.683 324.93 384.419 324.759C384.278 324.641 385.458 321.209 385.34 321.091H380.098C380.169 321.319 382.459 324.877 382.53 325.027L385.978 326.837Z" fill="url(#paint2_linear_13_121)"/>
<path d="M415.671 326.349C457.821 326.349 491.99 324.171 491.99 321.485C491.99 318.798 457.821 316.62 415.671 316.62C373.521 316.62 339.352 318.798 339.352 321.485C339.352 324.171 373.521 326.349 415.671 326.349Z" fill="#3E3E54"/>
<path d="M393.354 310.141C397.439 309.255 401.587 308.694 405.76 308.464C411.428 308.047 417.175 307.78 422.748 308.897C426.43 309.756 430.048 310.863 433.58 312.211C448.493 317.38 463.941 320.849 479.631 322.555C450.095 323.563 420.544 322.555 391.04 321.115C386.999 320.91 382.96 320.697 378.925 320.477C375.839 320.312 370.517 320.997 367.857 319.643C369.604 316.848 376.17 316.171 379.106 315.061C383.813 313.298 388.442 311.314 393.354 310.141Z" fill="#3E3E54"/>
<path d="M397.369 311.33C397.369 311.33 395.464 268.144 386.348 252.904L389.095 251.636C389.095 251.636 402.013 311.117 402.226 311.755C402.438 312.392 400.541 314.289 397.369 311.33Z" fill="#3E3E54"/>
<path d="M424.653 237.861C423.803 237.625 422.906 237.619 422.053 237.843C421.199 238.067 420.421 238.513 419.796 239.136C418.565 240.409 417.845 242.09 417.773 243.859C417.812 244.553 417.693 245.248 417.427 245.89C417.091 246.387 416.65 246.803 416.136 247.11C414.159 248.39 412.61 250.233 411.688 252.4C410.901 254.596 411.263 257.328 413.042 258.847C410.68 261.099 409.311 264.617 410.326 267.719C411.342 270.821 415.23 272.883 418.119 271.372C418.283 272.604 418.82 273.758 419.658 274.677C420.496 275.595 421.595 276.236 422.807 276.512C424.02 276.788 425.288 276.686 426.441 276.22C427.594 275.755 428.577 274.947 429.258 273.906C430.778 275.717 433.745 275.803 435.698 274.473C436.638 273.753 437.405 272.829 437.939 271.772C438.473 270.714 438.762 269.549 438.783 268.364C438.81 265.997 438.419 263.644 437.626 261.414C439.649 260.823 441.783 260.17 443.223 258.627C444.664 257.084 445.081 254.36 443.499 252.951C444.673 252.114 445.581 250.954 446.112 249.613C446.643 248.271 446.774 246.805 446.49 245.391C446.207 243.976 445.52 242.674 444.513 241.641C443.506 240.608 442.221 239.888 440.814 239.569C439.334 239.191 437.957 239.624 436.784 238.482C435.879 237.593 435.76 235.893 435.131 234.806C432.344 230.036 424.126 231.807 424.653 237.861Z" fill="#233D8C"/>
<path d="M426.007 273.772C425.952 272.324 425.913 270.781 426.653 269.537C427.118 268.842 427.696 268.227 428.361 267.719C429.441 266.745 430.627 265.895 431.895 265.184C433.178 264.475 434.655 264.199 436.107 264.397C434.493 265.877 432.171 266.373 430.486 267.742C428.557 269.393 427.064 271.494 426.141 273.859C424.858 278.102 424.795 283.227 424.134 287.627C423.472 292.028 422.811 296.562 422.142 301.009C421.449 305.733 420.237 310.621 420.048 315.376C420.048 316.045 417.56 317.155 415.64 313.258C418.001 306.173 419.954 298.955 421.733 291.72C423.236 285.557 424.567 279.33 425.488 273.048C425.905 270.214 426.613 266.987 426.464 264.121C426.298 261.091 423.102 258.123 420.552 256.824C420.379 256.729 420.198 256.643 420.017 256.564C419.749 256.753 419.954 257.178 420.174 257.43C422.11 259.587 424.716 261.311 425.732 264.027C425.999 264.743 426.141 265.499 426.385 266.223C426.228 265.759 426.794 264.405 426.723 263.736C426.595 262.844 426.527 261.944 426.519 261.043C426.552 258.935 426.396 256.827 426.054 254.746L429.077 254.533C429.077 254.533 427.802 263.035 426.228 273.686" fill="#3E3E54"/>
<path d="M458.802 243.67C457.952 243.434 457.054 243.427 456.201 243.651C455.348 243.875 454.569 244.322 453.945 244.945C452.714 246.218 451.994 247.899 451.922 249.669C451.957 250.363 451.839 251.056 451.575 251.7C451.24 252.196 450.799 252.613 450.284 252.92C448.309 254.198 446.76 256.037 445.837 258.202C445.049 260.406 445.404 263.137 447.191 264.657C444.829 266.908 443.459 270.427 444.475 273.529C445.49 276.63 449.379 278.693 452.268 277.181C452.432 278.414 452.968 279.567 453.806 280.486C454.644 281.405 455.744 282.045 456.956 282.321C458.169 282.597 459.437 282.496 460.59 282.03C461.743 281.564 462.726 280.757 463.407 279.716C464.926 281.526 467.894 281.613 469.846 280.283C470.785 279.56 471.549 278.636 472.083 277.579C472.617 276.522 472.907 275.358 472.932 274.174C472.956 271.806 472.562 269.453 471.767 267.223C473.798 266.633 475.923 265.979 477.372 264.436C478.82 262.893 479.222 260.17 477.647 258.761C478.822 257.923 479.73 256.764 480.26 255.423C480.791 254.081 480.923 252.615 480.639 251.2C480.355 249.786 479.668 248.483 478.661 247.45C477.654 246.417 476.37 245.698 474.963 245.378C473.483 245 472.105 245.433 470.933 244.292C470.019 243.402 469.901 241.702 469.279 240.616C466.493 235.853 458.274 237.617 458.802 243.67Z" fill="#233D8C"/>
<path d="M460.156 279.582C460.101 278.133 460.061 276.591 460.793 275.347C461.262 274.651 461.842 274.037 462.51 273.528C463.59 272.555 464.775 271.705 466.044 270.994C467.326 270.284 468.804 270.008 470.256 270.206C468.642 271.686 466.32 272.182 464.635 273.552C462.705 275.204 461.211 277.304 460.282 279.669C459.006 283.912 458.944 289.036 458.282 293.437C457.621 297.837 456.952 302.371 456.291 306.819C455.598 311.542 454.386 316.431 454.189 321.185C454.189 321.854 451.709 322.964 449.788 319.068C452.15 311.983 454.102 304.764 455.873 297.53C457.385 291.366 458.715 285.14 459.636 278.858C460.046 276.024 460.762 272.796 460.605 269.931C460.447 266.9 457.243 263.932 454.701 262.634C454.527 262.539 454.346 262.452 454.165 262.374C453.898 262.563 454.094 262.988 454.323 263.24C456.259 265.397 458.865 267.121 459.88 269.836C460.148 270.553 460.29 271.308 460.534 272.033C460.376 271.568 460.943 270.214 460.864 269.545C460.744 268.652 460.675 267.754 460.66 266.853C460.7 264.744 460.545 262.636 460.195 260.555L463.226 260.343C463.226 260.343 461.951 268.845 460.36 279.495" fill="#3E3E54"/>
<path d="M435.957 277.055C435.483 276.923 434.982 276.92 434.506 277.046C434.03 277.171 433.596 277.422 433.249 277.771C432.559 278.483 432.155 279.425 432.116 280.416C432.135 280.804 432.068 281.191 431.919 281.55C431.733 281.827 431.489 282.061 431.203 282.234C430.098 282.949 429.232 283.977 428.715 285.186C428.476 285.798 428.423 286.467 428.564 287.108C428.704 287.75 429.03 288.335 429.502 288.792C428.819 289.398 428.316 290.181 428.049 291.055C427.782 291.928 427.762 292.859 427.991 293.743C428.558 295.475 430.722 296.632 432.336 295.79C432.43 296.478 432.732 297.12 433.201 297.632C433.67 298.144 434.284 298.5 434.961 298.653C435.638 298.806 436.346 298.749 436.989 298.489C437.633 298.23 438.182 297.779 438.563 297.199C439.027 297.671 439.643 297.963 440.302 298.022C440.961 298.081 441.62 297.904 442.16 297.522C442.684 297.119 443.111 296.603 443.409 296.013C443.708 295.423 443.87 294.774 443.884 294.113C443.897 292.789 443.679 291.473 443.239 290.225C444.41 289.991 445.498 289.447 446.388 288.65C447.175 287.792 447.419 286.289 446.545 285.501C447.193 285.03 447.692 284.382 447.983 283.635C448.274 282.888 448.345 282.074 448.187 281.288C448.028 280.502 447.648 279.778 447.09 279.202C446.533 278.626 445.822 278.223 445.042 278.039C444.215 277.826 443.467 278.039 442.79 277.433C442.278 276.937 442.216 275.984 441.861 275.378C440.255 272.686 435.674 273.678 435.957 277.055Z" fill="#233D8C"/>
<path d="M436.713 297.121C436.607 296.315 436.733 295.496 437.075 294.759C437.331 294.368 437.654 294.024 438.028 293.744C438.629 293.197 439.292 292.721 440.003 292.327C440.722 291.928 441.551 291.773 442.365 291.886C441.468 292.673 440.177 292.988 439.216 293.752C438.139 294.675 437.304 295.848 436.784 297.168C436.075 299.53 436.036 302.403 435.666 304.859L434.556 312.345C434.17 314.974 433.493 317.722 433.383 320.375C433.383 320.752 431.998 321.366 430.927 319.194C432.226 315.258 433.336 311.204 434.328 307.158C435.17 303.717 435.902 300.238 436.422 296.727C436.763 295.088 436.945 293.419 436.965 291.744C436.878 290.052 435.091 288.391 433.667 287.667L433.367 287.517C433.218 287.627 433.367 287.863 433.454 288.005C434.54 289.209 435.997 290.17 436.563 291.689C436.713 292.091 436.792 292.476 436.926 292.917C436.839 292.657 437.154 291.902 437.114 291.532C437.043 291.031 437.003 290.526 436.996 290.02C437.02 288.839 436.933 287.658 436.737 286.494L438.429 286.375L436.855 297.074" fill="#3E3E54"/>
<path d="M477.947 277.732C477.475 277.52 476.955 277.437 476.441 277.491C475.927 277.545 475.436 277.734 475.018 278.039C474.193 278.673 473.632 279.59 473.444 280.613C473.401 281.016 473.272 281.405 473.066 281.755C472.83 282.018 472.536 282.223 472.208 282.353C470.949 282.922 469.888 283.854 469.161 285.029C468.814 285.622 468.649 286.305 468.689 286.991C468.728 287.678 468.969 288.337 469.382 288.887C468.575 289.408 467.928 290.141 467.511 291.006C467.094 291.872 466.924 292.835 467.02 293.791C467.343 295.68 469.382 297.215 471.216 296.593C471.203 297.322 471.413 298.037 471.819 298.643C472.224 299.249 472.805 299.716 473.483 299.983C474.161 300.249 474.905 300.302 475.614 300.133C476.323 299.965 476.964 299.584 477.451 299.041C477.859 299.602 478.454 300 479.128 300.165C479.803 300.329 480.514 300.249 481.135 299.939C481.749 299.605 482.28 299.138 482.689 298.571C483.098 298.004 483.374 297.352 483.496 296.664C483.715 295.293 483.694 293.895 483.433 292.531C484.676 292.476 485.88 292.087 486.921 291.406C487.897 290.618 488.369 289.099 487.582 288.147C488.33 287.76 488.952 287.167 489.372 286.437C489.793 285.708 489.995 284.873 489.954 284.032C489.913 283.19 489.632 282.379 489.143 281.693C488.654 281.007 487.978 280.477 487.196 280.164C486.409 279.818 485.535 279.952 484.96 279.18C484.504 278.582 484.59 277.606 484.323 276.905C483.087 273.867 478.183 274.174 477.947 277.732Z" fill="#233D8C"/>
<path d="M475.577 298.664C475.598 297.823 475.854 297.005 476.317 296.302C476.649 295.937 477.04 295.631 477.474 295.397C478.184 294.928 478.945 294.54 479.741 294.24C480.547 293.94 481.428 293.91 482.252 294.153C481.19 294.869 479.812 294.94 478.702 295.601C477.437 296.382 476.385 297.464 475.64 298.75C474.522 301.112 474.066 304.056 473.278 306.551L470.917 314.148C470.13 316.817 468.965 319.556 468.437 322.295C468.366 322.681 466.863 323.083 466.076 320.721C468.051 316.785 469.838 312.81 471.499 308.763C472.916 305.323 474.231 301.836 475.317 298.27C475.929 296.62 476.38 294.914 476.663 293.177C476.837 291.414 475.246 289.406 473.885 288.454L473.593 288.257C473.42 288.344 473.499 288.611 473.593 288.776C474.53 290.193 475.884 291.421 476.238 293.09C476.325 293.523 476.341 293.98 476.419 294.421C476.372 294.137 476.821 293.397 476.837 293.004C476.842 292.477 476.881 291.951 476.955 291.429C477.159 290.207 477.254 288.969 477.238 287.729L479.009 287.871L475.671 298.727" fill="#3E3E54"/>
<path d="M352.404 277.732C351.858 277.78 351.333 277.971 350.883 278.284C350.433 278.598 350.073 279.023 349.838 279.519C349.388 280.529 349.326 281.67 349.665 282.723C349.835 283.123 349.916 283.555 349.901 283.99C349.808 284.352 349.639 284.691 349.405 284.982C348.523 286.154 348.011 287.563 347.933 289.028C347.908 289.761 348.101 290.486 348.487 291.109C348.874 291.733 349.437 292.228 350.105 292.531C349.618 293.428 349.39 294.442 349.446 295.461C349.501 296.48 349.839 297.463 350.42 298.301C351.68 299.876 354.356 300.277 355.765 298.774C356.12 299.47 356.682 300.039 357.373 300.404C358.064 300.769 358.851 300.912 359.626 300.813C360.401 300.714 361.127 300.378 361.704 299.851C362.281 299.324 362.681 298.631 362.85 297.868C363.516 298.186 364.273 298.256 364.986 298.065C365.699 297.875 366.32 297.437 366.739 296.829C367.134 296.204 367.385 295.499 367.472 294.765C367.559 294.031 367.481 293.286 367.243 292.586C366.75 291.195 366.015 289.902 365.07 288.768C366.2 288.078 367.127 287.1 367.754 285.934C368.266 284.722 367.92 283.038 366.7 282.557C367.199 281.815 367.475 280.946 367.495 280.051C367.514 279.157 367.276 278.276 366.81 277.513C366.343 276.75 365.666 276.137 364.861 275.747C364.056 275.358 363.156 275.208 362.268 275.315C361.323 275.41 360.607 275.961 359.678 275.536C358.953 275.213 358.521 274.244 357.914 273.741C355.23 271.505 350.798 274.3 352.404 277.732Z" fill="#233D8C"/>
<path d="M360.89 298.467C360.465 297.662 360.282 296.752 360.363 295.845C360.485 295.339 360.692 294.857 360.977 294.421C361.397 293.616 361.91 292.863 362.504 292.177C363.101 291.488 363.904 291.011 364.795 290.815C364.165 292.02 362.929 292.807 362.22 293.964C361.445 295.344 361.02 296.893 360.984 298.475C361.142 301.23 362.205 304.245 362.764 306.961C363.322 309.677 363.897 312.471 364.472 315.234C365.07 318.139 365.409 321.272 366.314 324.098C366.448 324.492 365.243 325.672 363.283 323.799C363.134 319.154 362.748 314.502 362.236 309.889C361.795 305.953 361.244 302.017 360.433 298.152C360.159 296.301 359.711 294.48 359.095 292.712C358.355 290.981 355.844 289.926 354.073 289.705H353.703C353.585 289.871 353.797 290.075 353.978 290.178C355.553 291.02 357.474 291.476 358.646 292.846C358.953 293.208 359.205 293.633 359.497 293.996C359.308 293.759 359.347 292.838 359.166 292.468C358.9 291.959 358.665 291.433 358.465 290.894C358.034 289.649 357.491 288.445 356.844 287.296L358.568 286.509C358.568 286.509 359.646 291.76 360.992 298.317" fill="#3E3E54"/>
<path d="M394.149 265.444C394.936 264.09 396.109 262.917 396.708 261.445C397.229 259.89 397.435 258.247 397.314 256.611C397.581 258.102 397.684 259.617 397.621 261.13C398.217 260.944 398.85 260.902 399.466 261.009C400.082 261.116 400.664 261.368 401.163 261.744C399.589 261.886 397.951 262.051 396.668 262.964C395.094 264.09 394.417 266.113 394.196 268.034C393.976 269.954 394.102 271.922 393.677 273.819C393.677 272.403 392.968 271.049 392.811 269.695C392.653 268.341 393.449 266.601 394.149 265.444Z" fill="#3E3E54"/>
<path d="M385.521 258.43C385.175 257.705 384.9 256.855 384.183 256.485L386.789 261.476L382.703 262.775C382.349 262.885 381.916 263.169 382.058 263.507C383.183 263.61 384.27 263.114 385.388 262.956C386.631 262.811 387.888 263.071 388.972 263.698C390.056 264.325 390.908 265.285 391.402 266.436C391.299 266.184 391.638 265.247 391.638 264.916C391.673 264.436 391.581 263.956 391.37 263.523C391.016 263.011 390.174 262.791 389.654 262.468C387.922 261.541 386.488 260.141 385.521 258.43Z" fill="#3E3E54"/>
<path d="M373.312 280.456C372.768 280.506 372.247 280.699 371.802 281.015C371.356 281.332 371.003 281.761 370.777 282.258C370.339 283.271 370.294 284.41 370.651 285.454C370.822 285.849 370.902 286.276 370.887 286.706C370.802 287.068 370.638 287.407 370.407 287.698C369.544 288.875 369.053 290.285 368.998 291.744C368.982 292.471 369.183 293.185 369.574 293.798C369.965 294.41 370.529 294.893 371.194 295.184C370.723 296.083 370.509 297.094 370.575 298.107C370.642 299.119 370.987 300.094 371.572 300.923C372.84 302.497 375.548 302.836 376.886 301.324C377.252 302.002 377.816 302.552 378.504 302.9C379.191 303.249 379.969 303.378 380.732 303.272C381.495 303.166 382.208 302.829 382.774 302.306C383.34 301.784 383.733 301.1 383.9 300.348C384.567 300.654 385.321 300.713 386.028 300.514C386.735 300.315 387.348 299.871 387.757 299.262C388.142 298.638 388.382 297.936 388.46 297.207C388.537 296.478 388.45 295.741 388.206 295.05C387.7 293.67 386.954 292.391 386.002 291.272C387.115 290.573 388.025 289.593 388.639 288.43C389.135 287.218 388.773 285.549 387.552 285.077C388.042 284.334 388.308 283.466 388.318 282.576C388.328 281.686 388.082 280.813 387.608 280.059C387.135 279.306 386.456 278.704 385.65 278.326C384.844 277.949 383.947 277.811 383.065 277.929C382.121 278.039 381.42 278.59 380.491 278.189C379.767 277.874 379.326 276.913 378.72 276.417C376.051 274.237 371.675 277.063 373.312 280.456Z" fill="#233D8C"/>
<path d="M384.656 326.145C384.656 326.145 383.475 299.38 377.831 289.934L379.539 289.146C379.539 289.146 387.537 326.011 387.655 326.381C387.773 326.751 386.624 327.955 384.656 326.145Z" fill="#3E3E54"/>
<path d="M382.656 297.703C383.241 296.919 383.767 296.093 384.23 295.231C384.551 294.266 384.677 293.246 384.6 292.232C384.766 293.156 384.829 294.096 384.789 295.034C385.159 294.92 385.551 294.894 385.933 294.96C386.315 295.026 386.675 295.181 386.986 295.412C386.004 295.424 385.042 295.695 384.199 296.199C383.741 296.592 383.369 297.073 383.105 297.615C382.841 298.156 382.691 298.746 382.664 299.348C382.623 300.549 382.517 301.748 382.349 302.938C382.22 302.075 382.041 301.221 381.814 300.379C381.817 299.423 382.111 298.489 382.656 297.703Z" fill="#3E3E54"/>
<path d="M377.311 293.358C377.091 292.909 376.925 292.374 376.477 292.153L378.051 295.247L375.524 296.034C375.304 296.105 375.028 296.286 375.123 296.491C375.821 296.456 376.512 296.342 377.185 296.152C377.957 296.059 378.738 296.219 379.41 296.608C380.083 296.997 380.612 297.594 380.916 298.309C380.853 298.152 381.058 297.569 381.058 297.365C381.083 297.066 381.026 296.767 380.893 296.499C380.672 296.184 380.153 296.05 379.83 295.845C378.775 295.266 377.903 294.405 377.311 293.358Z" fill="#3E3E54"/>
<path d="M447.12 206.75C457.641 206.75 466.17 198.221 466.17 187.7C466.17 177.179 457.641 168.65 447.12 168.65C436.599 168.65 428.07 177.179 428.07 187.7C428.07 198.221 436.599 206.75 447.12 206.75Z" fill="#233D8C"/>
<path d="M418.466 175.451C421.455 180.241 422.946 185.814 422.747 191.457C422.548 197.099 420.668 202.553 417.348 207.12C421.969 207.435 426.637 208.403 430.636 210.749C434.635 213.095 437.894 216.952 438.752 221.51C442.319 216.605 447.631 213.255 453.595 212.15C459.558 211.044 465.718 212.267 470.807 215.567C470.019 208.907 466.209 202.295 468.083 195.847C469.468 191.124 473.593 187.747 477.529 184.717C473.998 182.253 471.213 178.866 469.479 174.926C467.745 170.985 467.128 166.643 467.697 162.376C463.84 165.611 458.29 166.312 453.41 165.107C449.324 164.068 446.766 161.384 443.176 159.636C440.814 158.495 441.42 158.574 439.759 160.652C438.587 162.108 437.705 163.753 436.461 165.17C434.106 167.853 431.321 170.125 428.219 171.893C427.298 172.413 419.143 176.498 418.466 175.451Z" fill="url(#paint3_linear_13_121)"/>
<g clip-path="url(#clip0_13_121)">
<path d="M864.278 417.271C863.181 417.452 862.063 417.356 861.002 416.991C859.941 416.626 858.964 416.001 858.138 415.16C857.312 414.319 856.659 413.282 856.223 412.122C855.787 410.963 855.58 409.708 855.616 408.448L830.47 397.448L841.855 388.177L863.989 400.044C865.846 400.254 867.571 401.232 868.837 402.792C870.103 404.353 870.822 406.388 870.857 408.512C870.893 410.636 870.242 412.701 869.03 414.315C867.817 415.93 866.126 416.982 864.277 417.272L864.278 417.271Z" fill="#FFB7B7"/>
<path d="M849.908 409.38L853.835 393.616L853.642 393.466L816.864 365.029L785.072 328.718L766.553 337.14L767.769 343.812L767.848 343.894L810.117 386.989L810.156 387.011L849.908 409.38Z" fill="#E6E7E8"/>
<path d="M812.232 445.389L755.314 436.307L760.324 396.553H802.227L812.232 445.389Z" fill="#FFB6B6"/>
<path d="M715.52 640.054L727.195 643.142L743.217 593.351L725.985 588.793L715.52 640.054Z" fill="#FFB6B6"/>
<path d="M704.656 661.451L713.029 663.665L716.36 655.063L718.351 665.073L740.559 670.948C741.623 671.229 742.739 671.116 743.743 670.625C744.747 670.134 745.587 669.29 746.14 668.217C746.692 667.144 746.93 665.898 746.816 664.661C746.703 663.423 746.245 662.26 745.51 661.34L730.622 642.707L732.479 633.611L713.567 629.944L704.656 661.451Z" fill="#2F2E41"/>
<path d="M787.562 647.46H799.549L805.253 594.833H787.562V647.46Z" fill="#FFB6B6"/>
<path d="M781.235 671.101H789.831L791.366 661.863L795.295 671.101H818.095C819.187 671.101 820.252 670.703 821.132 669.966C822.012 669.229 822.662 668.191 822.988 667.003C823.313 665.815 823.296 664.541 822.94 663.365C822.583 662.189 821.906 661.173 821.007 660.466L802.8 646.154V636.814L783.65 638.115L781.235 671.101Z" fill="#2F2E41"/>
<path d="M754.595 429.561L810.258 424.521C826.684 468.197 816.239 537.919 803.616 616.406L785.712 619.041L784.324 492.921L739.442 610.251L720.782 609.165L754.595 429.561Z" fill="#2F2E41"/>
<path d="M786.995 314.552V293.117C786.997 289.344 786.345 285.607 785.078 282.121C783.811 278.634 781.952 275.466 779.609 272.797C777.266 270.129 774.483 268.012 771.421 266.567C768.358 265.123 765.076 264.379 761.761 264.379C758.446 264.379 755.164 265.123 752.102 266.567C749.039 268.012 746.257 270.129 743.914 272.797C741.57 275.466 739.712 278.634 738.444 282.121C737.177 285.607 736.525 289.344 736.527 293.117C732.08 303.666 734.862 308.682 736.527 314.552C736.529 315.575 736.886 316.555 737.521 317.278C738.156 318.001 739.017 318.407 739.915 318.409H783.606C784.504 318.408 785.365 318.001 786.001 317.278C786.636 316.555 786.994 315.575 786.995 314.552Z" fill="#2F2E41"/>
<path d="M767.989 318.086C778.206 318.086 786.489 308.657 786.489 297.027C786.489 285.396 778.206 275.968 767.989 275.968C757.771 275.968 749.488 285.396 749.488 297.027C749.488 308.657 757.771 318.086 767.989 318.086Z" fill="#FFB7B7"/>
<path d="M792.965 294.831C792.959 288.807 790.854 283.032 787.112 278.773C783.37 274.513 778.296 272.117 773.004 272.11H769.237C763.945 272.117 758.871 274.513 755.129 278.773C751.387 283.032 749.282 288.807 749.276 294.831V295.26C752.097 297.455 754.775 297.776 757.236 295.26L759.95 286.608L760.493 295.26H764.608L765.979 290.895L766.253 295.26C771.81 300.647 782.318 298.066 792.965 295.26L792.965 294.831Z" fill="#2F2E41"/>
<path d="M757.2 408.172L804.305 406.132L806.939 371.055C808.969 364.634 809.002 359.118 807.036 354.67C805.345 351.013 802.504 348.218 799.081 346.843L788.774 332.673C787.448 330.852 785.783 329.388 783.9 328.389C782.016 327.389 779.961 326.879 777.883 326.894L751.101 327.102C750.455 326.66 746.54 324.395 738.817 328.204C730.441 332.336 732.386 346.692 732.407 346.836L732.426 346.971L732.518 347.063L750.332 364.142L757.2 408.172Z" fill="#E6E7E8"/>
<path d="M537.79 672H1010.76C1010.97 672 1011.17 671.905 1011.32 671.736C1011.47 671.568 1011.55 671.339 1011.55 671.1C1011.55 670.862 1011.47 670.633 1011.32 670.464C1011.17 670.295 1010.97 670.201 1010.76 670.201H537.79C537.581 670.201 537.38 670.295 537.231 670.464C537.083 670.633 537 670.862 537 671.1C537 671.339 537.083 671.568 537.231 671.736C537.38 671.905 537.581 672 537.79 672Z" fill="#CCCCCC"/>
<path d="M882.167 459.085C882.132 479.52 875.382 499.2 863.246 514.257C851.109 529.314 834.463 538.659 816.58 540.454C798.697 542.249 780.871 536.365 766.606 523.958C752.342 511.552 742.67 493.52 739.493 473.408C736.316 453.296 739.864 432.558 749.439 415.273C759.013 397.987 773.922 385.403 791.235 379.996C808.547 374.588 827.01 376.747 842.995 386.049C858.979 395.352 871.328 411.123 877.615 430.264C877.772 430.745 877.924 431.225 878.073 431.711V431.715C878.737 433.848 879.321 436.021 879.827 438.234C881.386 445.042 882.172 452.049 882.167 459.085Z" fill="#3F3D56"/>
<path d="M801.858 403.492C798.605 401.49 794.993 400.359 791.298 400.187C787.603 400.015 783.922 400.806 780.536 402.499C777.555 403.976 774.415 406.625 773.421 411.409C777.443 408.707 782.65 412.977 783.685 419.825L783.444 419.901C782.897 424.645 784.117 429.81 786.48 432.751C786.656 431.424 787.089 430.158 787.748 429.045C788.407 427.932 789.276 427 790.291 426.317C792.027 425.018 793.947 424.075 795.272 421.842C796.843 419.195 797.242 415.327 797.866 411.798C798.49 408.268 799.674 404.475 801.858 403.492Z" fill="#233D8C"/>
<path d="M779.343 443.86C778.229 445.764 776.741 446.959 775.406 448.447C773.864 450.042 772.853 452.194 772.542 454.539C772.373 456.196 772.635 457.881 772.598 459.557C772.562 461.232 772.072 463.118 771.07 463.534C769.49 464.184 768.283 460.843 766.659 460.609C765.368 460.426 764.205 462.738 764.579 464.743C764.953 466.748 766.711 467.636 767.72 466.327C768.633 468.071 767.99 471.234 766.618 471.77C766.473 472.868 766.329 473.962 766.188 475.061C762.721 472.301 759.219 469.495 756.271 465.452C752.992 460.995 750.959 455.524 750.431 449.742C750.049 445.096 750.616 439.781 748.742 436.206C747.242 433.345 744.668 432.713 742.352 432.892C741.93 432.924 741.503 432.979 741.081 433.038C742.447 428.368 744.182 423.848 746.265 419.534C746.736 419.304 747.174 418.993 747.564 418.614C749.719 416.531 750.677 412.315 752.426 409.399C752.539 409.211 752.655 409.028 752.776 408.85C754.566 406.19 756.962 404.821 759.279 403.549C764.406 400.715 769.683 397.845 775.096 398.239L773.556 398.408C771.758 404.139 769.959 409.87 768.158 415.602C767.885 416.481 767.609 417.361 767.33 418.243C766.309 421.502 765.255 424.972 765.412 428.621C765.504 430.781 766.164 433.088 767.419 433.83C768.589 434.517 769.868 433.674 770.998 432.841C771.476 432.493 771.951 432.145 772.429 431.793C774.147 430.534 776.049 429.243 777.863 430.085C779.524 430.854 780.75 433.422 780.983 436.192C781.197 438.884 780.62 441.581 779.343 443.86Z" fill="#233D8C"/>
<path d="M789.556 482.988C784.541 479.473 779.525 475.958 774.51 472.443L774.595 472.194C771.477 473.546 770.182 479.855 770.697 485.015C771.213 490.175 772.96 494.787 773.843 499.815C775.033 506.695 774.584 513.812 772.542 520.427C779.137 512.004 784.973 502.85 789.963 493.102C790.661 491.873 791.192 490.532 791.539 489.124C791.907 487.624 791.776 486.021 791.171 484.624C790.76 483.934 790.205 483.372 789.556 482.988Z" fill="#233D8C"/>
<path d="M769.762 419.041C769.173 420.48 769.082 422.119 769.508 423.631C770.003 424.85 770.9 425.796 772.006 426.265L774.777 427.828C775.699 428.348 776.692 428.874 777.632 428.446C778.766 427.929 779.552 425.907 779.348 424.029C779.132 422.03 778.025 420.656 777.002 419.485C775.57 417.847 774.137 416.209 772.705 414.571L771.898 415.696C771.025 416.665 770.303 417.796 769.762 419.041Z" fill="#6C63FF"/>
<path d="M867.311 440.404C868.558 440.738 869.805 441.072 871.052 441.406C870.834 446.199 868.747 450.635 865.948 452.242C864.782 452.91 863.483 453.157 862.518 454.407C861.645 455.542 861.203 457.309 860.796 458.998C860.085 461.946 859.373 464.894 858.661 467.842C857.897 471.019 856.916 474.549 854.929 475.693C853.224 476.677 851.273 475.473 849.962 473.455C848.651 471.436 847.851 468.721 847.075 466.075C847.123 468.959 845.945 471.788 844.276 472.791C842.603 473.793 840.568 472.887 839.45 470.648C838.645 469.042 838.312 466.922 837.523 465.293C836.735 463.663 835.082 462.729 834.222 464.258C833.655 465.274 833.727 466.831 833.445 468.122C833.304 468.979 832.931 469.764 832.379 470.369C831.827 470.973 831.123 471.367 830.365 471.495C829.668 471.477 828.982 471.298 828.348 470.968C827.714 470.638 827.145 470.165 826.677 469.577C824.214 466.71 822.611 463.029 822.096 459.062C821.748 457.16 821.792 455.192 822.225 453.313C822.72 451.532 823.914 450.159 825.101 450.498C825.881 448.621 824.341 446.13 822.953 446.35C821.562 446.57 820.472 448.268 819.33 449.573C818.192 450.877 816.599 451.825 815.453 450.53C815.478 451.003 815.338 451.469 815.061 451.825C814.785 452.181 814.396 452.397 813.98 452.426C813.939 452.429 813.897 452.43 813.856 452.429C813.094 452.18 812.386 451.753 811.777 451.175C809.151 449.312 805.817 450.548 803.951 454.073C805.117 448.424 806.826 441.942 810.41 440.614C811.874 440.07 813.47 440.518 814.854 439.575C817.303 437.904 817.797 431.592 815.682 428.987C815.951 431.45 815.899 434.325 814.757 436.009C813.615 437.694 811.218 436.595 811.363 434.105C811.33 434.455 811.201 434.785 810.994 435.046C810.787 435.308 810.512 435.488 810.21 435.562C809.907 435.635 809.592 435.597 809.309 435.454C809.027 435.31 808.791 435.069 808.636 434.764C807.876 433.446 807.94 431.29 808.479 429.715C809.035 428.289 809.832 427.001 810.824 425.925C812.734 423.595 814.673 421.237 816.885 419.772C819.1 418.307 821.658 417.813 823.878 419.269C825.049 420.038 826.078 421.32 827.272 421.997C827.553 422.195 827.865 422.329 828.191 422.389C828.517 422.45 828.85 422.438 829.172 422.352C829.494 422.266 829.797 422.109 830.066 421.89C830.334 421.671 830.562 421.393 830.736 421.074C830.749 421.049 830.762 421.024 830.775 420.999C831.664 419.223 831.246 416.586 831.576 414.366C832.167 410.443 835.613 408.607 837.523 411.198C836.096 410.782 834.62 412.704 834.443 415.034C834.262 417.364 835.295 419.717 836.679 420.422C839.003 421.594 841.28 418.646 843.037 415.918C844.871 413.061 846.707 410.206 848.547 407.353C848.84 406.867 849.17 406.411 849.532 405.989C850.108 405.35 850.876 404.984 851.68 404.965C852.484 404.946 853.265 405.276 853.863 405.888C855.721 407.614 856.594 411.153 858.118 413.588C860.33 417.126 863.64 417.987 866.72 418.674C869.017 419.182 871.314 419.693 873.613 420.207C875.146 423.452 876.483 426.813 877.615 430.264C873.399 432.453 869.823 435.972 867.311 440.404Z" fill="#233D8C"/>
<path d="M879.827 438.234C879.356 439.815 879.098 441.468 879.063 443.137C877.092 440.399 876.778 435.268 878.073 431.715C878.737 433.849 879.321 436.021 879.827 438.234Z" fill="#6C63FF"/>
<path d="M874.735 495.482C873.012 499.465 871.008 503.281 868.743 506.894C867.295 506.189 865.739 507.448 864.384 508.629C862.968 509.865 861.267 511.069 859.815 509.943C858.331 508.789 857.853 505.562 858.323 503.003C858.864 500.643 859.81 498.427 861.106 496.485C862.313 494.434 863.603 492.305 865.28 491.509C866.962 490.712 869.121 491.838 869.612 494.558L870.802 494.512C870.135 493.468 870.484 491.307 871.381 490.927C872.415 490.483 873.312 492.099 873.923 493.528C874.196 494.173 874.474 494.823 874.735 495.482Z" fill="#6C63FF"/>
<path d="M829.144 476.146C826.585 476.329 824.559 472.744 823.212 469.217C821.865 465.69 820.636 461.656 818.327 459.861C817.008 458.835 815.504 458.694 814.073 458.197C813.262 457.964 812.511 457.513 811.883 456.884C811.254 456.254 810.767 455.463 810.461 454.576L808.838 453.83C806.567 455.122 804.488 456.809 802.675 458.832C800.604 461.336 799.314 464.547 799.003 467.969C798.693 471.667 799.838 475.791 801.978 477.18C803.668 478.277 805.636 477.586 807.348 478.59C809.488 479.846 810.758 483.493 811.238 487.094C811.719 490.695 811.597 494.437 811.941 498.079C812.285 501.721 813.233 505.511 815.195 507.377C817.65 509.712 821.253 507.772 822.354 503.52C822.894 501.435 822.876 499.082 823.28 496.917C823.992 493.105 825.912 490.277 827.435 487.15C828.958 484.022 830.157 479.775 829.144 476.146Z" fill="#233D8C"/>
<path d="M803.86 438.687C804.099 438.937 804.322 439.206 804.527 439.492C804.739 439.909 804.847 440.383 804.84 440.864C804.833 441.346 804.71 441.816 804.486 442.224C804.794 442.204 805.095 442.111 805.37 441.952C805.646 441.793 805.889 441.57 806.085 441.299C806.552 440.693 806.962 440.035 807.311 439.333C807.474 439.093 807.591 438.816 807.653 438.52C807.716 438.224 807.722 437.917 807.672 437.619C807.551 437.226 807.265 437.058 807.065 436.763C806.787 436.186 806.598 435.559 806.504 434.909C806.393 434.3 806.135 433.739 805.759 433.288C805.383 432.836 804.904 432.514 804.375 432.355L804.504 432.383C804.285 432.531 804.113 432.752 804.011 433.017C803.909 433.281 803.882 433.575 803.934 433.858C804.012 434.429 804.334 434.904 804.302 435.486C804.256 436.324 803.52 436.717 803.475 437.555C803.468 437.975 803.606 438.382 803.86 438.687Z" fill="#6C63FF"/>
<path d="M799.477 424.449L799.488 424.447C799.567 424.366 799.64 424.277 799.706 424.183L799.477 424.449Z" fill="#6C63FF"/>
<path d="M800.244 428.382C800.551 428.076 800.779 427.678 800.901 427.234C801.024 426.79 801.037 426.317 800.939 425.865C800.753 424.912 800.095 424.272 799.488 424.448C799.312 424.651 799.093 424.8 798.853 424.88C798.612 424.961 798.358 424.97 798.113 424.908C797.738 424.798 797.326 424.515 797.001 424.837C796.815 425.077 796.684 425.367 796.622 425.679C796.502 426.1 796.381 426.521 796.261 426.941C796.203 427.092 796.189 427.259 796.218 427.42C796.241 427.484 796.278 427.541 796.326 427.584C796.374 427.627 796.431 427.656 796.491 427.667C797.214 427.909 797.936 428.152 798.659 428.394C798.908 428.525 799.179 428.591 799.452 428.589C799.726 428.587 799.997 428.517 800.244 428.382Z" fill="#6C63FF"/>
<path d="M854.794 482.673C854.46 482.051 854.126 481.428 853.792 480.806C853.464 480.085 853.015 479.444 852.471 478.919C852.353 478.806 852.217 478.722 852.071 478.669C851.924 478.617 851.77 478.598 851.617 478.613C851.464 478.628 851.315 478.678 851.179 478.759C851.043 478.84 850.922 478.95 850.823 479.084L850.806 479.109L850.846 479.464C851.741 480.556 852.35 481.909 852.606 483.373C852.682 484.009 852.656 484.668 852.723 485.306C852.73 485.603 852.788 485.894 852.894 486.165C853 486.436 853.152 486.68 853.342 486.883C853.867 487.283 854.485 486.694 854.859 485.974C855.194 485.383 855.344 484.681 855.286 483.981C855.202 483.511 855.035 483.066 854.794 482.673Z" fill="#6C63FF"/>
<path d="M860.034 483.483C860.097 482.9 860.056 482.309 859.911 481.745C859.887 480.982 860.065 480.229 860.421 479.582C860.775 478.972 861.043 478.303 861.216 477.599C861.289 477.278 861.276 476.94 861.178 476.628C861.067 476.345 860.8 476.216 860.646 476.44L860.975 476.681C860.531 476.591 860.075 476.616 859.641 476.755C859.393 476.863 859.172 477.037 858.996 477.263C858.82 477.488 858.694 477.759 858.63 478.052C858.575 478.508 858.487 478.959 858.364 479.398C858.168 479.857 857.789 480.009 857.55 480.412C857.388 480.769 857.306 481.166 857.311 481.568C857.317 481.971 857.411 482.365 857.584 482.715C857.883 483.289 858.36 483.715 858.92 483.911C859.321 484.075 859.85 484.084 860.034 483.483Z" fill="#6C63FF"/>
<path d="M869.365 486.688C869.51 487.117 869.704 487.524 869.943 487.896C870.389 488.408 870.997 488.093 871.539 487.968C872.03 487.88 872.534 487.945 872.996 488.156C873.458 488.367 873.861 488.716 874.163 489.167C873.953 487.974 873.494 486.855 872.826 485.906C872.157 484.956 871.298 484.203 870.321 483.71C869.051 483.21 867.713 482.972 866.369 483.007L866.14 483.074C866.725 485.011 868.561 484.968 869.365 486.688Z" fill="#6C63FF"/>
<path d="M829.844 490.651L829.847 490.659L829.915 490.513L829.844 490.651Z" fill="#6C63FF"/>
<path d="M828.428 493.77C828.12 494.408 827.854 495.071 827.634 495.755C827.343 496.863 827.15 498.001 827.059 499.153C826.987 499.808 826.965 500.644 827.325 500.963C827.429 501.042 827.553 501.074 827.677 501.055C827.8 501.036 827.912 500.967 827.994 500.86C828.194 500.619 828.358 500.342 828.479 500.04C829.187 498.651 829.737 497.165 830.115 495.618C830.51 493.977 830.416 492.233 829.847 490.659C829.374 491.696 828.901 492.733 828.428 493.77Z" fill="#6C63FF"/>
<path d="M814.772 410.678C814.997 410.928 815.282 411.098 815.59 411.166C815.899 411.235 816.218 411.199 816.509 411.063C817.112 410.764 817.665 410.348 818.143 409.835C818.54 409.501 818.876 409.083 819.134 408.605C819.276 408.319 819.367 408.004 819.402 407.677C819.437 407.351 819.415 407.021 819.337 406.704C819.226 406.401 819.049 406.135 818.823 405.931C818.597 405.728 818.329 405.593 818.044 405.54C817.242 405.269 816.44 404.999 815.638 404.728L816.218 404.133C815.621 403.768 814.961 404.445 814.588 405.283C814.349 405.83 814.182 406.414 814.093 407.017C813.966 407.647 813.961 408.3 814.078 408.933C814.196 409.565 814.433 410.16 814.772 410.678Z" fill="#6C63FF"/>
<path d="M828.932 405.267C829.158 405.551 829.471 405.726 829.806 405.757C830.142 405.788 830.475 405.673 830.738 405.434C830.965 405.24 831.153 404.994 831.291 404.712C831.428 404.43 831.512 404.118 831.537 403.797C831.594 403.079 831.282 402.281 830.836 402.219L830.938 401.546C830.08 401.37 829.024 401.334 828.564 402.521C828.409 402.975 828.361 403.468 828.426 403.95C828.49 404.432 828.665 404.886 828.932 405.267Z" fill="#6C63FF"/>
<path d="M744.399 477.222C743.575 476.38 742.923 475.341 742.489 474.181C742.055 473.02 741.85 471.766 741.888 470.505C741.926 469.245 742.206 468.009 742.709 466.885C743.212 465.761 743.925 464.776 744.798 464L736.099 434.979L749.652 438.986L755.828 465.929C756.878 467.686 757.324 469.82 757.083 471.927C756.843 474.033 755.931 475.966 754.521 477.359C753.112 478.752 751.302 479.507 749.436 479.482C747.569 479.457 745.776 478.653 744.396 477.223L744.399 477.222Z" fill="#FFB7B7"/>
<path d="M740.513 459.61L753.662 452.94L749.245 402.315L753.359 351.266L735.803 340.481L732.083 345.82V345.941L730.112 410.493L730.123 410.542L740.513 459.61Z" fill="#E6E7E8"/>
<path d="M941.949 610.471C934.514 606.58 926.495 601.994 917.89 596.715C873.387 569.406 818.662 526.805 763.795 476.758C708.929 426.712 660.477 375.2 627.363 331.712C611.233 310.527 599.614 292.384 592.83 277.787C585.647 262.334 584.199 251.383 588.524 245.239C596.95 233.27 624.392 244.051 645.929 255.202L645.142 257.172C615.566 241.858 595.986 238.101 590.008 246.593C582.393 257.408 596.533 287.916 628.8 330.294C661.841 373.687 710.205 425.103 764.984 475.07C819.764 525.036 874.387 567.561 918.793 594.81C962.158 621.422 991.398 630.483 999.012 619.667C1005.33 610.687 996.711 588.071 974.732 555.983L976.231 554.653C992.201 577.968 1009.38 608.408 1000.5 621.021C996.171 627.164 986.466 627.941 971.65 623.329C963.205 620.7 953.266 616.395 941.949 610.471Z" fill="#233D8C"/>
<path d="M657.242 464.546C636.744 453.817 618.011 443.042 601.604 432.496C580.158 418.712 563.859 406.067 553.161 394.914C541.834 383.105 537.237 373.345 539.498 365.904C543.901 351.409 572.93 351.068 596.507 353.334L596.346 355.491C563.969 352.379 544.418 356.328 541.294 366.612C537.315 379.71 559.638 403.037 602.538 430.611C646.467 458.846 707.195 488.777 773.54 514.888C839.883 541 903.884 560.163 953.751 568.845C1002.45 577.324 1032.67 574.675 1036.64 561.577C1039.95 550.702 1025.15 532.698 994.978 510.881L995.997 509.055C1017.92 524.907 1043.08 547.01 1038.44 562.284C1036.18 569.725 1027.27 574.168 1011.95 575.491C997.488 576.74 977.809 575.223 953.464 570.984C903.486 562.283 839.367 543.087 772.918 516.933C731.233 500.526 691.746 482.607 657.242 464.546Z" fill="#233D8C"/>
<path d="M688.341 354.403C694.461 354.403 699.422 348.757 699.422 341.791C699.422 334.825 694.461 329.179 688.341 329.179C682.222 329.179 677.261 334.825 677.261 341.791C677.261 348.757 682.222 354.403 688.341 354.403Z" fill="#E6E6E6"/>
<path d="M906.742 508.343C910.488 508.343 913.525 504.886 913.525 500.622C913.525 496.358 910.488 492.901 906.742 492.901C902.996 492.901 899.959 496.358 899.959 500.622C899.959 504.886 902.996 508.343 906.742 508.343Z" fill="#FF6584"/>
<path d="M575.011 576.114C581.131 576.114 586.092 570.467 586.092 563.502C586.092 556.536 581.131 550.89 575.011 550.89C568.892 550.89 563.931 556.536 563.931 563.502C563.931 570.467 568.892 576.114 575.011 576.114Z" fill="#E6E6E6"/>
</g>
<defs>
<linearGradient id="paint0_linear_13_121" x1="438.272" y1="341.196" x2="557.273" y2="394.56" gradientUnits="userSpaceOnUse">
<stop offset="0.02" stop-color="white" stop-opacity="0"/>
<stop offset="0.32" stop-color="white" stop-opacity="0.39"/>
<stop offset="0.68" stop-color="white" stop-opacity="0.68"/>
<stop offset="1" stop-color="white"/>
</linearGradient>
<linearGradient id="paint1_linear_13_121" x1="321.766" y1="407.305" x2="414.908" y2="338.716" gradientUnits="userSpaceOnUse">
<stop offset="0.01"/>
<stop offset="0.13" stop-opacity="0.69"/>
<stop offset="1" stop-opacity="0"/>
</linearGradient>
<linearGradient id="paint2_linear_13_121" x1="415.057" y1="257.099" x2="406.595" y2="518.741" gradientUnits="userSpaceOnUse">
<stop offset="0.01"/>
<stop offset="0.13" stop-opacity="0.69"/>
<stop offset="1" stop-opacity="0"/>
</linearGradient>
<linearGradient id="paint3_linear_13_121" x1="417.348" y1="190.203" x2="477.521" y2="190.203" gradientUnits="userSpaceOnUse">
<stop offset="0.02" stop-color="white" stop-opacity="0"/>
<stop offset="0.32" stop-color="white" stop-opacity="0.39"/>
<stop offset="0.68" stop-color="white" stop-opacity="0.68"/>
<stop offset="1" stop-color="white"/>
</linearGradient>
<clipPath id="clip0_13_121">
<rect width="502" height="432" fill="white" transform="translate(537 240)"/>
</clipPath>
</defs>
</svg>
