<svg width="849" height="470" viewBox="0 0 849 470" fill="none" xmlns="http://www.w3.org/2000/svg">
<g clip-path="url(#clip0_103_41)">
<path d="M436.703 467.04C423.286 469.016 409.708 469.673 396.163 469C363.503 467.35 331.383 457.85 303.933 439.99C291.763 432.07 280.153 422.34 273.853 409.27C265.303 391.52 268.293 369.05 280.503 353.59C284.957 348.014 290.435 343.34 296.643 339.82C297.563 339.3 298.503 338.8 299.453 338.32C309.798 333.118 321.417 330.991 332.933 332.19C352.513 334.33 370.583 346.29 381.023 363C390.323 377.9 393.563 395.48 395.473 413.1C395.833 416.42 396.143 419.75 396.443 423.06C394.779 432.65 392.163 442.05 388.633 451.12C388.453 451.562 388.306 452.017 388.193 452.48C390.193 456.82 392.096 461.2 393.903 465.62C395.601 466.542 397.502 467.023 399.433 467.02H436.623L436.703 467.04Z" fill="#F2F2F2"/>
<path d="M393.133 467.89C392.886 468 392.62 468.06 392.35 468.066C392.081 468.072 391.812 468.025 391.561 467.926C391.31 467.827 391.08 467.68 390.887 467.491C390.693 467.303 390.539 467.078 390.433 466.83C390.273 466.45 390.123 466.07 389.963 465.69C388.523 462.19 387.013 458.723 385.433 455.29C365.205 410.984 335.033 371.94 297.263 341.19C297.046 341.038 296.875 340.831 296.766 340.59C296.657 340.349 296.614 340.083 296.643 339.82C296.698 339.519 296.82 339.234 297.001 338.986C297.181 338.739 297.415 338.535 297.686 338.391C297.956 338.247 298.255 338.165 298.561 338.153C298.867 338.141 299.172 338.198 299.453 338.32C299.604 338.388 299.745 338.476 299.873 338.58C316.033 351.742 330.858 366.463 344.133 382.53C357.411 398.582 369.102 415.883 379.043 434.19C381.753 439.19 384.326 444.26 386.763 449.4C387.243 450.42 387.723 451.45 388.193 452.48C390.193 456.82 392.096 461.2 393.903 465.62C393.933 465.69 393.963 465.77 393.993 465.84C394.085 466.029 394.136 466.236 394.142 466.446C394.148 466.656 394.108 466.866 394.027 467.06C393.946 467.254 393.824 467.428 393.67 467.571C393.515 467.714 393.332 467.823 393.133 467.89Z" fill="white"/>
<path d="M260.503 336C282.042 336 299.503 318.539 299.503 297C299.503 275.461 282.042 258 260.503 258C238.964 258 221.503 275.461 221.503 297C221.503 318.539 238.964 336 260.503 336Z" fill="#1C4966"/>
<path d="M256.637 311.878C255.76 311.879 254.906 311.596 254.204 311.069L254.16 311.037L244.995 304.019C244.57 303.694 244.214 303.289 243.946 302.826C243.678 302.363 243.504 301.852 243.433 301.321C243.363 300.791 243.398 300.252 243.536 299.735C243.674 299.219 243.912 298.734 244.238 298.309C244.563 297.885 244.969 297.529 245.432 297.261C245.895 296.993 246.406 296.819 246.936 296.749C247.467 296.679 248.006 296.714 248.522 296.852C249.039 296.991 249.524 297.229 249.948 297.555L255.884 302.107L269.914 283.811C270.239 283.387 270.645 283.031 271.108 282.763C271.571 282.496 272.082 282.322 272.612 282.252C273.142 282.182 273.681 282.217 274.197 282.355C274.714 282.493 275.198 282.732 275.622 283.057L275.535 283.176L275.625 283.059C276.481 283.717 277.041 284.688 277.182 285.758C277.323 286.828 277.034 287.911 276.378 288.768L259.877 310.289C259.495 310.784 259.004 311.186 258.443 311.461C257.881 311.737 257.263 311.879 256.637 311.878V311.878Z" fill="white"/>
<path d="M847.485 469.443H1.19066C0.875467 469.442 0.573504 469.316 0.350952 469.093C0.1284 468.87 0.00341797 468.567 0.00341797 468.252C0.00341797 467.937 0.1284 467.635 0.350952 467.411C0.573504 467.188 0.875467 467.062 1.19066 467.062H847.485C847.8 467.062 848.102 467.188 848.324 467.411C848.547 467.635 848.672 467.937 848.672 468.252C848.672 468.567 848.547 468.87 848.324 469.093C848.102 469.316 847.8 469.442 847.485 469.443V469.443Z" fill="#3F3D56"/>
<path d="M165.546 135.944C181.529 135.944 194.486 122.987 194.486 107.004C194.486 91.0213 181.529 78.0645 165.546 78.0645C149.563 78.0645 136.606 91.0213 136.606 107.004C136.606 122.987 149.563 135.944 165.546 135.944Z" fill="#2F2E41"/>
<path d="M142.957 91.4009C147.633 86.7243 148.581 80.0898 145.074 76.5824C141.566 73.0749 134.932 74.0227 130.255 78.6993C125.578 83.3759 124.631 90.0104 128.138 93.5178C131.646 97.0252 138.28 96.0775 142.957 91.4009Z" fill="#2F2E41"/>
<path d="M195.709 82.2104C197.657 77.6489 194.306 71.845 188.224 69.2469C182.142 66.6489 175.632 68.2406 173.684 72.8022C171.735 77.3637 175.086 83.1676 181.168 85.7657C187.25 88.3637 193.76 86.772 195.709 82.2104Z" fill="#2F2E41"/>
<path d="M246.132 274.087C246.863 272.698 247.28 271.164 247.355 269.596C247.429 268.027 247.159 266.461 246.563 265.008C245.967 263.555 245.059 262.25 243.904 261.186C242.75 260.122 241.375 259.324 239.879 258.848L198.062 170.389L178.935 183.802L226.053 266.536C225.421 269.104 225.752 271.814 226.984 274.154C228.216 276.493 230.263 278.299 232.738 279.23C235.213 280.161 237.944 280.151 240.412 279.204C242.881 278.256 244.916 276.435 246.132 274.087V274.087Z" fill="#FFB8B8"/>
<path d="M207.652 185.146L185.443 195.077C184.812 195.36 184.126 195.503 183.434 195.497C182.742 195.49 182.059 195.335 181.432 195.041C180.806 194.747 180.25 194.322 179.802 193.794C179.355 193.266 179.026 192.647 178.839 191.981L172.29 168.628C170.863 165.387 170.779 161.712 172.057 158.409C173.335 155.106 175.871 152.445 179.108 151.009C182.345 149.573 186.02 149.479 189.326 150.748C192.633 152.016 195.301 154.545 196.746 157.778L209.747 178.16C210.119 178.744 210.361 179.401 210.457 180.086C210.552 180.772 210.498 181.47 210.299 182.133C210.101 182.796 209.761 183.408 209.304 183.928C208.847 184.448 208.284 184.864 207.652 185.146V185.146Z" fill="#CCCCCC"/>
<path d="M105.084 282.857C106.614 282.502 108.048 281.815 109.283 280.846C110.519 279.877 111.528 278.649 112.237 277.248C112.947 275.847 113.341 274.307 113.391 272.737C113.442 271.168 113.147 269.606 112.529 268.162L152.131 178.69L129.477 172.984L97.6727 262.727C95.3163 263.926 93.4819 265.949 92.517 268.411C91.5522 270.872 91.5238 273.603 92.4374 276.084C93.351 278.565 95.1431 280.625 97.474 281.873C99.8049 283.122 102.513 283.472 105.084 282.857H105.084Z" fill="#FFB8B8"/>
<path d="M94.2891 445.033L105.809 449.227L127.47 406.789L110.467 400.599L94.2891 445.033Z" fill="#FFB8B8"/>
<path d="M124.131 468.014L87.9256 454.831L93.0188 440.843L115.236 448.932C118.946 450.283 121.967 453.052 123.635 456.631C125.304 460.209 125.482 464.304 124.131 468.014V468.014V468.014Z" fill="#2F2E41"/>
<path d="M121.538 420.611C120.831 420.612 120.133 420.455 119.494 420.153L106.255 413.882C105.169 413.372 104.314 412.475 103.857 411.366C103.4 410.258 103.375 409.018 103.786 407.892L141.15 304.424C141.459 303.567 142.006 302.815 142.725 302.256C143.444 301.697 144.308 301.354 145.214 301.266C146.121 301.178 147.034 301.349 147.848 301.759C148.662 302.169 149.342 302.801 149.811 303.582L169.573 336.519C170.013 337.253 170.249 338.091 170.259 338.946C170.268 339.802 170.049 340.644 169.625 341.387L125.738 418.189C125.313 418.927 124.7 419.539 123.963 419.964C123.226 420.389 122.389 420.613 121.538 420.611V420.611Z" fill="#2F2E41"/>
<path d="M166.464 138.475C180.028 138.475 191.025 127.478 191.025 113.914C191.025 100.349 180.028 89.3525 166.464 89.3525C152.899 89.3525 141.903 100.349 141.903 113.914C141.903 127.478 152.899 138.475 166.464 138.475Z" fill="#FFB8B8"/>
<path d="M201.211 225.583L157.723 213.624L134.593 167.365C133.482 165.143 132.957 162.673 133.069 160.191C133.181 157.709 133.925 155.297 135.231 153.183C136.537 151.07 138.362 149.325 140.532 148.115C142.703 146.906 145.146 146.27 147.631 146.271H182.23C185.821 146.268 189.287 147.594 191.96 149.992C201.241 158.306 220.741 182.277 201.399 225.165L201.211 225.583Z" fill="#CCCCCC"/>
<path d="M146.77 194.692L124.737 184.379C124.11 184.085 123.554 183.66 123.106 183.132C122.658 182.605 122.329 181.987 122.142 181.32C121.955 180.654 121.913 179.955 122.02 179.271C122.127 178.587 122.38 177.934 122.763 177.357L136.153 157.135C137.673 153.936 140.399 151.47 143.734 150.278C147.068 149.087 150.74 149.266 153.943 150.776C157.146 152.287 159.619 155.006 160.82 158.338C162.021 161.669 161.853 165.341 160.351 168.548L153.427 191.711C153.229 192.374 152.889 192.987 152.433 193.507C151.976 194.027 151.413 194.443 150.781 194.726C150.15 195.009 149.464 195.152 148.772 195.147C148.08 195.141 147.397 194.986 146.77 194.692V194.692Z" fill="#CCCCCC"/>
<path d="M173.428 456.629H185.687L191.52 409.341L173.425 409.342L173.428 456.629Z" fill="#FFB8B8"/>
<path d="M209.332 468.012L170.801 468.013L170.8 453.127L194.444 453.126C198.392 453.125 202.179 454.694 204.971 457.485C207.763 460.277 209.331 464.063 209.332 468.012V468.012Z" fill="#2F2E41"/>
<path d="M178.057 438.61C176.954 438.611 175.885 438.233 175.03 437.538C174.174 436.843 173.584 435.874 173.359 434.795C169.835 418.191 151.533 333.144 137.248 289.337C122.714 244.766 147.466 224.465 152.576 220.848C153.12 220.464 153.552 219.942 153.828 219.335L157.541 211.169C157.926 210.326 158.545 209.612 159.324 209.111C160.104 208.609 161.011 208.343 161.938 208.343H161.968C189.796 208.509 199.152 217.281 201.882 221.046C202.285 221.606 202.561 222.248 202.691 222.926C202.821 223.604 202.802 224.302 202.636 224.972L185.028 297.616C184.919 298.067 184.894 298.534 184.955 298.993L202.474 430.893C202.558 431.527 202.515 432.171 202.347 432.789C202.18 433.406 201.891 433.984 201.498 434.488C201.105 434.993 200.616 435.414 200.058 435.727C199.5 436.041 198.886 436.24 198.251 436.313L178.622 438.577C178.435 438.599 178.246 438.61 178.057 438.61V438.61Z" fill="#2F2E41"/>
<path d="M140.656 98.4648C146.268 102.333 152.93 104.392 159.746 104.365C157.315 106.051 154.547 107.189 151.633 107.703C160.696 109.647 170.063 109.699 179.147 107.857C181.166 107.534 183.114 106.864 184.907 105.879C185.8 105.38 186.578 104.699 187.19 103.88C187.803 103.061 188.236 102.122 188.462 101.124C189.065 97.6758 186.378 94.5428 183.586 92.4313C179.31 89.2477 174.381 87.0543 169.153 86.0098C163.926 84.9652 158.532 85.0957 153.361 86.3916C149.985 87.2643 146.603 88.7388 144.41 91.4502C142.217 94.1616 141.567 98.3417 143.657 101.134L140.656 98.4648Z" fill="#2F2E41"/>
<path d="M591.503 205C598.683 205 604.503 199.18 604.503 192C604.503 184.82 598.683 179 591.503 179C584.323 179 578.503 184.82 578.503 192C578.503 199.18 584.323 205 591.503 205Z" fill="#1C4966"/>
<path d="M590.214 196.959C589.922 196.96 589.637 196.865 589.403 196.69L589.389 196.679L586.334 194.34C586.192 194.232 586.072 194.096 585.983 193.942C585.893 193.788 585.835 193.617 585.811 193.44C585.787 193.263 585.799 193.083 585.845 192.911C585.891 192.738 585.97 192.577 586.079 192.435C586.188 192.293 586.323 192.174 586.478 192.085C586.632 191.996 586.803 191.938 586.98 191.915C587.157 191.891 587.337 191.903 587.509 191.95C587.682 191.996 587.843 192.076 587.985 192.185L589.963 193.702L594.64 187.604C594.748 187.462 594.883 187.344 595.038 187.254C595.192 187.165 595.363 187.107 595.539 187.084C595.716 187.061 595.896 187.072 596.068 187.118C596.24 187.164 596.401 187.244 596.543 187.352L596.514 187.392L596.544 187.353C596.829 187.572 597.016 187.896 597.063 188.253C597.11 188.609 597.013 188.97 596.795 189.256L591.294 196.43C591.167 196.595 591.003 196.729 590.816 196.82C590.629 196.912 590.423 196.96 590.214 196.959V196.959Z" fill="white"/>
<path d="M591.503 243C598.683 243 604.503 237.18 604.503 230C604.503 222.82 598.683 217 591.503 217C584.323 217 578.503 222.82 578.503 230C578.503 237.18 584.323 243 591.503 243Z" fill="#1C4966"/>
<path d="M590.214 234.959C589.922 234.96 589.637 234.865 589.403 234.69L589.389 234.679L586.334 232.34C586.192 232.232 586.072 232.096 585.983 231.942C585.893 231.788 585.835 231.617 585.811 231.44C585.787 231.263 585.799 231.083 585.845 230.911C585.891 230.738 585.97 230.577 586.079 230.435C586.188 230.293 586.323 230.174 586.478 230.085C586.632 229.996 586.803 229.938 586.98 229.915C587.157 229.891 587.337 229.903 587.509 229.95C587.682 229.996 587.843 230.076 587.985 230.185L589.963 231.702L594.64 225.604C594.748 225.462 594.883 225.344 595.038 225.254C595.192 225.165 595.363 225.107 595.539 225.084C595.716 225.061 595.896 225.072 596.068 225.118C596.24 225.164 596.401 225.244 596.543 225.352L596.514 225.392L596.544 225.353C596.829 225.572 597.016 225.896 597.063 226.253C597.11 226.609 597.013 226.97 596.795 227.256L591.294 234.43C591.167 234.595 591.003 234.729 590.816 234.82C590.629 234.912 590.423 234.96 590.214 234.959V234.959Z" fill="white"/>
<path d="M598.503 287C605.683 287 611.503 281.18 611.503 274C611.503 266.82 605.683 261 598.503 261C591.323 261 585.503 266.82 585.503 274C585.503 281.18 591.323 287 598.503 287Z" fill="#1C4966"/>
<path d="M597.214 278.959C596.922 278.96 596.637 278.865 596.403 278.69L596.389 278.679L593.334 276.34C593.192 276.232 593.072 276.096 592.983 275.942C592.893 275.788 592.835 275.617 592.811 275.44C592.787 275.263 592.799 275.083 592.845 274.911C592.891 274.738 592.97 274.577 593.079 274.435C593.188 274.293 593.323 274.174 593.478 274.085C593.632 273.996 593.803 273.938 593.98 273.915C594.157 273.891 594.337 273.903 594.509 273.95C594.682 273.996 594.843 274.076 594.985 274.185L596.963 275.702L601.64 269.604C601.748 269.462 601.883 269.344 602.038 269.254C602.192 269.165 602.363 269.107 602.539 269.084C602.716 269.061 602.896 269.072 603.068 269.118C603.24 269.164 603.401 269.244 603.543 269.352L603.514 269.392L603.544 269.353C603.829 269.572 604.016 269.896 604.063 270.253C604.11 270.609 604.013 270.97 603.795 271.256L598.294 278.43C598.167 278.595 598.003 278.729 597.816 278.82C597.629 278.912 597.423 278.96 597.214 278.959V278.959Z" fill="white"/>
<path d="M723.859 382.539C723.724 382.539 723.639 382.536 723.61 382.534L707.47 382.536V380.156H723.668C724.043 380.17 731.695 380.386 738.745 371.831C749.251 359.082 757.878 327.522 739.317 249.567C714.36 144.747 735.176 52.1437 745.283 17.1953C745.781 15.4663 745.87 13.6451 745.544 11.8757C745.217 10.1063 744.483 8.43721 743.4 7.00021C742.317 5.5632 740.915 4.3977 739.304 3.5958C737.693 2.7939 735.918 2.37759 734.119 2.37972H493.085C491.252 2.38218 489.446 2.81667 487.813 3.64796C486.18 4.47924 484.766 5.68388 483.685 7.1641C479.403 13.0541 473.527 24.3693 469.85 44.8291L467.508 44.4085C471.265 23.5042 477.332 11.8561 481.76 5.76508C483.062 3.98149 484.765 2.52993 486.733 1.52824C488.701 0.526545 490.877 0.00296261 493.085 6.47662e-06H734.119C736.287 -0.00208019 738.426 0.500081 740.367 1.46682C742.308 2.43356 743.997 3.83838 745.302 5.5703C746.607 7.30223 747.491 9.31379 747.884 11.4461C748.278 13.5784 748.17 15.773 747.569 17.8565C737.514 52.6235 716.806 144.746 741.633 249.017C760.454 328.067 751.406 360.312 740.502 373.441C733.309 382.101 725.384 382.539 723.859 382.539Z" fill="#E6E6E6"/>
<path d="M680.43 425.969C680.295 425.969 680.21 425.966 680.18 425.964L664.041 425.966V423.586H680.239C680.616 423.598 688.265 423.815 695.315 415.261C705.821 402.512 714.449 370.951 695.888 292.997C670.931 188.177 691.746 95.5733 701.854 60.625C702.352 58.896 702.441 57.0748 702.114 55.3054C701.787 53.536 701.053 51.8669 699.97 50.4299C698.888 48.9929 697.485 47.8274 695.875 47.0255C694.264 46.2236 692.489 45.8073 690.689 45.8094H449.655C447.823 45.8119 446.017 46.2464 444.383 47.0776C442.75 47.9089 441.336 49.1136 440.256 50.5938C435.974 56.4838 430.098 67.799 426.421 88.2588L424.079 87.8382C427.836 66.9339 433.903 55.2858 438.331 49.1948C439.632 47.4112 441.336 45.9596 443.304 44.9579C445.271 43.9562 447.447 43.4327 449.655 43.4297H690.689C692.858 43.4276 694.997 43.9298 696.938 44.8965C698.878 45.8633 700.568 47.2681 701.873 49C703.177 50.7319 704.061 52.7435 704.455 54.8758C704.848 57.0081 704.74 59.2027 704.14 61.2862C694.084 96.0532 673.377 188.176 698.203 292.446C717.025 371.497 707.976 403.741 697.072 416.871C689.879 425.531 681.955 425.969 680.43 425.969Z" fill="#CCCCCC"/>
<path d="M654.773 335.88C629.943 231.61 650.653 139.48 660.713 104.72C661.312 102.637 661.419 100.443 661.025 98.3106C660.63 96.1788 659.746 94.1676 658.442 92.4358C657.138 90.704 655.449 89.2989 653.509 88.3313C651.569 87.3638 649.431 86.8602 647.263 86.8604H406.223C404.016 86.8625 401.841 87.3852 399.874 88.3861C397.907 89.3869 396.204 90.8376 394.903 92.6204C385.173 106 364.983 150.37 387.533 273.14C399.593 338.82 399.413 383.6 395.473 413.1C393.263 429.71 389.853 441.47 386.763 449.4L386.433 450.24C385.782 451.845 385.443 453.559 385.433 455.29C385.41 457.246 385.802 459.183 386.583 460.976C387.364 462.769 388.516 464.375 389.963 465.69C390.906 466.575 391.974 467.316 393.133 467.89C394.095 468.381 395.112 468.754 396.163 469C397.233 469.262 398.331 469.393 399.433 469.39H636.753C636.783 469.39 636.863 469.4 637.003 469.4C638.523 469.4 646.453 468.96 653.643 460.3C664.543 447.17 673.593 414.93 654.773 335.88ZM651.883 458.69C644.833 467.25 637.183 467.03 636.813 467.02H399.433C397.533 467.02 395.661 466.554 393.982 465.663C392.304 464.772 390.869 463.484 389.803 461.91C388.865 460.55 388.236 459.002 387.957 457.373C387.679 455.744 387.76 454.075 388.193 452.48C388.306 452.017 388.453 451.562 388.633 451.12C392.163 442.05 394.779 432.65 396.443 423.06C402.083 392.31 403.133 344.86 389.873 272.71C367.493 150.85 387.283 107.15 396.823 94.0204C397.905 92.5423 399.32 91.3395 400.953 90.5092C402.586 89.6788 404.391 89.2442 406.223 89.2404H647.263C649.061 89.2391 650.835 89.6558 652.445 90.4577C654.054 91.2596 655.456 92.4246 656.538 93.8608C657.62 95.297 658.354 96.9651 658.681 98.7335C659.008 100.502 658.92 102.322 658.423 104.05C648.313 139 627.503 231.61 652.463 336.43C671.023 414.38 662.393 445.94 651.883 458.69Z" fill="#3F3D56"/>
<path d="M540.263 200.4H416.076C413.552 200.4 411.131 199.397 409.346 197.612C407.561 195.827 406.558 193.406 406.558 190.881C406.558 188.357 407.561 185.935 409.346 184.15C411.131 182.365 413.552 181.362 416.076 181.362H540.263C542.787 181.362 545.208 182.365 546.993 184.15C548.778 185.935 549.781 188.357 549.781 190.881C549.781 193.406 548.778 195.827 546.993 197.612C545.208 199.397 542.787 200.4 540.263 200.4V200.4Z" fill="#CCCCCC"/>
<path d="M540.263 241.4H416.076C413.552 241.4 411.131 240.397 409.346 238.612C407.561 236.827 406.558 234.406 406.558 231.881C406.558 229.357 407.561 226.935 409.346 225.15C411.131 223.365 413.552 222.362 416.076 222.362H540.263C542.787 222.362 545.208 223.365 546.993 225.15C548.778 226.935 549.781 229.357 549.781 231.881C549.781 234.406 548.778 236.827 546.993 238.612C545.208 240.397 542.787 241.4 540.263 241.4V241.4Z" fill="#CCCCCC"/>
<path d="M550.263 283.4H426.076C423.552 283.4 421.131 282.397 419.346 280.612C417.561 278.827 416.558 276.406 416.558 273.881C416.558 271.357 417.561 268.935 419.346 267.15C421.131 265.365 423.552 264.362 426.076 264.362H550.263C552.787 264.362 555.208 265.365 556.993 267.15C558.778 268.935 559.781 271.357 559.781 273.881C559.781 276.406 558.778 278.827 556.993 280.612C555.208 282.397 552.787 283.4 550.263 283.4V283.4Z" fill="#CCCCCC"/>
<path d="M557.263 327.4H433.076C430.552 327.4 428.131 326.397 426.346 324.612C424.561 322.827 423.558 320.406 423.558 317.881C423.558 315.357 424.561 312.935 426.346 311.15C428.131 309.365 430.552 308.362 433.076 308.362H557.263C559.787 308.362 562.208 309.365 563.993 311.15C565.778 312.935 566.781 315.357 566.781 317.881C566.781 320.406 565.778 322.827 563.993 324.612C562.208 326.397 559.787 327.4 557.263 327.4Z" fill="#CCCCCC"/>
<path d="M557.315 126.491H468.076C466.826 126.492 465.587 126.247 464.431 125.769C463.275 125.291 462.224 124.59 461.339 123.706C460.454 122.822 459.752 121.772 459.273 120.617C458.794 119.461 458.548 118.223 458.548 116.972C458.548 115.721 458.794 114.483 459.273 113.327C459.752 112.171 460.454 111.122 461.339 110.238C462.224 109.354 463.275 108.653 464.431 108.175C465.587 107.697 466.826 107.452 468.076 107.453H557.315C559.84 107.453 562.261 108.456 564.046 110.241C565.831 112.026 566.834 114.447 566.834 116.972C566.834 119.496 565.831 121.918 564.046 123.703C562.261 125.488 559.84 126.491 557.315 126.491Z" fill="#1C4966"/>
<path d="M606.503 330.882C613.683 330.882 619.503 325.062 619.503 317.882C619.503 310.702 613.683 304.882 606.503 304.882C599.323 304.882 593.503 310.702 593.503 317.882C593.503 325.062 599.323 330.882 606.503 330.882Z" fill="#CCCCCC"/>
<path d="M563.263 370.4H439.076C436.552 370.4 434.131 369.397 432.346 367.612C430.561 365.827 429.558 363.406 429.558 360.881C429.558 358.357 430.561 355.935 432.346 354.15C434.131 352.365 436.552 351.362 439.076 351.362H563.263C565.787 351.362 568.208 352.365 569.993 354.15C571.778 355.935 572.781 358.357 572.781 360.881C572.781 363.406 571.778 365.827 569.993 367.612C568.208 369.397 565.787 370.4 563.263 370.4Z" fill="#CCCCCC"/>
<path d="M612.503 373.882C619.683 373.882 625.503 368.062 625.503 360.882C625.503 353.702 619.683 347.882 612.503 347.882C605.323 347.882 599.503 353.702 599.503 360.882C599.503 368.062 605.323 373.882 612.503 373.882Z" fill="#CCCCCC"/>
<path d="M414.744 153.616C414.605 153.733 414.424 153.829 414.2 153.904C413.987 153.968 413.736 154 413.448 154C413.064 154 412.744 153.952 412.488 153.856C412.243 153.76 412.083 153.595 412.008 153.36C411.709 152.421 411.464 151.664 411.272 151.088C411.08 150.501 410.931 149.989 410.824 149.552H410.744C410.712 150.181 410.685 150.757 410.664 151.28C410.653 151.792 410.643 152.293 410.632 152.784C410.632 153.275 410.621 153.771 410.6 154.272C410.589 154.773 410.568 155.328 410.536 155.936C410.397 155.989 410.216 156.032 409.992 156.064C409.768 156.107 409.544 156.128 409.32 156.128C408.851 156.128 408.483 156.053 408.216 155.904C407.96 155.755 407.832 155.483 407.832 155.088L408.296 146.928C408.381 146.789 408.568 146.64 408.856 146.48C409.144 146.32 409.549 146.24 410.072 146.24C410.637 146.24 411.08 146.331 411.4 146.512C411.72 146.683 411.955 146.965 412.104 147.36C412.2 147.616 412.301 147.909 412.408 148.24C412.525 148.571 412.637 148.912 412.744 149.264C412.861 149.616 412.973 149.968 413.08 150.32C413.187 150.661 413.283 150.971 413.368 151.248H413.448C413.704 150.352 413.96 149.488 414.216 148.656C414.472 147.813 414.707 147.109 414.92 146.544C415.08 146.459 415.283 146.389 415.528 146.336C415.784 146.272 416.067 146.24 416.376 146.24C416.899 146.24 417.325 146.32 417.656 146.48C417.987 146.629 418.179 146.848 418.232 147.136C418.275 147.349 418.317 147.68 418.36 148.128C418.413 148.565 418.467 149.061 418.52 149.616C418.573 150.171 418.627 150.757 418.68 151.376C418.733 151.995 418.781 152.592 418.824 153.168C418.877 153.733 418.92 154.256 418.952 154.736C418.984 155.205 419.005 155.568 419.016 155.824C418.835 155.931 418.643 156.005 418.44 156.048C418.248 156.101 417.997 156.128 417.688 156.128C417.283 156.128 416.941 156.059 416.664 155.92C416.387 155.781 416.237 155.509 416.216 155.104C416.152 153.941 416.109 152.896 416.088 151.968C416.077 151.04 416.056 150.261 416.024 149.632H415.944C415.837 150.048 415.683 150.571 415.48 151.2C415.277 151.829 415.032 152.635 414.744 153.616ZM420.518 146.064C420.518 145.659 420.651 145.317 420.918 145.04C421.195 144.763 421.558 144.624 422.006 144.624C422.454 144.624 422.811 144.763 423.078 145.04C423.355 145.317 423.494 145.659 423.494 146.064C423.494 146.469 423.355 146.811 423.078 147.088C422.811 147.365 422.454 147.504 422.006 147.504C421.558 147.504 421.195 147.365 420.918 147.088C420.651 146.811 420.518 146.469 420.518 146.064ZM423.366 155.984C423.249 156.005 423.073 156.032 422.838 156.064C422.614 156.107 422.385 156.128 422.15 156.128C421.915 156.128 421.702 156.112 421.51 156.08C421.329 156.048 421.174 155.984 421.046 155.888C420.918 155.792 420.817 155.664 420.742 155.504C420.678 155.333 420.646 155.115 420.646 154.848V148.336C420.763 148.315 420.934 148.288 421.158 148.256C421.393 148.213 421.627 148.192 421.862 148.192C422.097 148.192 422.305 148.208 422.486 148.24C422.678 148.272 422.838 148.336 422.966 148.432C423.094 148.528 423.19 148.661 423.254 148.832C423.329 148.992 423.366 149.205 423.366 149.472V155.984ZM427.818 153.328C427.818 153.605 427.903 153.803 428.074 153.92C428.255 154.037 428.506 154.096 428.826 154.096C428.986 154.096 429.151 154.085 429.322 154.064C429.492 154.032 429.642 153.995 429.77 153.952C429.866 154.069 429.946 154.203 430.01 154.352C430.084 154.491 430.122 154.661 430.122 154.864C430.122 155.269 429.967 155.6 429.658 155.856C429.359 156.112 428.826 156.24 428.058 156.24C427.119 156.24 426.394 156.027 425.882 155.6C425.38 155.173 425.13 154.48 425.13 153.52V146.672C425.247 146.64 425.412 146.608 425.626 146.576C425.85 146.533 426.084 146.512 426.33 146.512C426.799 146.512 427.162 146.597 427.418 146.768C427.684 146.928 427.818 147.275 427.818 147.808V148.832H429.914C429.978 148.949 430.036 149.099 430.09 149.28C430.154 149.451 430.186 149.643 430.186 149.856C430.186 150.229 430.1 150.501 429.93 150.672C429.77 150.832 429.551 150.912 429.274 150.912H427.818V153.328ZM431.44 146.064C431.44 145.659 431.573 145.317 431.84 145.04C432.117 144.763 432.48 144.624 432.928 144.624C433.376 144.624 433.733 144.763 434 145.04C434.277 145.317 434.416 145.659 434.416 146.064C434.416 146.469 434.277 146.811 434 147.088C433.733 147.365 433.376 147.504 432.928 147.504C432.48 147.504 432.117 147.365 431.84 147.088C431.573 146.811 431.44 146.469 431.44 146.064ZM434.288 155.984C434.171 156.005 433.995 156.032 433.76 156.064C433.536 156.107 433.307 156.128 433.072 156.128C432.837 156.128 432.624 156.112 432.432 156.08C432.251 156.048 432.096 155.984 431.968 155.888C431.84 155.792 431.739 155.664 431.664 155.504C431.6 155.333 431.568 155.115 431.568 154.848V148.336C431.685 148.315 431.856 148.288 432.08 148.256C432.315 148.213 432.549 148.192 432.784 148.192C433.019 148.192 433.227 148.208 433.408 148.24C433.6 148.272 433.76 148.336 433.888 148.432C434.016 148.528 434.112 148.661 434.176 148.832C434.251 148.992 434.288 149.205 434.288 149.472V155.984ZM439.811 147.984C440.419 147.984 440.969 148.064 441.459 148.224C441.961 148.373 442.382 148.571 442.723 148.816C442.937 148.965 443.102 149.131 443.219 149.312C443.347 149.493 443.411 149.728 443.411 150.016V155.616C443.411 156.181 443.305 156.667 443.091 157.072C442.878 157.488 442.585 157.829 442.211 158.096C441.849 158.373 441.417 158.576 440.915 158.704C440.425 158.832 439.897 158.896 439.331 158.896C438.361 158.896 437.598 158.763 437.043 158.496C436.489 158.24 436.211 157.819 436.211 157.232C436.211 156.987 436.259 156.768 436.355 156.576C436.462 156.395 436.579 156.256 436.707 156.16C437.017 156.331 437.363 156.475 437.747 156.592C438.142 156.709 438.547 156.768 438.963 156.768C439.539 156.768 439.998 156.672 440.339 156.48C440.681 156.288 440.851 155.979 440.851 155.552V155.296C440.414 155.488 439.881 155.584 439.251 155.584C438.771 155.584 438.313 155.515 437.875 155.376C437.449 155.227 437.07 155.003 436.739 154.704C436.419 154.395 436.158 154 435.955 153.52C435.763 153.04 435.667 152.469 435.667 151.808C435.667 151.157 435.769 150.592 435.971 150.112C436.185 149.632 436.473 149.237 436.835 148.928C437.209 148.608 437.646 148.373 438.147 148.224C438.659 148.064 439.214 147.984 439.811 147.984ZM440.803 150.304C440.729 150.261 440.617 150.219 440.467 150.176C440.329 150.133 440.153 150.112 439.939 150.112C439.417 150.112 439.022 150.261 438.755 150.56C438.499 150.848 438.371 151.264 438.371 151.808C438.371 152.427 438.499 152.875 438.755 153.152C439.022 153.419 439.358 153.552 439.763 153.552C440.201 153.552 440.547 153.451 440.803 153.248V150.304ZM448.426 154.272C448.607 154.272 448.804 154.256 449.018 154.224C449.242 154.181 449.407 154.128 449.514 154.064V152.784L448.362 152.88C448.063 152.901 447.818 152.965 447.626 153.072C447.434 153.179 447.338 153.339 447.338 153.552C447.338 153.765 447.418 153.941 447.578 154.08C447.748 154.208 448.031 154.272 448.426 154.272ZM448.298 147.984C448.874 147.984 449.396 148.043 449.866 148.16C450.346 148.277 450.751 148.459 451.082 148.704C451.423 148.939 451.684 149.243 451.866 149.616C452.047 149.979 452.138 150.411 452.138 150.912V154.496C452.138 154.773 452.058 155.003 451.898 155.184C451.748 155.355 451.567 155.504 451.354 155.632C450.66 156.048 449.684 156.256 448.426 156.256C447.86 156.256 447.348 156.203 446.89 156.096C446.442 155.989 446.052 155.829 445.722 155.616C445.402 155.403 445.151 155.131 444.97 154.8C444.799 154.469 444.714 154.085 444.714 153.648C444.714 152.912 444.932 152.347 445.37 151.952C445.807 151.557 446.484 151.312 447.402 151.216L449.498 150.992V150.88C449.498 150.571 449.359 150.352 449.082 150.224C448.815 150.085 448.426 150.016 447.914 150.016C447.508 150.016 447.114 150.059 446.73 150.144C446.346 150.229 445.999 150.336 445.69 150.464C445.551 150.368 445.434 150.224 445.338 150.032C445.242 149.829 445.194 149.621 445.194 149.408C445.194 149.131 445.258 148.912 445.386 148.752C445.524 148.581 445.732 148.437 446.01 148.32C446.319 148.203 446.682 148.117 447.098 148.064C447.524 148.011 447.924 147.984 448.298 147.984ZM460.361 153.68C460.361 154.491 460.057 155.125 459.449 155.584C458.841 156.043 457.945 156.272 456.761 156.272C456.313 156.272 455.897 156.24 455.513 156.176C455.129 156.112 454.798 156.016 454.521 155.888C454.254 155.749 454.041 155.579 453.881 155.376C453.731 155.173 453.657 154.933 453.657 154.656C453.657 154.4 453.71 154.187 453.817 154.016C453.923 153.835 454.051 153.685 454.201 153.568C454.51 153.739 454.862 153.893 455.257 154.032C455.662 154.16 456.126 154.224 456.649 154.224C456.979 154.224 457.23 154.176 457.401 154.08C457.582 153.984 457.673 153.856 457.673 153.696C457.673 153.547 457.609 153.429 457.481 153.344C457.353 153.259 457.139 153.189 456.841 153.136L456.361 153.04C455.433 152.859 454.739 152.576 454.281 152.192C453.833 151.797 453.609 151.237 453.609 150.512C453.609 150.117 453.694 149.76 453.865 149.44C454.035 149.12 454.275 148.853 454.585 148.64C454.894 148.427 455.262 148.261 455.689 148.144C456.126 148.027 456.606 147.968 457.129 147.968C457.523 147.968 457.891 148 458.233 148.064C458.585 148.117 458.889 148.203 459.145 148.32C459.401 148.437 459.603 148.592 459.753 148.784C459.902 148.965 459.977 149.184 459.977 149.44C459.977 149.685 459.929 149.899 459.833 150.08C459.747 150.251 459.635 150.395 459.497 150.512C459.411 150.459 459.283 150.405 459.113 150.352C458.942 150.288 458.755 150.235 458.553 150.192C458.35 150.139 458.142 150.096 457.929 150.064C457.726 150.032 457.539 150.016 457.369 150.016C457.017 150.016 456.745 150.059 456.553 150.144C456.361 150.219 456.265 150.341 456.265 150.512C456.265 150.629 456.318 150.725 456.425 150.8C456.531 150.875 456.734 150.944 457.033 151.008L457.529 151.12C458.553 151.355 459.278 151.68 459.705 152.096C460.142 152.501 460.361 153.029 460.361 153.68ZM461.612 146.064C461.612 145.659 461.745 145.317 462.012 145.04C462.289 144.763 462.652 144.624 463.1 144.624C463.548 144.624 463.905 144.763 464.172 145.04C464.449 145.317 464.588 145.659 464.588 146.064C464.588 146.469 464.449 146.811 464.172 147.088C463.905 147.365 463.548 147.504 463.1 147.504C462.652 147.504 462.289 147.365 462.012 147.088C461.745 146.811 461.612 146.469 461.612 146.064ZM464.46 155.984C464.342 156.005 464.166 156.032 463.932 156.064C463.708 156.107 463.478 156.128 463.244 156.128C463.009 156.128 462.796 156.112 462.604 156.08C462.422 156.048 462.268 155.984 462.14 155.888C462.012 155.792 461.91 155.664 461.836 155.504C461.772 155.333 461.74 155.115 461.74 154.848V148.336C461.857 148.315 462.028 148.288 462.252 148.256C462.486 148.213 462.721 148.192 462.956 148.192C463.19 148.192 463.398 148.208 463.58 148.24C463.772 148.272 463.932 148.336 464.06 148.432C464.188 148.528 464.284 148.661 464.348 148.832C464.422 148.992 464.46 149.205 464.46 149.472V155.984Z" fill="#1C4966"/>
</g>
<defs>
<clipPath id="clip0_103_41">
<rect width="848.675" height="469.443" fill="white"/>
</clipPath>
</defs>
</svg>
