<svg width="866" height="577" viewBox="0 0 866 577" fill="none" xmlns="http://www.w3.org/2000/svg">
<g clip-path="url(#clip0_102_72)">
<path d="M549.817 320.137C552.847 319.504 555.506 317.705 557.222 315.129C558.938 312.552 559.573 309.404 558.989 306.364C558.859 305.693 558.669 305.034 558.422 304.396L589.893 277.267L569.318 271.446L542.587 298.101C539.779 299.44 537.611 301.831 536.552 304.756C535.492 307.681 535.626 310.905 536.925 313.732C538.029 316.104 539.906 318.03 542.248 319.194C544.591 320.358 547.26 320.69 549.816 320.137L549.817 320.137Z" fill="#FFB6B6"/>
<path d="M754.18 512.528L755.324 486.809C767.248 480.435 780.548 477.068 794.069 477.001C775.46 492.215 777.786 521.542 765.17 542.001C761.186 548.351 755.824 553.724 749.482 557.721C743.139 561.718 735.978 564.237 728.53 565.09L712.958 574.624C710.821 562.712 711.292 550.478 714.339 538.766C717.385 527.053 722.935 516.14 730.605 506.779C734.96 501.57 739.954 496.93 745.468 492.969C749.198 502.803 754.18 512.528 754.18 512.528Z" fill="#F2F2F2"/>
<path d="M714.057 561.388L699.956 561.387L693.248 507L714.059 507.001L714.057 561.388Z" fill="#FFB6B6"/>
<path d="M717.652 575.056L672.187 575.054V574.479C672.187 569.786 674.052 565.285 677.37 561.966C680.689 558.648 685.19 556.783 689.883 556.783H689.884L698.189 550.482L713.684 556.784L717.653 556.784L717.652 575.056Z" fill="#2F2E41"/>
<path d="M648.548 561.388L634.448 561.387L627.74 507L648.551 507.001L648.548 561.388Z" fill="#FFB6B6"/>
<path d="M652.144 575.056L606.679 575.054V574.479C606.679 569.786 608.544 565.285 611.862 561.966C615.181 558.648 619.682 556.783 624.375 556.783H624.376L632.681 550.482L648.176 556.784L652.145 556.784L652.144 575.056Z" fill="#2F2E41"/>
<path d="M642.445 264.048L734.16 266.341C751.579 275.802 751.844 296.279 746.136 320.591C746.136 320.591 748.063 335.041 744.21 338.894C740.356 342.748 738.43 342.748 740.356 349.491C742.283 356.235 732.103 367.249 733.34 368.485C734.576 369.722 737.466 376.465 737.466 376.465L727.833 431.376C727.833 431.376 721.089 526.748 719.162 528.675C717.236 530.602 715.309 528.675 717.236 533.492C719.162 538.309 721.089 536.382 719.162 538.309C717.456 540.149 715.848 542.078 714.346 544.089H691.055C691.055 544.089 689.299 534.455 689.299 533.492C689.299 532.528 687.372 526.748 687.372 525.785C687.372 524.822 689.075 523.119 689.075 523.119C689.663 521.16 690.061 519.15 690.262 517.115C690.262 515.188 696.042 441.01 696.042 441.01L684.482 344.674L656.544 439.083C656.544 439.083 656.544 521.932 654.618 523.858C652.691 525.785 652.691 524.822 653.654 528.675C654.618 532.528 658.471 531.565 655.581 534.455C652.691 537.345 651.728 532.528 652.691 537.345L653.654 542.162L624.754 542.575C624.754 542.575 620.9 534.455 622.827 531.565C624.754 528.675 624.638 529.464 622.288 524.734C619.937 520.005 618.974 519.041 619.937 518.078C620.9 517.115 620.9 511.991 620.9 511.991L625.717 419.816C625.717 419.816 626.681 322.517 626.681 319.627C626.753 318.14 626.479 316.657 625.88 315.293V311.371L629.571 297.47L642.445 264.048Z" fill="#2F2E41"/>
<path d="M548.756 288.845L564.256 301.345L648.756 235.845L643.756 121.845C639.004 125.647 635.053 130.353 632.131 135.692C629.209 141.031 627.375 146.896 626.734 152.948L612.256 217.345L548.756 288.845Z" fill="#E6E6E6"/>
<path d="M628.756 292.845C658.667 296.668 686.225 285.087 712.257 276.345C724.008 272.399 735.847 276.519 746.756 269.845C742.039 223.378 746.619 171.037 756.64 115.259C757.212 112.101 756.615 108.843 754.962 106.093C753.308 103.343 750.711 101.288 747.654 100.312L715.363 91.0481L705.421 80.0806L679.744 86.5988L670.756 102.845L639.869 123.715C638.066 124.933 636.653 126.645 635.8 128.646C634.947 130.647 634.691 132.852 635.061 134.996C644.341 187.453 642.19 241.295 628.756 292.845V292.845Z" fill="#E6E6E6"/>
<path d="M724.217 307.227C726.959 305.791 729.027 303.334 729.975 300.387C730.923 297.441 730.675 294.239 729.284 291.474C728.975 290.863 728.612 290.281 728.201 289.735L751.075 255.048L729.693 255.062L711.249 287.999C708.913 290.054 707.479 292.945 707.258 296.048C707.037 299.151 708.046 302.217 710.067 304.582C711.776 306.563 714.107 307.903 716.678 308.384C719.25 308.865 721.908 308.456 724.217 307.227L724.217 307.227Z" fill="#FFB6B6"/>
<path d="M717.756 274.845L731.756 292.845L780.756 219.845L776.518 145.682C775.979 136.236 773.059 127.08 768.03 119.066C763.001 111.052 756.027 104.44 747.756 99.8452V99.8452L748.756 213.845L717.756 274.845Z" fill="#E6E6E6"/>
<path d="M682.576 75.8375C699.882 75.8375 713.911 61.8081 713.911 44.502C713.911 27.1959 699.882 13.1665 682.576 13.1665C665.27 13.1665 651.24 27.1959 651.24 44.502C651.24 61.8081 665.27 75.8375 682.576 75.8375Z" fill="#FFB6B6"/>
<path d="M662.61 26.1117C663.823 26.1212 665.029 26.2796 666.203 26.5832C668.517 27.1396 670.867 27.5337 673.236 27.7626C680.491 28.4451 687.307 31.5388 692.597 36.5497C697.886 41.5605 701.344 48.1994 702.418 55.406C704.239 53.8185 708.382 50.8983 711.778 53.6123C711.83 53.6554 711.86 53.6775 711.979 53.6209C714.235 52.5511 718.238 39.3819 718.36 27.7866C718.424 21.6323 717.455 13.7735 712.477 11.2848L712.215 11.1537L712.146 10.8687C711.814 9.48434 708.098 7.12122 701.641 5.28194C689.906 1.93947 672.414 -4.57172 662.564 5.01063C661.818 8.24107 659.393 15.1542 656.943 15.9378C654.231 16.8051 651.888 17.5537 651.518 20.8814C651.21 25.6169 651.232 30.3682 651.585 35.1007C652.505 32.2048 654.309 29.6702 656.744 27.8538C658.476 26.688 660.523 26.0801 662.61 26.1117V26.1117Z" fill="#2F2E41"/>
<path d="M865.67 575.253C865.67 575.41 865.64 575.565 865.58 575.709C865.521 575.854 865.433 575.985 865.322 576.096C865.212 576.207 865.081 576.294 864.936 576.354C864.791 576.413 864.636 576.444 864.48 576.443H1.19C0.874395 576.443 0.571725 576.318 0.348557 576.095C0.125388 575.872 0 575.569 0 575.253C0 574.938 0.125388 574.635 0.348557 574.412C0.571725 574.189 0.874395 574.063 1.19 574.063H864.48C864.636 574.063 864.791 574.093 864.936 574.153C865.081 574.213 865.212 574.3 865.322 574.411C865.433 574.522 865.521 574.653 865.58 574.798C865.64 574.942 865.67 575.097 865.67 575.253Z" fill="#CCCCCC"/>
<path d="M357.277 101.123L239.652 127.586C236.5 128.299 233.76 130.232 232.033 132.963C230.305 135.694 229.731 138.998 230.437 142.151L262.691 285.516L400.894 254.423C402.029 254.171 403.068 253.598 403.887 252.771L371.842 110.338C371.129 107.186 369.195 104.446 366.465 102.719C363.734 100.991 360.43 100.417 357.277 101.123V101.123Z" fill="#E6E6E6"/>
<path d="M314.55 120.863L250.088 135.366C247.219 136.014 244.723 137.775 243.15 140.261C241.576 142.747 241.052 145.755 241.694 148.627L272.019 283.417L394.763 255.802L372.679 157.64C369.834 145.063 362.116 134.127 351.219 127.233C340.321 120.338 327.134 118.047 314.55 120.863V120.863Z" fill="white"/>
<path d="M371.158 248.536L290.237 266.741C289.89 266.819 289.562 266.964 289.271 267.168C288.98 267.373 288.732 267.632 288.542 267.932C288.352 268.233 288.222 268.567 288.162 268.918C288.101 269.268 288.11 269.627 288.188 269.973C288.266 270.32 288.411 270.648 288.616 270.939C288.821 271.229 289.081 271.476 289.382 271.666C289.683 271.856 290.018 271.984 290.368 272.044C290.718 272.105 291.077 272.095 291.424 272.016L372.345 253.811C372.692 253.734 373.021 253.589 373.312 253.384C373.603 253.18 373.851 252.92 374.042 252.62C374.232 252.32 374.362 251.985 374.422 251.635C374.483 251.284 374.474 250.925 374.396 250.578C374.318 250.231 374.173 249.903 373.968 249.613C373.762 249.322 373.502 249.075 373.201 248.885C372.9 248.695 372.565 248.567 372.215 248.507C371.864 248.447 371.505 248.457 371.158 248.536Z" fill="#E4E4E4"/>
<path d="M368.811 238.104L287.89 256.31C287.19 256.467 286.581 256.897 286.197 257.503C285.813 258.11 285.686 258.844 285.844 259.544C286.001 260.244 286.431 260.853 287.037 261.237C287.644 261.62 288.378 261.748 289.078 261.59L369.999 243.384C370.346 243.306 370.674 243.161 370.965 242.956C371.255 242.751 371.502 242.491 371.692 242.191C371.882 241.891 372.011 241.556 372.072 241.206C372.133 240.856 372.124 240.497 372.046 240.15C371.968 239.804 371.822 239.476 371.617 239.185C371.413 238.895 371.153 238.647 370.852 238.457C370.552 238.267 370.217 238.138 369.867 238.078C369.517 238.017 369.158 238.026 368.811 238.104H368.811Z" fill="#E4E4E4"/>
<path d="M320.622 237.992L285.544 245.884C284.845 246.041 284.237 246.47 283.853 247.076C283.47 247.682 283.343 248.415 283.5 249.115C283.658 249.814 284.086 250.422 284.692 250.806C285.298 251.189 286.032 251.316 286.731 251.159L321.809 243.267C322.156 243.19 322.485 243.045 322.776 242.841C323.067 242.636 323.315 242.376 323.506 242.076C323.696 241.776 323.826 241.441 323.887 241.091C323.947 240.74 323.939 240.381 323.861 240.034C323.782 239.687 323.637 239.359 323.432 239.069C323.227 238.778 322.966 238.531 322.665 238.341C322.365 238.151 322.029 238.023 321.679 237.963C321.328 237.903 320.969 237.913 320.622 237.992V237.992Z" fill="#E4E4E4"/>
<path d="M361.552 205.836L280.63 224.042C280.284 224.12 279.956 224.265 279.665 224.47C279.375 224.675 279.127 224.935 278.937 225.235C278.554 225.841 278.427 226.576 278.584 227.276C278.742 227.976 279.171 228.585 279.777 228.969C280.384 229.352 281.118 229.48 281.818 229.322L362.74 211.116C363.086 211.038 363.414 210.893 363.705 210.688C363.995 210.483 364.243 210.223 364.433 209.923C364.623 209.623 364.752 209.288 364.812 208.938C364.873 208.588 364.864 208.229 364.786 207.882C364.708 207.535 364.562 207.208 364.358 206.917C364.153 206.627 363.893 206.379 363.593 206.189C363.292 205.999 362.957 205.87 362.607 205.81C362.257 205.749 361.898 205.758 361.552 205.836V205.836Z" fill="#E4E4E4"/>
<path d="M359.206 195.41L278.285 213.615C277.938 213.693 277.609 213.838 277.319 214.042C277.028 214.247 276.78 214.506 276.59 214.806C276.399 215.107 276.27 215.441 276.209 215.792C276.149 216.142 276.157 216.501 276.235 216.847C276.314 217.194 276.459 217.522 276.664 217.813C276.869 218.103 277.129 218.35 277.43 218.54C277.73 218.73 278.065 218.858 278.416 218.918C278.766 218.979 279.125 218.969 279.471 218.89L360.393 200.685C360.74 200.607 361.067 200.462 361.358 200.257C361.648 200.053 361.896 199.793 362.086 199.493C362.276 199.193 362.405 198.858 362.466 198.508C362.526 198.158 362.517 197.8 362.439 197.453C362.361 197.107 362.216 196.779 362.011 196.489C361.806 196.198 361.547 195.951 361.246 195.761C360.946 195.572 360.611 195.443 360.261 195.383C359.911 195.322 359.553 195.331 359.206 195.41V195.41Z" fill="#E4E4E4"/>
<path d="M311.016 195.292L275.938 203.184C275.591 203.262 275.263 203.407 274.973 203.612C274.682 203.817 274.435 204.077 274.245 204.377C274.055 204.678 273.926 205.012 273.865 205.363C273.805 205.713 273.814 206.071 273.892 206.418C273.97 206.765 274.115 207.093 274.32 207.383C274.525 207.674 274.785 207.921 275.085 208.111C275.385 208.301 275.72 208.43 276.07 208.491C276.42 208.551 276.779 208.542 277.126 208.464L312.204 200.572C312.551 200.494 312.879 200.349 313.169 200.144C313.46 199.939 313.707 199.679 313.897 199.379C314.087 199.079 314.216 198.744 314.276 198.394C314.337 198.044 314.328 197.685 314.25 197.338C314.172 196.992 314.027 196.664 313.822 196.373C313.617 196.083 313.357 195.835 313.057 195.645C312.756 195.455 312.422 195.326 312.072 195.266C311.721 195.205 311.363 195.214 311.016 195.292V195.292Z" fill="#E4E4E4"/>
<path d="M351.945 163.136L271.024 181.341C270.324 181.499 269.715 181.928 269.331 182.535C268.947 183.141 268.82 183.875 268.978 184.576C269.135 185.276 269.564 185.885 270.171 186.269C270.777 186.652 271.512 186.779 272.212 186.622L353.133 168.416C353.48 168.338 353.808 168.193 354.098 167.988C354.389 167.783 354.636 167.523 354.826 167.223C355.016 166.922 355.145 166.588 355.206 166.238C355.266 165.887 355.257 165.529 355.179 165.182C355.101 164.835 354.956 164.507 354.751 164.217C354.546 163.926 354.286 163.679 353.986 163.489C353.686 163.299 353.351 163.17 353.001 163.109C352.651 163.049 352.292 163.058 351.945 163.136V163.136Z" fill="#E6E6E6"/>
<path d="M349.6 152.71L268.678 170.916C268.331 170.994 268.003 171.139 267.713 171.344C267.422 171.549 267.175 171.809 266.985 172.109C266.601 172.716 266.474 173.45 266.632 174.15C266.789 174.85 267.219 175.459 267.825 175.843C268.432 176.226 269.166 176.354 269.866 176.196L350.788 157.99C351.134 157.912 351.462 157.767 351.753 157.562C352.043 157.357 352.29 157.097 352.48 156.797C352.67 156.497 352.799 156.162 352.86 155.812C352.921 155.462 352.912 155.103 352.834 154.756C352.756 154.409 352.61 154.082 352.405 153.791C352.201 153.501 351.941 153.253 351.64 153.063C351.34 152.873 351.005 152.744 350.655 152.684C350.305 152.623 349.946 152.632 349.6 152.71V152.71Z" fill="#E6E6E6"/>
<path d="M301.409 152.592L266.331 160.484C265.631 160.642 265.022 161.071 264.638 161.678C264.255 162.284 264.127 163.018 264.285 163.718C264.443 164.419 264.872 165.028 265.478 165.411C266.085 165.795 266.819 165.922 267.519 165.765L302.597 157.873C302.944 157.795 303.272 157.649 303.562 157.444C303.853 157.24 304.1 156.98 304.29 156.679C304.48 156.379 304.609 156.044 304.67 155.694C304.73 155.344 304.721 154.985 304.643 154.639C304.565 154.292 304.42 153.964 304.215 153.673C304.01 153.383 303.75 153.136 303.45 152.946C303.15 152.756 302.815 152.627 302.465 152.566C302.115 152.505 301.756 152.514 301.409 152.592Z" fill="#E6E6E6"/>
<path d="M122.614 267.463C121.847 267.464 121.112 267.769 120.57 268.311C120.028 268.853 119.723 269.588 119.722 270.355V569.402C119.723 570.169 120.027 570.904 120.57 571.447C121.112 571.989 121.847 572.294 122.614 572.295H497.56C498.326 572.294 499.061 571.989 499.603 571.447C500.146 570.904 500.45 570.169 500.451 569.402V318.358C500.45 317.592 500.146 316.856 499.603 316.314C499.061 315.772 498.326 315.467 497.56 315.466H282.365C280.181 315.468 278.074 314.654 276.459 313.184L228.08 269.226C226.832 268.09 225.205 267.461 223.517 267.463H122.614Z" fill="#3F3D56"/>
<path d="M570.077 189.246L369.314 102.935C363.931 100.628 357.853 100.551 352.413 102.719C346.973 104.888 342.615 109.126 340.296 114.504L235.097 359.199L470.982 460.61C472.916 461.449 475.051 461.713 477.132 461.37L581.647 218.265C583.954 212.882 584.031 206.803 581.862 201.363C579.693 195.923 575.455 191.565 570.077 189.246Z" fill="#E6E6E6"/>
<path d="M486.375 172.757L376.352 125.456C371.451 123.354 365.916 123.283 360.962 125.256C356.008 127.23 352.039 131.088 349.925 135.984L251.019 366.044L460.518 456.112L532.548 288.569C541.754 267.085 542.064 242.827 533.408 221.116C524.752 199.404 507.837 182.013 486.375 172.757V172.757Z" fill="white"/>
<path d="M433.611 420.335L295.494 360.957C294.902 360.701 294.266 360.565 293.622 360.556C292.978 360.546 292.339 360.664 291.74 360.902C291.142 361.14 290.596 361.494 290.134 361.943C289.673 362.392 289.304 362.928 289.049 363.52C288.795 364.112 288.66 364.748 288.652 365.392C288.643 366.036 288.762 366.675 289.001 367.274C289.24 367.872 289.595 368.417 290.045 368.878C290.494 369.339 291.031 369.706 291.623 369.96L429.74 429.339C430.331 429.594 430.967 429.73 431.611 429.74C432.256 429.749 432.895 429.631 433.494 429.393C434.092 429.155 434.638 428.801 435.1 428.352C435.561 427.903 435.93 427.367 436.184 426.775C436.439 426.184 436.574 425.548 436.582 424.903C436.591 424.259 436.472 423.62 436.233 423.022C435.994 422.424 435.639 421.879 435.189 421.418C434.739 420.957 434.203 420.589 433.611 420.335V420.335Z" fill="#E4E4E4"/>
<path d="M441.265 402.531L303.148 343.152C301.953 342.639 300.603 342.622 299.395 343.104C298.187 343.585 297.22 344.527 296.706 345.722C296.193 346.917 296.175 348.267 296.656 349.475C297.137 350.683 298.079 351.651 299.274 352.165L437.391 411.544C437.982 411.798 438.618 411.933 439.262 411.942C439.907 411.95 440.546 411.832 441.144 411.594C441.743 411.355 442.288 411.001 442.75 410.552C443.211 410.102 443.58 409.566 443.834 408.975C444.088 408.383 444.224 407.747 444.232 407.103C444.241 406.459 444.123 405.819 443.884 405.221C443.645 404.622 443.291 404.077 442.842 403.616C442.393 403.154 441.857 402.786 441.265 402.531H441.265Z" fill="#E4E4E4"/>
<path d="M370.67 351.097L310.799 325.357C310.207 325.102 309.572 324.967 308.928 324.958C308.284 324.949 307.645 325.066 307.047 325.305C306.449 325.543 305.903 325.897 305.442 326.346C304.98 326.795 304.612 327.33 304.358 327.922C304.103 328.513 303.968 329.149 303.96 329.793C303.951 330.437 304.07 331.076 304.309 331.674C304.547 332.272 304.901 332.817 305.351 333.278C305.8 333.739 306.336 334.107 306.928 334.36L366.799 360.1C367.391 360.355 368.026 360.491 368.67 360.5C369.314 360.509 369.953 360.391 370.551 360.153C371.15 359.914 371.695 359.561 372.156 359.112C372.618 358.663 372.986 358.127 373.24 357.535C373.495 356.944 373.63 356.308 373.638 355.664C373.647 355.021 373.528 354.381 373.289 353.783C373.051 353.186 372.697 352.64 372.247 352.179C371.798 351.719 371.262 351.351 370.67 351.097V351.097Z" fill="#E4E4E4"/>
<path d="M464.943 347.455L326.826 288.076C325.631 287.564 324.282 287.547 323.075 288.029C321.868 288.512 320.901 289.453 320.388 290.647C319.874 291.842 319.856 293.191 320.337 294.399C320.817 295.606 321.758 296.574 322.952 297.089L461.069 356.467C461.661 356.723 462.297 356.859 462.942 356.869C463.586 356.878 464.227 356.76 464.826 356.522C465.425 356.283 465.971 355.929 466.433 355.48C466.895 355.03 467.264 354.494 467.519 353.901C467.773 353.309 467.909 352.672 467.917 352.028C467.925 351.383 467.806 350.743 467.567 350.144C467.328 349.546 466.973 349 466.523 348.538C466.073 348.077 465.536 347.709 464.943 347.455V347.455Z" fill="#E4E4E4"/>
<path d="M472.594 329.66L334.477 270.281C333.885 270.026 333.249 269.89 332.605 269.88C331.961 269.871 331.322 269.989 330.723 270.227C330.125 270.465 329.579 270.819 329.117 271.268C328.655 271.717 328.287 272.253 328.032 272.845C327.778 273.436 327.643 274.072 327.634 274.717C327.626 275.361 327.745 276 327.984 276.598C328.223 277.196 328.578 277.742 329.027 278.202C329.477 278.663 330.014 279.031 330.606 279.285L468.723 338.663C469.314 338.919 469.95 339.055 470.594 339.064C471.238 339.074 471.878 338.956 472.477 338.718C473.075 338.48 473.621 338.126 474.083 337.677C474.544 337.228 474.913 336.692 475.167 336.1C475.422 335.508 475.557 334.872 475.565 334.228C475.574 333.584 475.455 332.945 475.216 332.347C474.977 331.748 474.622 331.203 474.172 330.742C473.722 330.281 473.186 329.914 472.594 329.66V329.66Z" fill="#E4E4E4"/>
<path d="M402.002 278.217L342.131 252.477C340.936 251.964 339.586 251.946 338.378 252.428C337.17 252.91 336.203 253.852 335.689 255.047C335.176 256.242 335.158 257.592 335.639 258.8C336.12 260.008 337.062 260.975 338.256 261.49L398.128 287.229C398.72 287.484 399.356 287.62 400 287.628C400.644 287.637 401.284 287.519 401.883 287.28C402.481 287.042 403.027 286.688 403.489 286.238C403.95 285.789 404.319 285.253 404.573 284.661C404.828 284.069 404.963 283.433 404.972 282.789C404.98 282.144 404.862 281.505 404.623 280.906C404.384 280.308 404.03 279.762 403.58 279.301C403.131 278.839 402.594 278.471 402.002 278.217V278.217Z" fill="#E4E4E4"/>
<path d="M496.276 274.575L358.159 215.196C356.964 214.685 355.615 214.668 354.408 215.15C353.201 215.633 352.235 216.574 351.722 217.768C351.208 218.962 351.19 220.311 351.67 221.519C352.151 222.726 353.091 223.694 354.284 224.209L492.401 283.587C492.993 283.842 493.629 283.978 494.273 283.987C494.918 283.995 495.557 283.877 496.156 283.639C496.754 283.4 497.3 283.046 497.762 282.597C498.223 282.147 498.592 281.611 498.846 281.019C499.101 280.427 499.236 279.791 499.245 279.147C499.253 278.503 499.135 277.863 498.896 277.265C498.657 276.666 498.303 276.121 497.853 275.659C497.404 275.198 496.868 274.829 496.276 274.575V274.575Z" fill="#1C4966"/>
<path d="M503.926 256.78L365.809 197.401C364.614 196.889 363.265 196.872 362.058 197.354C360.85 197.836 359.884 198.778 359.37 199.972C358.857 201.166 358.839 202.516 359.319 203.723C359.8 204.931 360.741 205.899 361.934 206.413L500.051 265.792C500.644 266.049 501.28 266.186 501.926 266.196C502.571 266.206 503.212 266.089 503.812 265.851C504.412 265.613 504.959 265.258 505.421 264.809C505.884 264.359 506.253 263.822 506.508 263.229C506.763 262.636 506.898 261.999 506.907 261.353C506.915 260.708 506.795 260.068 506.556 259.468C506.316 258.869 505.96 258.323 505.509 257.862C505.057 257.401 504.52 257.033 503.926 256.78V256.78Z" fill="#1C4966"/>
<path d="M433.335 205.336L373.463 179.597C372.268 179.084 370.918 179.066 369.711 179.548C368.503 180.03 367.535 180.972 367.022 182.166C366.508 183.361 366.49 184.711 366.971 185.919C367.453 187.127 368.394 188.095 369.589 188.609L429.46 214.349C430.052 214.604 430.688 214.739 431.333 214.748C431.977 214.757 432.616 214.639 433.215 214.4C433.814 214.162 434.359 213.807 434.821 213.358C435.283 212.909 435.651 212.373 435.906 211.781C436.16 211.189 436.295 210.553 436.304 209.908C436.312 209.264 436.194 208.624 435.955 208.026C435.717 207.428 435.362 206.882 434.913 206.421C434.463 205.959 433.927 205.591 433.335 205.336V205.336Z" fill="#1C4966"/>
<path d="M284.277 278.123L166.652 304.586C163.5 305.299 160.76 307.232 159.033 309.963C157.305 312.694 156.731 315.998 157.437 319.151L189.691 462.516L327.894 431.423C329.029 431.171 330.068 430.598 330.887 429.771L298.842 287.338C298.129 284.186 296.195 281.446 293.465 279.719C290.734 277.991 287.43 277.417 284.277 278.123Z" fill="#E6E6E6"/>
<path d="M241.55 297.863L177.088 312.366C174.219 313.014 171.723 314.775 170.15 317.261C168.576 319.747 168.052 322.755 168.694 325.627L199.019 460.417L321.763 432.802L299.679 334.64C296.834 322.063 289.116 311.127 278.219 304.233C267.321 297.338 254.134 295.047 241.55 297.863V297.863Z" fill="white"/>
<path d="M298.158 425.536L217.237 443.741C216.89 443.819 216.562 443.964 216.271 444.168C215.98 444.373 215.732 444.632 215.542 444.933C215.352 445.233 215.222 445.567 215.162 445.918C215.101 446.268 215.11 446.627 215.188 446.973C215.266 447.32 215.411 447.648 215.616 447.939C215.821 448.229 216.081 448.476 216.382 448.666C216.683 448.856 217.018 448.984 217.368 449.045C217.718 449.105 218.077 449.095 218.424 449.016L299.345 430.811C299.692 430.734 300.021 430.589 300.312 430.385C300.603 430.18 300.851 429.92 301.042 429.62C301.232 429.32 301.362 428.985 301.422 428.635C301.483 428.284 301.474 427.925 301.396 427.578C301.318 427.231 301.173 426.903 300.968 426.613C300.762 426.322 300.502 426.075 300.201 425.885C299.9 425.695 299.565 425.567 299.215 425.507C298.864 425.447 298.505 425.457 298.158 425.536V425.536Z" fill="#E4E4E4"/>
<path d="M295.811 415.104L214.89 433.31C214.19 433.467 213.581 433.897 213.197 434.503C212.813 435.11 212.686 435.844 212.844 436.544C213.001 437.244 213.431 437.853 214.037 438.237C214.644 438.621 215.378 438.748 216.078 438.59L296.999 420.384C297.7 420.227 298.309 419.798 298.692 419.191C299.076 418.585 299.203 417.85 299.046 417.15C298.888 416.45 298.459 415.841 297.852 415.457C297.246 415.074 296.512 414.947 295.811 415.104V415.104Z" fill="#E4E4E4"/>
<path d="M247.622 414.992L212.544 422.884C212.198 422.962 211.87 423.107 211.58 423.312C211.29 423.516 211.043 423.776 210.853 424.076C210.663 424.376 210.534 424.71 210.474 425.06C210.413 425.41 210.422 425.768 210.5 426.115C210.578 426.461 210.724 426.789 210.928 427.079C211.133 427.369 211.392 427.616 211.692 427.806C211.992 427.996 212.327 428.124 212.677 428.185C213.026 428.246 213.385 428.237 213.731 428.159L248.809 420.267C249.156 420.19 249.485 420.045 249.776 419.841C250.067 419.636 250.315 419.376 250.506 419.076C250.696 418.776 250.826 418.441 250.887 418.091C250.947 417.74 250.939 417.381 250.861 417.034C250.782 416.687 250.637 416.359 250.432 416.069C250.227 415.778 249.966 415.531 249.665 415.341C249.365 415.151 249.029 415.023 248.679 414.963C248.328 414.903 247.969 414.913 247.622 414.992V414.992Z" fill="#E4E4E4"/>
<path d="M288.552 382.836L207.63 401.041C207.284 401.119 206.956 401.265 206.665 401.469C206.375 401.674 206.127 401.934 205.937 402.234C205.554 402.841 205.427 403.575 205.584 404.275C205.742 404.976 206.171 405.585 206.777 405.968C207.384 406.352 208.118 406.479 208.818 406.321L289.74 388.116C290.44 387.958 291.049 387.529 291.433 386.923C291.816 386.316 291.943 385.582 291.786 384.882C291.628 384.181 291.199 383.572 290.593 383.189C289.986 382.805 289.252 382.678 288.552 382.836V382.836Z" fill="#E4E4E4"/>
<path d="M286.206 372.41L205.285 390.615C204.938 390.693 204.61 390.838 204.319 391.042C204.028 391.246 203.78 391.506 203.59 391.806C203.4 392.107 203.27 392.441 203.21 392.792C203.149 393.142 203.158 393.501 203.236 393.847C203.314 394.194 203.459 394.522 203.664 394.813C203.869 395.103 204.129 395.35 204.43 395.54C204.73 395.73 205.065 395.858 205.416 395.918C205.766 395.979 206.125 395.969 206.472 395.89L287.393 377.685C287.74 377.607 288.068 377.462 288.358 377.257C288.649 377.053 288.896 376.793 289.086 376.493C289.276 376.193 289.405 375.858 289.466 375.508C289.526 375.158 289.518 374.8 289.44 374.453C289.362 374.107 289.216 373.779 289.011 373.489C288.807 373.198 288.547 372.951 288.246 372.761C287.946 372.572 287.611 372.443 287.261 372.383C286.911 372.322 286.553 372.331 286.206 372.41V372.41Z" fill="#E4E4E4"/>
<path d="M238.016 372.292L202.938 380.184C202.238 380.341 201.629 380.771 201.245 381.377C200.861 381.984 200.734 382.718 200.892 383.418C201.049 384.118 201.478 384.727 202.085 385.111C202.692 385.495 203.426 385.622 204.126 385.464L239.204 377.572C239.904 377.415 240.513 376.986 240.897 376.379C241.281 375.773 241.408 375.038 241.25 374.338C241.093 373.638 240.663 373.029 240.057 372.645C239.45 372.262 238.716 372.135 238.016 372.292Z" fill="#E4E4E4"/>
<path d="M278.945 340.136L198.024 358.341C197.677 358.419 197.349 358.565 197.059 358.77C196.768 358.974 196.521 359.234 196.331 359.535C195.947 360.141 195.82 360.875 195.978 361.576C196.135 362.276 196.564 362.885 197.171 363.269C197.777 363.652 198.512 363.779 199.212 363.622L280.133 345.416C280.48 345.338 280.808 345.193 281.098 344.988C281.389 344.783 281.636 344.523 281.826 344.223C282.016 343.922 282.145 343.588 282.206 343.238C282.266 342.887 282.257 342.529 282.179 342.182C282.101 341.835 281.956 341.507 281.751 341.217C281.546 340.926 281.286 340.679 280.986 340.489C280.686 340.299 280.351 340.17 280.001 340.109C279.651 340.049 279.292 340.058 278.945 340.136H278.945Z" fill="#E6E6E6"/>
<path d="M276.6 329.71L195.678 347.916C195.331 347.994 195.003 348.139 194.713 348.344C194.422 348.549 194.175 348.809 193.985 349.109C193.601 349.716 193.474 350.45 193.632 351.15C193.789 351.85 194.219 352.459 194.825 352.843C195.432 353.226 196.166 353.354 196.866 353.196L277.788 334.99C278.488 334.833 279.097 334.404 279.48 333.797C279.864 333.191 279.991 332.456 279.834 331.756C279.676 331.056 279.247 330.447 278.64 330.063C278.034 329.68 277.3 329.553 276.6 329.71H276.6Z" fill="#E6E6E6"/>
<path d="M228.409 329.592L193.331 337.484C192.631 337.642 192.022 338.071 191.638 338.678C191.255 339.284 191.127 340.018 191.285 340.718C191.443 341.419 191.872 342.028 192.478 342.411C193.085 342.795 193.819 342.922 194.519 342.765L229.597 334.873C229.944 334.795 230.272 334.649 230.562 334.444C230.853 334.24 231.1 333.98 231.29 333.679C231.48 333.379 231.609 333.044 231.67 332.694C231.73 332.344 231.721 331.985 231.643 331.639C231.565 331.292 231.42 330.964 231.215 330.673C231.01 330.383 230.75 330.136 230.45 329.946C230.15 329.756 229.815 329.627 229.465 329.566C229.115 329.505 228.756 329.514 228.409 329.592Z" fill="#E6E6E6"/>
<path d="M120.129 346.009C119.75 346.009 119.374 346.083 119.023 346.229C118.672 346.374 118.353 346.587 118.084 346.855C117.816 347.124 117.603 347.443 117.457 347.793C117.312 348.144 117.237 348.52 117.237 348.9C117.237 349.008 117.326 571.727 117.326 571.727C117.405 572.433 117.742 573.086 118.272 573.56C118.803 574.034 119.489 574.295 120.2 574.295H522.973C523.684 574.296 524.37 574.034 524.9 573.56C525.431 573.086 525.767 572.433 525.847 571.727L550.917 349.225C550.963 348.82 550.922 348.411 550.799 348.023C550.675 347.635 550.471 347.277 550.2 346.974C549.93 346.668 549.598 346.424 549.226 346.258C548.854 346.092 548.451 346.007 548.044 346.009L120.129 346.009Z" fill="#3F3D56"/>
<path d="M148.552 358.339C144.465 358.351 140.548 359.97 137.646 362.847C134.744 365.724 133.09 369.627 133.043 373.713L133.546 546.32C133.528 548.368 133.916 550.4 134.687 552.297C135.458 554.194 136.598 555.92 138.04 557.375C139.482 558.829 141.198 559.984 143.088 560.772C144.979 561.559 147.007 561.965 149.055 561.965H404.732C434.056 561.984 462.358 551.192 484.223 531.652C506.088 512.112 519.982 485.196 523.245 456.055L532.312 375.585C532.557 373.415 532.341 371.219 531.678 369.138C531.015 367.058 529.92 365.141 528.465 363.513C527.011 361.885 525.228 360.583 523.236 359.691C521.243 358.8 519.084 358.339 516.901 358.339H148.552ZM540.363 358.339L540.317 357.339H540.363V358.339Z" fill="#1C4966"/>
<path d="M260.234 487.656H161.188C160.165 487.656 159.183 487.249 158.46 486.526C157.736 485.802 157.329 484.82 157.329 483.797C157.329 482.773 157.736 481.792 158.46 481.068C159.183 480.345 160.165 479.938 161.188 479.938H260.234C265.211 479.868 265.261 487.726 260.234 487.656Z" fill="#E4E4E4"/>
<path d="M393.661 507.842H161.188C160.165 507.842 159.183 507.436 158.46 506.712C157.736 505.988 157.329 505.007 157.329 503.983C157.329 502.96 157.736 501.978 158.46 501.255C159.183 500.531 160.165 500.124 161.188 500.124H393.661C398.637 500.055 398.687 507.912 393.661 507.842Z" fill="#E4E4E4"/>
<path d="M378.09 156.256L376.889 159.084C376.769 159.067 376.585 159.024 376.336 158.953C376.098 158.887 375.866 158.806 375.64 158.71C375.414 158.614 375.221 158.509 375.061 158.395C374.907 158.294 374.79 158.175 374.709 158.037C374.639 157.903 374.607 157.744 374.615 157.562C374.623 157.38 374.681 157.161 374.789 156.906L377.734 149.969C377.821 149.763 377.942 149.629 378.096 149.567C378.264 149.499 378.46 149.472 378.686 149.487C379.07 149.511 379.493 149.592 379.956 149.73C380.423 149.859 380.906 150.03 381.407 150.242C382.762 150.817 383.663 151.536 384.108 152.397C384.554 153.258 384.57 154.175 384.158 155.147C383.899 155.755 383.521 156.209 383.024 156.508C382.526 156.807 382.011 156.982 381.479 157.034C381.628 157.665 381.785 158.265 381.95 158.833C382.114 159.401 382.222 159.899 382.272 160.326C382.028 160.628 381.734 160.816 381.39 160.89C381.059 160.958 380.732 160.924 380.408 160.786C380.192 160.694 380.016 160.591 379.88 160.475C379.743 160.359 379.635 160.232 379.555 160.094C379.474 159.955 379.412 159.801 379.368 159.632C379.324 159.463 379.289 159.286 379.263 159.101L378.87 156.587L378.09 156.256ZM379.849 154.691C380.222 154.849 380.556 154.881 380.852 154.786C381.151 154.682 381.38 154.443 381.538 154.07C381.697 153.697 381.693 153.365 381.526 153.074C381.374 152.777 381.038 152.519 380.517 152.298C380.37 152.235 380.25 152.19 380.158 152.163C380.065 152.135 379.961 152.108 379.844 152.082L378.906 154.291L379.849 154.691ZM386.555 163.534C385.975 163.288 385.469 162.98 385.034 162.611C384.614 162.235 384.287 161.807 384.051 161.324C383.825 160.846 383.709 160.316 383.701 159.733C383.703 159.154 383.844 158.536 384.123 157.878C384.398 157.23 384.737 156.719 385.139 156.345C385.555 155.966 385.997 155.702 386.466 155.553C386.939 155.394 387.425 155.34 387.925 155.39C388.43 155.431 388.913 155.549 389.374 155.745C389.895 155.965 390.333 156.244 390.688 156.58C391.053 156.921 391.33 157.293 391.518 157.697C391.715 158.106 391.816 158.537 391.82 158.99C391.835 159.448 391.746 159.903 391.554 160.355C391.412 160.689 391.211 160.904 390.949 161.002C390.688 161.099 390.38 161.102 390.025 161.009L386.156 160.01C386.126 160.38 386.243 160.719 386.506 161.028C386.773 161.327 387.123 161.568 387.555 161.751C387.957 161.922 388.356 162.033 388.751 162.085C389.16 162.131 389.507 162.134 389.791 162.092C389.907 162.257 389.981 162.451 390.014 162.673C390.047 162.896 390.022 163.105 389.938 163.302C389.751 163.744 389.405 163.985 388.901 164.026C388.516 164.059 388.114 164.022 387.697 163.915C387.279 163.807 386.898 163.68 386.555 163.534ZM388.599 157.571C388.363 157.471 388.141 157.423 387.93 157.426C387.73 157.434 387.549 157.479 387.387 157.56C387.229 157.632 387.087 157.734 386.961 157.866C386.85 157.993 386.756 158.133 386.679 158.286L389.373 158.942C389.427 158.733 389.402 158.491 389.299 158.216C389.196 157.94 388.962 157.725 388.599 157.571ZM393.507 166.19C393.39 166.163 393.218 166.119 392.99 166.057C392.767 166.009 392.547 165.939 392.331 165.847C392.115 165.755 391.925 165.657 391.761 165.553C391.606 165.453 391.489 165.333 391.409 165.195C391.328 165.056 391.285 164.899 391.279 164.723C391.287 164.54 391.343 164.327 391.447 164.081L395.073 155.539C395.189 155.565 395.357 155.607 395.575 155.665C395.808 155.718 396.032 155.79 396.248 155.881C396.465 155.973 396.65 156.069 396.804 156.169C396.968 156.274 397.091 156.395 397.171 156.534C397.251 156.672 397.288 156.832 397.28 157.014C397.286 157.191 397.237 157.402 397.133 157.647L393.507 166.19ZM398.819 166.585C398.986 166.656 399.174 166.718 399.383 166.772C399.606 166.82 399.779 166.836 399.902 166.818L400.402 165.64L399.304 165.278C399.021 165.181 398.77 165.144 398.552 165.168C398.333 165.191 398.182 165.3 398.099 165.497C398.016 165.693 398.02 165.886 398.114 166.077C398.221 166.261 398.456 166.431 398.819 166.585ZM401.158 160.747C401.688 160.972 402.147 161.23 402.533 161.521C402.929 161.817 403.231 162.142 403.44 162.497C403.662 162.847 403.784 163.228 403.805 163.643C403.83 164.048 403.745 164.481 403.549 164.942L402.149 168.241C402.04 168.497 401.877 168.676 401.659 168.781C401.455 168.88 401.229 168.946 400.983 168.981C400.182 169.093 399.203 168.903 398.044 168.411C397.524 168.19 397.073 167.941 396.693 167.664C396.322 167.39 396.026 167.091 395.805 166.765C395.594 166.444 395.469 166.096 395.432 165.72C395.404 165.349 395.475 164.963 395.646 164.56C395.934 163.882 396.356 163.448 396.913 163.255C397.469 163.063 398.189 163.101 399.071 163.372L401.088 163.984L401.131 163.881C401.252 163.597 401.21 163.341 401.005 163.115C400.813 162.883 400.482 162.667 400.011 162.467C399.638 162.309 399.258 162.194 398.871 162.122C398.484 162.051 398.123 162.013 397.789 162.01C397.698 161.868 397.647 161.689 397.633 161.475C397.624 161.251 397.661 161.041 397.745 160.845C397.853 160.589 397.997 160.413 398.178 160.316C398.372 160.213 398.62 160.162 398.921 160.162C399.251 160.175 399.619 160.238 400.022 160.351C400.436 160.469 400.815 160.601 401.158 160.747ZM407.165 171.744C406.977 171.803 406.751 171.817 406.486 171.786C406.217 171.764 405.921 171.685 405.597 171.547C405.194 171.377 404.87 171.17 404.626 170.927C404.377 170.694 404.247 170.453 404.237 170.205C404.229 169.924 404.26 169.497 404.329 168.924C404.408 168.355 404.508 167.737 404.629 167.07C404.75 166.402 404.88 165.728 405.019 165.045C405.168 164.367 405.311 163.772 405.446 163.262C405.642 163.183 405.873 163.142 406.141 163.14C406.422 163.132 406.701 163.186 406.976 163.303C407.319 163.449 407.566 163.646 407.715 163.895C407.878 164.138 407.905 164.457 407.796 164.85C407.578 165.638 407.398 166.292 407.259 166.812C407.123 167.323 407.009 167.743 406.914 168.074C406.834 168.399 406.769 168.65 406.717 168.825C406.68 168.995 406.651 169.133 406.629 169.239L406.687 169.264C406.784 169.12 406.929 168.915 407.122 168.649C407.33 168.378 407.564 168.072 407.825 167.731C408.086 167.389 408.364 167.021 408.659 166.625C408.959 166.219 409.257 165.818 409.552 165.422C409.795 165.397 410.021 165.395 410.233 165.416C410.454 165.44 410.707 165.513 410.992 165.634C411.336 165.779 411.608 165.958 411.807 166.171C412.007 166.383 412.093 166.616 412.066 166.871C412 167.353 411.934 167.824 411.867 168.282C411.804 168.73 411.742 169.15 411.68 169.541C411.623 169.922 411.57 170.265 411.522 170.569C411.478 170.863 411.438 171.095 411.4 171.265L411.474 171.296C411.903 170.586 412.34 169.844 412.784 169.071C413.238 168.302 413.688 167.514 414.135 166.707C414.357 166.674 414.577 166.674 414.794 166.709C415.012 166.743 415.218 166.802 415.415 166.885C415.758 167.031 416.012 167.225 416.175 167.469C416.339 167.712 416.343 168.015 416.189 168.378C416.122 168.535 415.998 168.761 415.815 169.054C415.633 169.347 415.419 169.674 415.174 170.033C414.928 170.392 414.66 170.765 414.369 171.151C414.087 171.542 413.807 171.915 413.528 172.272C413.259 172.633 413.006 172.955 412.771 173.237C412.545 173.523 412.36 173.74 412.216 173.888C412.029 173.947 411.778 173.951 411.464 173.899C411.146 173.857 410.825 173.767 410.501 173.629C409.676 173.279 409.278 172.867 409.306 172.392C409.322 172.19 409.342 171.938 409.366 171.635C409.394 171.323 409.428 170.984 409.467 170.618C409.507 170.252 409.555 169.879 409.613 169.498C409.674 169.107 409.745 168.737 409.823 168.388C409.609 168.702 409.373 169.025 409.116 169.357C408.864 169.678 408.609 169.993 408.351 170.3C408.107 170.602 407.878 170.882 407.665 171.139C407.455 171.386 407.289 171.588 407.165 171.744ZM418.38 174.888C418.547 174.959 418.735 175.021 418.944 175.075C419.166 175.123 419.339 175.139 419.463 175.121L419.963 173.943L418.865 173.581C418.582 173.484 418.331 173.447 418.112 173.471C417.894 173.494 417.743 173.604 417.66 173.8C417.576 173.996 417.581 174.19 417.674 174.38C417.781 174.564 418.017 174.734 418.38 174.888ZM420.719 169.05C421.249 169.275 421.707 169.533 422.094 169.824C422.49 170.12 422.792 170.445 423 170.8C423.223 171.15 423.345 171.532 423.366 171.946C423.391 172.351 423.306 172.784 423.11 173.245L421.709 176.544C421.601 176.8 421.438 176.979 421.219 177.084C421.015 177.183 420.79 177.249 420.544 177.284C419.743 177.396 418.763 177.206 417.605 176.714C417.084 176.493 416.634 176.244 416.253 175.967C415.883 175.693 415.587 175.394 415.366 175.068C415.154 174.747 415.03 174.399 414.992 174.023C414.964 173.652 415.036 173.266 415.207 172.863C415.494 172.185 415.917 171.751 416.473 171.558C417.03 171.366 417.749 171.405 418.631 171.675L420.648 172.287L420.692 172.184C420.813 171.9 420.771 171.644 420.565 171.418C420.374 171.186 420.043 170.97 419.572 170.77C419.198 170.612 418.818 170.497 418.432 170.425C418.045 170.354 417.684 170.316 417.349 170.313C417.259 170.171 417.207 169.992 417.194 169.778C417.185 169.554 417.222 169.344 417.305 169.148C417.414 168.892 417.558 168.716 417.738 168.619C417.933 168.516 418.18 168.465 418.482 168.465C418.812 168.478 419.179 168.541 419.583 168.654C419.997 168.772 420.375 168.904 420.719 169.05ZM429.114 175.968C429.243 175.664 429.249 175.405 429.13 175.193C429.026 174.974 428.827 174.803 428.532 174.678C428.336 174.595 428.129 174.536 427.912 174.501C427.704 174.471 427.511 174.476 427.332 174.516L425.163 179.627C425.052 179.614 424.882 179.577 424.654 179.515C424.435 179.457 424.213 179.38 423.987 179.284C423.771 179.192 423.581 179.094 423.417 178.99C423.262 178.89 423.145 178.77 423.064 178.632C422.984 178.493 422.941 178.336 422.935 178.16C422.942 177.977 422.998 177.764 423.103 177.518L424.978 173.1C425.091 172.835 425.236 172.642 425.415 172.521C425.604 172.404 425.826 172.318 426.08 172.264C426.514 172.17 427.013 172.156 427.576 172.221C428.149 172.29 428.745 172.456 429.364 172.719C430.473 173.19 431.223 173.798 431.614 174.543C432.008 175.279 432.022 176.078 431.656 176.942L429.699 181.552C429.588 181.54 429.418 181.503 429.19 181.441C428.971 181.382 428.749 181.305 428.523 181.21C428.307 181.118 428.117 181.02 427.953 180.915C427.798 180.815 427.681 180.696 427.601 180.557C427.52 180.419 427.477 180.262 427.471 180.085C427.479 179.903 427.535 179.689 427.639 179.444L429.114 175.968Z" fill="#1C4966"/>
</g>
<defs>
<clipPath id="clip0_102_72">
<rect width="865.67" height="576.443" fill="white"/>
</clipPath>
</defs>
</svg>
