<svg width="292" height="636" viewBox="0 0 292 636" fill="none" xmlns="http://www.w3.org/2000/svg">
<path d="M192.728 598.379L133.412 598.025L114.088 597.912C110.768 597.895 108.045 599.157 108.008 600.732L107.931 603.856L107.28 628.903C107.23 630.468 109.888 631.768 113.208 631.785C137.403 635.742 162.047 636.142 186.357 632.971C188.178 632.75 190.01 632.508 191.852 632.244C192.976 632.261 194.096 632.108 195.174 631.792C196.815 631.286 197.899 630.419 197.927 629.432L198.014 626.147L198.062 624.121L198.656 601.261C198.693 599.686 196.031 598.394 192.728 598.379Z" fill="#E6E6E6"/>
<path d="M188.344 600.512L131.912 600.185L118.366 600.103C115.262 600.085 112.708 601.264 112.669 602.736L112.619 604.66L112.041 626.95C112.003 628.422 114.488 629.634 117.592 629.652C137.181 631.673 155.358 632.706 168.156 629.946C177.472 629.994 185.688 627.612 190.074 624.045C190.132 624 190.187 623.964 190.245 623.919C190.278 623.889 190.333 623.852 190.366 623.822C191.259 623.164 192.001 622.323 192.544 621.356C193.086 620.388 193.416 619.316 193.512 618.211L193.894 603.214C193.933 601.742 191.448 600.53 188.344 600.512Z" fill="white"/>
<path d="M175.918 579.608L158.951 579.607L150.88 514.163L175.921 514.165L175.918 579.608Z" fill="#FFB6B6"/>
<path d="M176.515 597.308L124.34 597.306V596.646C124.341 591.26 126.48 586.095 130.289 582.286C134.097 578.478 139.262 576.338 144.648 576.338H144.65L154.18 569.108L171.962 576.339L176.516 576.339L176.515 597.308Z" fill="#2F2E41"/>
<path d="M253.918 615.608L236.951 615.607L228.88 550.163L253.921 550.165L253.918 615.608Z" fill="#FFB6B6"/>
<path d="M254.515 633.308L202.34 633.306V632.646C202.341 627.26 204.48 622.095 208.289 618.286C212.097 614.478 217.262 612.338 222.648 612.338H222.65L232.18 605.108L249.962 612.339L254.516 612.339L254.515 633.308Z" fill="#2F2E41"/>
<path d="M45.1688 92.2459C46.3342 93.5484 47.7688 94.5823 49.3731 95.2759C50.9774 95.9696 52.7132 96.3064 54.4605 96.2633C56.2078 96.2201 57.9248 95.7979 59.4929 95.0258C61.061 94.2537 62.4426 93.1503 63.5423 91.7917L121.394 108.259L129.883 93.3773L61.0288 74.3211C58.6043 72.6403 55.6475 71.9072 52.7186 72.2607C49.7897 72.6142 47.0923 74.0298 45.1374 76.2392C43.1824 78.4486 42.1059 81.2984 42.1117 84.2485C42.1175 87.1986 43.2052 90.0442 45.1688 92.2459V92.2459Z" fill="#FFB6B6"/>
<path d="M195.609 229.981L134.737 369.163L127.737 391.163L148.901 545.579L183.061 543.912L182.984 524.109C182.984 524.109 174.855 519.701 182.958 517.306C191.061 514.912 190.719 508.833 182.89 499.872C175.061 490.912 182.523 405.163 182.523 405.163C182.523 405.163 214.76 374.292 211.249 366.227C207.737 358.163 214.256 358.163 214.256 358.163C214.256 358.163 221.206 356.92 221.472 353.541C221.737 350.163 226.888 343.37 226.888 343.37L225.083 581.193H254.558C254.558 581.193 268.033 558.8 265.385 553.981C262.737 549.163 259.033 548.69 265.385 542.926C271.737 537.163 281.059 541.879 276.898 531.021C272.737 520.163 273.806 402.987 273.806 402.987C273.806 402.987 290.202 334.989 280.072 330.372C269.942 325.755 274.978 326.407 280.96 320.081C286.942 313.755 276.797 314.333 281.87 309.544C286.942 304.755 287.147 248.392 287.147 248.392L195.609 229.981Z" fill="#2F2E41"/>
<path d="M291.737 269.163C249.067 269.063 212.457 278.653 169.787 278.553C172.567 259.313 182.282 229.156 185.061 209.912C188.969 182.845 185.939 166.689 189.837 139.623C190.227 136.973 190.607 134.333 190.987 131.683C192.527 120.983 188.837 110.283 195.457 98.9828C198.277 94.1628 202.967 89.2428 210.737 84.1628C226.877 85.8028 226.597 78.5228 242.737 80.1628L248.077 90.8028C248.757 94.8428 251.207 97.4728 254.527 99.4628C261.357 103.593 271.877 105.033 278.197 110.623C286.137 117.643 285.607 128.873 283.247 139.833C282.407 143.733 281.337 147.593 280.327 151.223C272.198 180.469 282.588 202.782 291.061 229.912C291.864 232.485 284.255 242.433 285.061 244.912C286.428 249.112 291.323 254.338 290.544 257.176C289.579 260.69 288.617 263.997 291.737 269.163Z" fill="#233D8C"/>
<path d="M283.247 139.833L189.837 139.623L186.837 139.613L76.0608 98.9118L90.2368 99.3926L96.8168 84.2226L99.9868 76.9326L165.277 98.7526L195.457 98.9826L252.357 99.4026C253.087 99.4126 253.807 99.4326 254.527 99.4626C261.357 103.593 271.877 105.033 278.197 110.623C286.137 117.643 285.607 128.873 283.247 139.833Z" fill="#233D8C"/>
<path d="M219.429 77.2603C236.194 77.2603 249.784 63.6698 249.784 46.905C249.784 30.1403 236.194 16.5498 219.429 16.5498C202.664 16.5498 189.074 30.1403 189.074 46.905C189.074 63.6698 202.664 77.2603 219.429 77.2603Z" fill="#FFB6B6"/>
<path d="M215.115 72.9965L217.588 80.9027C223.07 78.1961 238.627 74.4405 243.192 70.3731C247.757 66.3057 251.288 60.6928 251.504 54.5823C251.616 51.4264 250.852 48.2429 251.376 45.1289C251.969 41.6102 254.141 38.5598 255.135 35.1329C256.065 31.5435 255.715 27.7421 254.145 24.3829C252.575 21.0237 249.883 18.3167 246.533 16.7276C241.501 14.5162 235.747 15.1369 230.277 14.6025C224.807 14.0681 218.705 11.5935 217.165 6.31734C216.59 4.34465 216.656 2.01872 214.893 0.727079C214.008 0.135148 212.934 -0.108037 211.88 0.044386C210.826 0.196809 209.865 0.734053 209.184 1.55258C209.103 1.64471 209.025 1.73774 208.95 1.83168C204.319 7.64049 195.592 8.07174 191.025 2.21287C190.727 1.83 190.44 1.43828 190.165 1.0377C189.205 1.93635 188.433 3.0163 187.893 4.21513C187.353 5.41396 187.057 6.7079 187.02 8.02212C186.983 9.33635 187.208 10.6448 187.68 11.8718C188.152 13.0989 188.863 14.2201 189.771 15.1708C188.046 15.1715 186.371 14.591 185.017 13.5228C183.662 12.4547 182.707 10.9613 182.306 9.28374C180.211 12.1771 178.061 15.1946 177.388 18.7027C176.714 22.2107 177.964 26.3599 181.181 27.9122C182.823 28.5611 184.586 28.8497 186.349 28.7584C178.05 38.5752 183.029 38.2927 199.836 29.0146C208.174 29.173 204.881 36.9207 204.989 45.2594C208.913 44.8824 212.955 44.5137 216.665 46.1662C218.394 46.8939 219.85 48.1455 220.83 49.7447C223.282 53.957 220.849 58.335 218.693 62.1663C216.85 65.4413 215.102 69.3853 216.632 72.818" fill="#2F2E41"/>
<path d="M159.868 327.47C161.397 326.624 162.725 325.457 163.759 324.048C164.793 322.638 165.509 321.021 165.857 319.309C166.204 317.596 166.176 315.828 165.773 314.127C165.37 312.426 164.603 310.833 163.524 309.458L192.482 256.738L179.869 245.143L145.933 308.011C143.753 309.999 142.379 312.718 142.07 315.652C141.762 318.586 142.54 321.531 144.257 323.93C145.975 326.328 148.513 328.013 151.39 328.666C154.267 329.318 157.283 328.893 159.868 327.47L159.868 327.47Z" fill="#FFB6B6"/>
<path d="M230.497 80.9326L223.747 201.853L191.227 277.843L170.061 305.912L172.467 293.193L157.877 285.893L156.507 285.213L175.927 236.023L181.787 221.183L184.517 176.513L187.097 134.273C187.542 127.004 189.49 119.906 192.819 113.429C196.148 106.952 200.785 101.236 206.437 96.6426L222.637 83.4826L230.497 80.9326Z" fill="#233D8C"/>
<path d="M3.17332 81.12C-1.98046 59.4741 -1.12097 38.1543 7.70417 17.2663C7.79734 15.974 8.39929 14.7714 9.378 13.9224C10.3567 13.0734 11.6323 12.6472 12.9248 12.7375L61.1485 16.1592C62.4408 16.2524 63.6433 16.8544 64.4923 17.8331C65.3414 18.8118 65.7675 20.0873 65.6772 21.3798L61.1464 85.2336C61.0532 86.5258 60.4513 87.7284 59.4726 88.5774C58.4939 89.4264 57.2183 89.8526 55.9258 89.7623L7.70213 86.3406C6.40983 86.2474 5.20724 85.6454 4.35822 84.6667C3.5092 83.688 3.08307 82.4125 3.17332 81.12V81.12Z" fill="#F2F2F2"/>
<path d="M8.2408 62.096C4.11629 51.4293 6.75346 36.7592 11.1536 21.045C11.2409 19.8347 11.8046 18.7084 12.7212 17.9133C13.6378 17.1182 14.8324 16.7191 16.0429 16.8036L57.4871 19.7444C58.6974 19.8316 59.8237 20.3953 60.6189 21.3119C61.414 22.2285 61.8132 23.4231 61.7287 24.6336L57.6969 81.4547C57.6096 82.665 57.0458 83.7913 56.1292 84.5864C55.2125 85.3815 54.0179 85.7806 52.8074 85.696L27.1336 83.8743C21.7425 83.4857 16.7258 80.9745 13.1839 76.8917C9.6421 72.8089 7.86437 67.4879 8.2408 62.096V62.096Z" fill="white"/>
</svg>
