<svg width="148" height="429" viewBox="0 0 148 429" fill="none" xmlns="http://www.w3.org/2000/svg">
<path d="M81.2491 274.372C82.4507 273.221 83.3853 271.821 83.9871 270.269C84.5888 268.718 84.8431 267.053 84.7321 265.393C84.621 263.733 84.1472 262.117 83.3441 260.66C82.541 259.202 81.4282 257.939 80.0839 256.958L61.7201 108.928L37.9938 115.982L63.6085 260.041C62.1106 262.408 61.5331 265.243 61.9855 268.008C62.4379 270.773 63.8888 273.276 66.0632 275.042C68.2377 276.809 70.9846 277.716 73.7834 277.593C76.5823 277.469 79.2386 276.323 81.2491 274.372Z" fill="#FFB8B8"/>
<path d="M103.242 415.862H117.119L123.724 362.337H103.242V415.862Z" fill="#FFB8B8"/>
<path d="M143.882 428.748H100.269V411.897H128.573C132.633 411.897 136.527 413.51 139.398 416.381C142.269 419.252 143.882 423.146 143.882 427.207V428.748V428.748Z" fill="#2F2E41"/>
<path d="M7.27905 394.248L20.2861 399.086L45.136 351.221L25.9401 344.08L7.27905 394.248Z" fill="#FFB8B8"/>
<path d="M40.8771 420.493L-1.37028e-05 405.288L5.87461 389.495L32.4031 399.362C36.2086 400.778 39.2959 403.647 40.9859 407.339C42.6758 411.031 42.83 415.243 41.4145 419.048L40.8771 420.493L40.8771 420.493Z" fill="#2F2E41"/>
<path d="M78.3481 70.4996C92.8394 70.4996 104.587 58.7521 104.587 44.2608C104.587 29.7695 92.8394 18.022 78.3481 18.022C63.8569 18.022 52.1093 29.7695 52.1093 44.2608C52.1093 58.7521 63.8569 70.4996 78.3481 70.4996Z" fill="#FFB8B8"/>
<path d="M37.3073 111.603C36.4857 87.4346 61.8863 70.6684 83.2574 81.9843C85.9803 83.426 114.095 107.312 115.155 122.145C116.214 136.979 118.333 161.348 118.333 161.348L148 382.791L84.4281 379.612L92.1055 315.014L50.7838 380.705L0.724915 364.779L62.1779 187.837C62.1779 187.837 38.5524 148.229 37.3073 111.603Z" fill="#2F2E41"/>
<path d="M37.8077 120.016L41.8899 173.085C41.9326 173.639 42.1828 174.157 42.5906 174.534C42.9984 174.912 43.5337 175.122 44.0895 175.122H62.0512C62.4142 175.122 62.7715 175.032 63.0916 174.861C63.4117 174.69 63.6846 174.442 63.8861 174.141C64.0876 173.839 64.2115 173.492 64.2468 173.13C64.2821 172.769 64.2277 172.405 64.0885 172.07L42.0446 119.001C41.8433 118.516 41.4758 118.119 41.0082 117.881C40.5406 117.643 40.0034 117.58 39.4931 117.702C38.9828 117.824 38.5328 118.124 38.2239 118.549C37.915 118.973 37.7675 119.493 37.8077 120.016V120.016Z" fill="#2F2E41"/>
<path d="M130.048 265.177C131.107 263.893 131.871 262.393 132.287 260.782C132.704 259.171 132.761 257.488 132.457 255.852C132.152 254.216 131.492 252.667 130.524 251.313C129.556 249.96 128.303 248.835 126.853 248.019L91.2917 103.155L68.554 112.938L110.852 253.009C109.641 255.535 109.4 258.418 110.172 261.111C110.945 263.804 112.679 266.119 115.045 267.619C117.412 269.119 120.246 269.699 123.011 269.249C125.776 268.799 128.28 267.35 130.048 265.177V265.177Z" fill="#FFB8B8"/>
<path d="M71.7136 90.3594C71.7136 90.3594 64.2969 105.193 71.7136 131.681C79.1303 158.17 84.4281 180.42 84.4281 180.42C84.4281 180.42 101.381 169.824 108.797 173.003C116.214 176.182 97.0651 102.392 97.0651 102.392C97.0651 102.392 85.4875 77.645 71.7136 90.3594Z" fill="#2F2E41"/>
<path d="M84.5052 48.355C84.8596 42.9106 91.7282 42.724 97.184 42.6725C102.64 42.6209 109.162 42.8157 112.249 38.3171C114.289 35.3441 113.9 31.2167 112.214 28.0293C110.529 24.8418 107.757 22.3903 105.029 20.0319C97.9879 13.943 90.7308 7.9025 82.2771 4.00524C73.8233 0.107981 63.9166 -1.46676 55.1492 1.66174C44.3791 5.50482 29.8199 25.2876 28.5627 36.6535C27.3055 48.0194 31.8478 59.606 39.5046 68.0994C47.1614 76.5927 64.6865 73.1658 75.7153 76.1873C69.0104 66.6977 73.4299 49.4548 84.171 45.0233L84.5052 48.355Z" fill="#2F2E41"/>
</svg>
